<?xml version="1.0" encoding="UTF-8"?>
<!DOCTYPE svg PUBLIC "-//W3C//DTD SVG 1.1//EN" "http://www.w3.org/Graphics/SVG/1.1/DTD/svg11.dtd">
<svg xmlns="http://www.w3.org/2000/svg" version="1.1" width="512px" height="512px" style="shape-rendering:geometricPrecision; text-rendering:geometricPrecision; image-rendering:optimizeQuality; fill-rule:evenodd; clip-rule:evenodd" xmlns:xlink="http://www.w3.org/1999/xlink">
<g><path style="opacity:0.973" fill="#673e27" d="M 344.5,105.5 C 344.167,105.5 343.833,105.5 343.5,105.5C 343.5,99.8333 343.5,94.1667 343.5,88.5C 331.5,88.5 319.5,88.5 307.5,88.5C 307.5,76.8333 307.5,65.1667 307.5,53.5C 272.5,53.5 237.5,53.5 202.5,53.5C 202.5,65.1667 202.5,76.8333 202.5,88.5C 190.833,88.5 179.167,88.5 167.5,88.5C 167.5,94.1667 167.5,99.8333 167.5,105.5C 167.167,105.5 166.833,105.5 166.5,105.5C 166.333,86.8304 166.5,68.1637 167,49.5C 169.32,33.027 178.487,22.527 194.5,18C 235.167,17.3333 275.833,17.3333 316.5,18C 332.931,23.1062 342.098,34.2729 344,51.5C 344.5,69.4969 344.667,87.4969 344.5,105.5 Z M 307.5,88.5 C 307.5,94.1667 307.5,99.8333 307.5,105.5C 272.5,105.5 237.5,105.5 202.5,105.5C 202.5,99.8333 202.5,94.1667 202.5,88.5C 202.5,76.8333 202.5,65.1667 202.5,53.5C 237.5,53.5 272.5,53.5 307.5,53.5C 307.5,65.1667 307.5,76.8333 307.5,88.5 Z"/></g>
<g><path style="opacity:1" fill="#5c3523" d="M 202.5,88.5 C 202.5,94.1667 202.5,99.8333 202.5,105.5C 190.833,106.833 179.167,106.833 167.5,105.5C 167.5,99.8333 167.5,94.1667 167.5,88.5C 179.167,88.5 190.833,88.5 202.5,88.5 Z"/></g>
<g><path style="opacity:1" fill="#5c3523" d="M 307.5,88.5 C 319.5,88.5 331.5,88.5 343.5,88.5C 343.5,94.1667 343.5,99.8333 343.5,105.5C 343.5,105.833 343.5,106.167 343.5,106.5C 331.42,106.812 319.42,106.479 307.5,105.5C 307.5,99.8333 307.5,94.1667 307.5,88.5 Z"/></g>
<g><path style="opacity:1" fill="#7d4a30" d="M 343.5,106.5 C 343.5,106.167 343.5,105.833 343.5,105.5C 343.833,105.5 344.167,105.5 344.5,105.5C 390.168,105.333 435.835,105.5 481.5,106C 497.12,109.123 507.12,118.289 511.5,133.5C 511.5,168.5 511.5,203.5 511.5,238.5C 438.394,271.054 365.061,303.054 291.5,334.5C 291.5,343.5 291.5,352.5 291.5,361.5C 291.813,365.042 291.479,368.375 290.5,371.5C 290.5,365.167 290.5,358.833 290.5,352.5C 290.5,346.833 290.5,341.167 290.5,335.5C 290.5,329.5 290.5,323.5 290.5,317.5C 290.5,311.833 290.5,306.167 290.5,300.5C 267.006,299.502 243.339,299.169 219.5,299.5C 219.5,311.5 219.5,323.5 219.5,335.5C 195.651,325.072 171.984,314.406 148.5,303.5C 225.988,238.245 303.321,172.745 380.5,107C 368.171,106.5 355.838,106.333 343.5,106.5 Z"/></g>
<g><path style="opacity:1" fill="#845037" d="M 166.5,105.5 C 166.833,105.5 167.167,105.5 167.5,105.5C 179.167,106.833 190.833,106.833 202.5,105.5C 237.5,105.5 272.5,105.5 307.5,105.5C 319.42,106.479 331.42,106.812 343.5,106.5C 355.838,106.333 368.171,106.5 380.5,107C 303.321,172.745 225.988,238.245 148.5,303.5C 98.7456,282.027 49.079,260.36 -0.5,238.5C -0.5,203.167 -0.5,167.833 -0.5,132.5C 4.28464,117.888 14.2846,109.055 29.5,106C 75.1655,105.5 120.832,105.333 166.5,105.5 Z"/></g>
<g><path style="opacity:1" fill="#663a26" d="M -0.5,238.5 C 49.079,260.36 98.7456,282.027 148.5,303.5C 171.984,314.406 195.651,325.072 219.5,335.5C 219.5,344.167 219.5,352.833 219.5,361.5C 211.084,358.028 202.75,354.361 194.5,350.5C 129.383,322.108 64.3825,293.441 -0.5,264.5C -0.5,255.833 -0.5,247.167 -0.5,238.5 Z"/></g>
<g><path style="opacity:1" fill="#663a26" d="M 511.5,238.5 C 511.5,247.167 511.5,255.833 511.5,264.5C 438.167,296.833 364.833,329.167 291.5,361.5C 291.5,352.5 291.5,343.5 291.5,334.5C 365.061,303.054 438.394,271.054 511.5,238.5 Z"/></g>
<g><path style="opacity:0.999" fill="#72442d" d="M -0.5,264.5 C 64.3825,293.441 129.383,322.108 194.5,350.5C 141.5,398.5 88.5,446.5 35.5,494.5C 17.151,493.802 5.15098,484.802 -0.5,467.5C -0.5,399.833 -0.5,332.167 -0.5,264.5 Z"/></g>
<g><path style="opacity:0.998" fill="#6e3f28" d="M 511.5,264.5 C 511.5,331.833 511.5,399.167 511.5,466.5C 507.238,481.26 497.571,490.427 482.5,494C 333.5,494.5 184.5,494.667 35.5,494.5C 88.5,446.5 141.5,398.5 194.5,350.5C 202.75,354.361 211.084,358.028 219.5,361.5C 219.183,365.702 219.517,369.702 220.5,373.5C 223.432,393.386 234.932,404.052 255,405.5C 272.986,404.862 284.653,395.862 290,378.5C 290.497,376.19 290.663,373.857 290.5,371.5C 291.479,368.375 291.813,365.042 291.5,361.5C 364.833,329.167 438.167,296.833 511.5,264.5 Z"/></g>
<g><path style="opacity:1" fill="#cf872c" d="M 290.5,300.5 C 267.167,300.5 243.833,300.5 220.5,300.5C 220.5,306.167 220.5,311.833 220.5,317.5C 220.5,323.5 220.5,329.5 220.5,335.5C 220.5,341.167 220.5,346.833 220.5,352.5C 220.5,359.5 220.5,366.5 220.5,373.5C 219.517,369.702 219.183,365.702 219.5,361.5C 219.5,352.833 219.5,344.167 219.5,335.5C 219.5,323.5 219.5,311.5 219.5,299.5C 243.339,299.169 267.006,299.502 290.5,300.5 Z"/></g>
<g><path style="opacity:1" fill="#fcb52d" d="M 290.5,300.5 C 290.5,306.167 290.5,311.833 290.5,317.5C 267.167,317.5 243.833,317.5 220.5,317.5C 220.5,311.833 220.5,306.167 220.5,300.5C 243.833,300.5 267.167,300.5 290.5,300.5 Z"/></g>
<g><path style="opacity:1" fill="#fda02d" d="M 220.5,317.5 C 243.833,317.5 267.167,317.5 290.5,317.5C 290.5,323.5 290.5,329.5 290.5,335.5C 267.167,335.5 243.833,335.5 220.5,335.5C 220.5,329.5 220.5,323.5 220.5,317.5 Z"/></g>
<g><path style="opacity:1" fill="#ef8709" d="M 220.5,335.5 C 243.833,335.5 267.167,335.5 290.5,335.5C 290.5,341.167 290.5,346.833 290.5,352.5C 267.167,352.5 243.833,352.5 220.5,352.5C 220.5,346.833 220.5,341.167 220.5,335.5 Z"/></g>
<g><path style="opacity:1" fill="#fea02d" d="M 220.5,352.5 C 243.833,352.5 267.167,352.5 290.5,352.5C 290.5,358.833 290.5,365.167 290.5,371.5C 290.663,373.857 290.497,376.19 290,378.5C 284.653,395.862 272.986,404.862 255,405.5C 234.932,404.052 223.432,393.386 220.5,373.5C 220.5,366.5 220.5,359.5 220.5,352.5 Z"/></g>
<g><path style="opacity:1" fill="#fdb42e" d="M 246.5,361.5 C 252.176,361.334 257.843,361.501 263.5,362C 264.475,367.741 264.808,373.575 264.5,379.5C 258.5,379.5 252.5,379.5 246.5,379.5C 246.5,373.5 246.5,367.5 246.5,361.5 Z"/></g>
</svg>
