<?xml version="1.0" encoding="UTF-8"?>
<!DOCTYPE svg PUBLIC "-//W3C//DTD SVG 1.1//EN" "http://www.w3.org/Graphics/SVG/1.1/DTD/svg11.dtd">
<svg xmlns="http://www.w3.org/2000/svg" version="1.1" width="512px" height="512px" style="shape-rendering:geometricPrecision; text-rendering:geometricPrecision; image-rendering:optimizeQuality; fill-rule:evenodd; clip-rule:evenodd" xmlns:xlink="http://www.w3.org/1999/xlink">
<g><path style="opacity:0.998" fill="#e4646e" d="M 399.5,118.5 C 408.961,138.089 419.461,157.089 431,175.5C 438.86,183.016 448.027,188.349 458.5,191.5C 463.367,200.264 462.034,208.097 454.5,215C 443.059,218.851 431.725,222.685 420.5,226.5C 416.521,226.742 412.854,227.742 409.5,229.5C 403.779,229.963 398.445,231.63 393.5,234.5C 372.426,245.09 359.926,262.09 356,285.5C 353.376,301.451 351.209,317.451 349.5,333.5C 307.832,333.667 266.165,333.5 224.5,333C 219.071,331.198 214.571,328.031 211,323.5C 208.473,318.447 205.973,313.447 203.5,308.5C 205.167,307.167 206.833,305.833 208.5,304.5C 215.996,299.251 223.663,294.251 231.5,289.5C 235.768,303.971 245.435,310.471 260.5,309C 277.457,302.586 283.29,290.753 278,273.5C 276.667,271.5 275.333,269.5 274,267.5C 271.648,265.97 269.481,264.303 267.5,262.5C 268.465,261.279 268.298,259.946 267,258.5C 261.158,250.803 255.324,243.137 249.5,235.5C 257.876,230.637 265.876,225.137 273.5,219C 290.833,218.667 308.167,218.333 325.5,218C 331.747,215.921 335.747,211.754 337.5,205.5C 338.491,199.021 338.824,192.354 338.5,185.5C 356.341,185.83 374.008,185.497 391.5,184.5C 401.609,181.912 405.943,175.579 404.5,165.5C 403.551,160.28 401.551,155.614 398.5,151.5C 396.041,143.456 393.374,135.456 390.5,127.5C 391.182,122.152 394.182,119.152 399.5,118.5 Z"/></g>
<g><path style="opacity:0.991" fill="#dad6d9" d="M 399.5,118.5 C 407.232,117.636 413.399,120.303 418,126.5C 431.751,148.069 445.251,169.735 458.5,191.5C 448.027,188.349 438.86,183.016 431,175.5C 419.461,157.089 408.961,138.089 399.5,118.5 Z"/></g>
<g><path style="opacity:0.99" fill="#da4655" d="M 143.5,160.5 C 142.057,162.621 141.057,164.954 140.5,167.5C 143.726,175.888 149.726,181.388 158.5,184C 176.444,185.446 194.444,185.946 212.5,185.5C 218.115,193.783 224.115,201.783 230.5,209.5C 236.833,218.167 243.167,226.833 249.5,235.5C 255.324,243.137 261.158,250.803 267,258.5C 268.298,259.946 268.465,261.279 267.5,262.5C 254.484,256.452 243.818,259.118 235.5,270.5C 234.078,270.291 232.745,269.791 231.5,269C 223.271,262.591 214.937,256.425 206.5,250.5C 160.591,216.098 115.091,181.098 70,145.5C 68.8175,141.726 69.6508,138.559 72.5,136C 86.5,135.333 100.5,135.333 114.5,136C 120.069,137.186 125.069,139.519 129.5,143C 134.76,148.419 139.427,154.253 143.5,160.5 Z"/></g>
<g><path style="opacity:0.99" fill="#e4646e" d="M 337.5,168.5 C 337.5,169.833 337.5,171.167 337.5,172.5C 337.5,176.833 337.5,181.167 337.5,185.5C 313.831,185.333 290.164,185.5 266.5,186C 262.714,187.393 259.048,189.059 255.5,191C 246.743,196.7 238.409,202.867 230.5,209.5C 224.115,201.783 218.115,193.783 212.5,185.5C 211.575,179.199 212.908,173.532 216.5,168.5C 235.408,148.404 258.741,140.071 286.5,143.5C 294.5,143.667 302.5,143.833 310.5,144C 324.422,146.756 333.422,154.923 337.5,168.5 Z"/></g>
<g><path style="opacity:0.981" fill="#4b3f4e" d="M 370.5,151.5 C 377.379,152.556 380.213,156.556 379,163.5C 377.975,165.687 376.475,167.354 374.5,168.5C 371.833,168.5 369.167,168.5 366.5,168.5C 362.76,165.357 361.593,161.357 363,156.5C 364.857,153.8 367.357,152.134 370.5,151.5 Z"/></g>
<g><path style="opacity:1" fill="#5d535f" d="M 370.5,151.5 C 379.833,151.5 389.167,151.5 398.5,151.5C 401.551,155.614 403.551,160.28 404.5,165.5C 404.5,166.5 404.5,167.5 404.5,168.5C 394.5,168.5 384.5,168.5 374.5,168.5C 376.475,167.354 377.975,165.687 379,163.5C 380.213,156.556 377.379,152.556 370.5,151.5 Z"/></g>
<g><path style="opacity:0.984" fill="#5e525f" d="M 216.5,168.5 C 212.908,173.532 211.575,179.199 212.5,185.5C 194.444,185.946 176.444,185.446 158.5,184C 149.726,181.388 143.726,175.888 140.5,167.5C 141.057,164.954 142.057,162.621 143.5,160.5C 149.7,158.093 154.7,159.593 158.5,165C 160.717,166.275 163.051,167.275 165.5,168C 182.497,168.5 199.497,168.667 216.5,168.5 Z"/></g>
<g><path style="opacity:0.991" fill="#b5afb5" d="M 404.5,165.5 C 405.943,175.579 401.609,181.912 391.5,184.5C 373.833,184.5 356.167,184.5 338.5,184.5C 338.817,180.298 338.483,176.298 337.5,172.5C 337.5,171.167 337.5,169.833 337.5,168.5C 347.167,168.5 356.833,168.5 366.5,168.5C 369.167,168.5 371.833,168.5 374.5,168.5C 384.5,168.5 394.5,168.5 404.5,168.5C 404.5,167.5 404.5,166.5 404.5,165.5 Z"/></g>
<g><path style="opacity:1" fill="#c7a0a6" d="M 337.5,172.5 C 338.483,176.298 338.817,180.298 338.5,184.5C 356.167,184.5 373.833,184.5 391.5,184.5C 374.008,185.497 356.341,185.83 338.5,185.5C 338.824,192.354 338.491,199.021 337.5,205.5C 337.5,198.833 337.5,192.167 337.5,185.5C 337.5,181.167 337.5,176.833 337.5,172.5 Z"/></g>
<g><path style="opacity:1" fill="#dad7da" d="M 337.5,185.5 C 337.5,192.167 337.5,198.833 337.5,205.5C 335.747,211.754 331.747,215.921 325.5,218C 308.167,218.333 290.833,218.667 273.5,219C 265.876,225.137 257.876,230.637 249.5,235.5C 243.167,226.833 236.833,218.167 230.5,209.5C 238.409,202.867 246.743,196.7 255.5,191C 259.048,189.059 262.714,187.393 266.5,186C 290.164,185.5 313.831,185.333 337.5,185.5 Z"/></g>
<g><path style="opacity:0.989" fill="#5d5360" d="M 157.5,274.5 C 154.06,272.945 150.727,271.112 147.5,269C 143.82,267.973 140.653,268.806 138,271.5C 136.141,274.564 134.308,277.564 132.5,280.5C 115.107,255.088 91.4407,246.588 61.5,255C 38.301,265.06 25.9676,282.727 24.5,308C 25.7416,338.473 41.0749,357.806 70.5,366C 106.789,369.355 129.623,353.521 139,318.5C 139.499,313.177 139.666,307.844 139.5,302.5C 148.035,307.263 156.368,312.263 164.5,317.5C 160.379,349.459 143.713,372.292 114.5,386C 76.534,399.217 44.034,391.05 17,361.5C 8.35265,349.71 2.51932,336.71 -0.5,322.5C -0.5,313.5 -0.5,304.5 -0.5,295.5C 8.10483,257.729 31.4382,234.896 69.5,227C 100.015,223.28 125.515,232.78 146,255.5C 150.483,261.474 154.317,267.807 157.5,274.5 Z"/></g>
<g><path style="opacity:0.991" fill="#5d5360" d="M 420.5,226.5 C 469.049,225.739 499.382,248.739 511.5,295.5C 511.5,304.5 511.5,313.5 511.5,322.5C 501.062,365.761 473.562,389.095 429,392.5C 389.928,390.245 363.428,370.912 349.5,334.5C 349.5,334.167 349.5,333.833 349.5,333.5C 351.209,317.451 353.376,301.451 356,285.5C 359.926,262.09 372.426,245.09 393.5,234.5C 395.965,242.562 398.632,250.562 401.5,258.5C 373.482,276.243 364.982,300.91 376,332.5C 393.194,363.569 418.694,373.402 452.5,362C 479.387,347.382 490.221,324.882 485,294.5C 473.659,262.673 451.159,248.673 417.5,252.5C 414.459,245.046 411.792,237.38 409.5,229.5C 412.854,227.742 416.521,226.742 420.5,226.5 Z M 423.5,268.5 C 454.954,269.12 470.121,285.12 469,316.5C 461.948,340.879 445.782,351.712 420.5,349C 404,344.5 393.5,334 389,317.5C 386.45,299.28 392.617,284.946 407.5,274.5C 408.766,279.965 410.433,285.299 412.5,290.5C 403.414,298.858 401.247,308.858 406,320.5C 415.585,334.688 428.085,337.855 443.5,330C 457.685,316.694 458.018,303.027 444.5,289C 439.692,285.675 434.359,283.842 428.5,283.5C 427.117,278.402 425.45,273.402 423.5,268.5 Z"/></g>
<g><path style="opacity:0.994" fill="#b5b0b6" d="M 409.5,229.5 C 411.792,237.38 414.459,245.046 417.5,252.5C 418.987,258.12 420.987,263.453 423.5,268.5C 425.45,273.402 427.117,278.402 428.5,283.5C 431.793,291.877 434.793,300.377 437.5,309C 436.167,315.666 432.167,318.333 425.5,317C 424.333,315.833 423.167,314.667 422,313.5C 419.315,305.485 416.148,297.819 412.5,290.5C 410.433,285.299 408.766,279.965 407.5,274.5C 405.695,269.084 403.695,263.751 401.5,258.5C 398.632,250.562 395.965,242.562 393.5,234.5C 398.445,231.63 403.779,229.963 409.5,229.5 Z"/></g>
<g><path style="opacity:0.985" fill="#e4646d" d="M 132.5,280.5 C 125.362,290.894 127.695,298.227 139.5,302.5C 139.666,307.844 139.499,313.177 139,318.5C 129.623,353.521 106.789,369.355 70.5,366C 41.0749,357.806 25.7416,338.473 24.5,308C 25.9676,282.727 38.301,265.06 61.5,255C 91.4407,246.588 115.107,255.088 132.5,280.5 Z M 75.5,268.5 C 107.949,268.782 123.449,285.115 122,317.5C 112.127,345.52 92.9602,355.02 64.5,346C 45.7719,335.038 38.6052,318.871 43,297.5C 48.6587,281.937 59.492,272.27 75.5,268.5 Z"/></g>
<g><path style="opacity:0.995" fill="#9b959c" d="M 206.5,250.5 C 214.937,256.425 223.271,262.591 231.5,269C 232.745,269.791 234.078,270.291 235.5,270.5C 230.851,276.119 229.518,282.452 231.5,289.5C 223.663,294.251 215.996,299.251 208.5,304.5C 198.833,298.5 189.167,292.5 179.5,286.5C 188.975,274.896 197.975,262.896 206.5,250.5 Z"/></g>
<g><path style="opacity:0.986" fill="#e4636d" d="M 401.5,258.5 C 403.695,263.751 405.695,269.084 407.5,274.5C 392.617,284.946 386.45,299.28 389,317.5C 393.5,334 404,344.5 420.5,349C 445.782,351.712 461.948,340.879 469,316.5C 470.121,285.12 454.954,269.12 423.5,268.5C 420.987,263.453 418.987,258.12 417.5,252.5C 451.159,248.673 473.659,262.673 485,294.5C 490.221,324.882 479.387,347.382 452.5,362C 418.694,373.402 393.194,363.569 376,332.5C 364.982,300.91 373.482,276.243 401.5,258.5 Z M 423.5,268.5 C 454.954,269.12 470.121,285.12 469,316.5C 461.948,340.879 445.782,351.712 420.5,349C 404,344.5 393.5,334 389,317.5C 386.45,299.28 392.617,284.946 407.5,274.5C 408.766,279.965 410.433,285.299 412.5,290.5C 403.414,298.858 401.247,308.858 406,320.5C 415.585,334.688 428.085,337.855 443.5,330C 457.685,316.694 458.018,303.027 444.5,289C 439.692,285.675 434.359,283.842 428.5,283.5C 427.117,278.402 425.45,273.402 423.5,268.5 Z"/></g>
<g><path style="opacity:1" fill="#b6afb6" d="M 267.5,262.5 C 269.481,264.303 271.648,265.97 274,267.5C 275.333,269.5 276.667,271.5 278,273.5C 283.29,290.753 277.457,302.586 260.5,309C 245.435,310.471 235.768,303.971 231.5,289.5C 229.518,282.452 230.851,276.119 235.5,270.5C 243.818,259.118 254.484,256.452 267.5,262.5 Z"/></g>
<g><path style="opacity:0.996" fill="#d9d7da" d="M 157.5,274.5 C 164.806,278.488 172.14,282.488 179.5,286.5C 189.167,292.5 198.833,298.5 208.5,304.5C 206.833,305.833 205.167,307.167 203.5,308.5C 195.809,312.555 192.976,318.889 195,327.5C 196.18,330.521 197.346,333.521 198.5,336.5C 187.167,330.167 175.833,323.833 164.5,317.5C 156.368,312.263 148.035,307.263 139.5,302.5C 127.695,298.227 125.362,290.894 132.5,280.5C 134.308,277.564 136.141,274.564 138,271.5C 140.653,268.806 143.82,267.973 147.5,269C 150.727,271.112 154.06,272.945 157.5,274.5 Z"/></g>
<g><path style="opacity:1" fill="#d9d7da" d="M 251.5,276.5 C 260.158,275.327 263.992,278.994 263,287.5C 259.108,293.259 254.441,293.926 249,289.5C 246.458,284.438 247.292,280.105 251.5,276.5 Z"/></g>
<g><path style="opacity:0.975" fill="#857d87" d="M 80.5,283.5 C 102.688,286.541 110.854,298.874 105,320.5C 96.6909,333.461 85.1909,337.294 70.5,332C 56.4306,322.333 53.2639,309.833 61,294.5C 66.0683,288.055 72.5683,284.388 80.5,283.5 Z"/></g>
<g><path style="opacity:0.967" fill="#857e87" d="M 428.5,283.5 C 434.359,283.842 439.692,285.675 444.5,289C 458.018,303.027 457.685,316.694 443.5,330C 428.085,337.855 415.585,334.688 406,320.5C 401.247,308.858 403.414,298.858 412.5,290.5C 416.148,297.819 419.315,305.485 422,313.5C 423.167,314.667 424.333,315.833 425.5,317C 432.167,318.333 436.167,315.666 437.5,309C 434.793,300.377 431.793,291.877 428.5,283.5 Z"/></g>
<g><path style="opacity:0.995" fill="#db4655" d="M 203.5,308.5 C 205.973,313.447 208.473,318.447 211,323.5C 214.571,328.031 219.071,331.198 224.5,333C 266.165,333.5 307.832,333.667 349.5,333.5C 349.5,333.833 349.5,334.167 349.5,334.5C 345.933,341.898 340.266,347.064 332.5,350C 293.167,350.667 253.833,350.667 214.5,350C 206.93,348.062 201.597,343.562 198.5,336.5C 197.346,333.521 196.18,330.521 195,327.5C 192.976,318.889 195.809,312.555 203.5,308.5 Z"/></g>
</svg>
