<?xml version="1.0" encoding="UTF-8"?>
<!DOCTYPE svg PUBLIC "-//W3C//DTD SVG 1.1//EN" "http://www.w3.org/Graphics/SVG/1.1/DTD/svg11.dtd">
<svg xmlns="http://www.w3.org/2000/svg" version="1.1" width="512px" height="512px" style="shape-rendering:geometricPrecision; text-rendering:geometricPrecision; image-rendering:optimizeQuality; fill-rule:evenodd; clip-rule:evenodd" xmlns:xlink="http://www.w3.org/1999/xlink">
<g><path style="opacity:0.996" fill="#e04b4a" d="M 499.5,224.5 C 479.726,220.016 473.392,227.35 480.5,246.5C 481.665,247.584 482.998,248.417 484.5,249C 490.423,249.868 496.089,249.368 501.5,247.5C 502.8,251.001 503.966,254.667 505,258.5C 507.789,260.776 509.956,263.443 511.5,266.5C 511.5,277.833 511.5,289.167 511.5,300.5C 507.877,305.539 503.877,310.373 499.5,315C 497.19,315.497 494.857,315.663 492.5,315.5C 490.934,286.092 475.601,268.592 446.5,263C 420.454,261.72 401.954,272.887 391,296.5C 389.69,300.07 388.857,303.737 388.5,307.5C 387.167,309.833 387.167,312.167 388.5,314.5C 388.123,316.258 387.456,317.925 386.5,319.5C 301.836,320.5 217.169,320.833 132.5,320.5C 132.817,316.298 132.483,312.298 131.5,308.5C 126.663,282.83 111.33,267.663 85.5,263C 59.4543,261.72 40.9543,272.887 30,296.5C 26.421,306.605 25.5877,316.938 27.5,327.5C 19.382,326.387 11.7153,323.887 4.5,320C 2.95118,318.786 1.78451,317.286 1,315.5C 0.825502,310.649 0.325502,305.982 -0.5,301.5C -0.5,291.833 -0.5,282.167 -0.5,272.5C 0.907934,261.187 5.90793,251.687 14.5,244C 46.8774,231.572 80.2107,222.572 114.5,217C 124.571,213.976 134.238,209.976 143.5,205C 169.307,184.761 197.973,169.761 229.5,160C 237.11,158.343 244.777,157.009 252.5,156C 294.461,151.69 336.461,151.023 378.5,154C 423.632,157.319 461.466,175.485 492,208.5C 495.851,213.202 498.351,218.535 499.5,224.5 Z"/></g>
<g><path style="opacity:1" fill="#3f4347" d="M 276.5,166.5 C 279.833,166.5 283.167,166.5 286.5,166.5C 283.133,184.091 279.466,201.591 275.5,219C 260.156,220.101 244.822,221.268 229.5,222.5C 240.609,204.218 251.942,186.051 263.5,168C 268.019,167.825 272.353,167.325 276.5,166.5 Z"/></g>
<g><path style="opacity:1" fill="#414347" d="M 349.5,166.5 C 345.894,166.211 342.394,166.544 339,167.5C 329.333,183.167 319.667,198.833 310,214.5C 308.698,215.085 307.531,215.751 306.5,216.5C 305.167,216.5 303.833,216.5 302.5,216.5C 303.313,199.453 304.646,182.453 306.5,165.5C 321.01,165.171 335.343,165.504 349.5,166.5 Z"/></g>
<g><path style="opacity:1" fill="#595e62" d="M 349.5,166.5 C 354.363,166.181 359.03,166.514 363.5,167.5C 354.564,183.097 345.23,198.43 335.5,213.5C 326.023,214.948 316.356,215.948 306.5,216.5C 307.531,215.751 308.698,215.085 310,214.5C 319.667,198.833 329.333,183.167 339,167.5C 342.394,166.544 345.894,166.211 349.5,166.5 Z"/></g>
<g><path style="opacity:1" fill="#5b5d61" d="M 276.5,166.5 C 272.353,167.325 268.019,167.825 263.5,168C 251.942,186.051 240.609,204.218 229.5,222.5C 225.366,223.485 221.032,223.818 216.5,223.5C 226.893,205.723 237.559,188.056 248.5,170.5C 248.043,169.702 247.376,169.369 246.5,169.5C 256.215,167.096 266.215,166.096 276.5,166.5 Z"/></g>
<g><path style="opacity:1" fill="#3e4347" d="M 363.5,167.5 C 365.833,167.5 368.167,167.5 370.5,167.5C 371.303,168.423 371.47,169.423 371,170.5C 361.942,184.718 353.108,199.052 344.5,213.5C 341.5,213.5 338.5,213.5 335.5,213.5C 345.23,198.43 354.564,183.097 363.5,167.5 Z"/></g>
<g><path style="opacity:1" fill="#595e62" d="M 370.5,167.5 C 375.353,167.813 380.02,168.479 384.5,169.5C 375.833,183.5 367.167,197.5 358.5,211.5C 354.02,212.521 349.353,213.187 344.5,213.5C 353.108,199.052 361.942,184.718 371,170.5C 371.47,169.423 371.303,168.423 370.5,167.5 Z"/></g>
<g><path style="opacity:1" fill="#3f4347" d="M 246.5,169.5 C 247.376,169.369 248.043,169.702 248.5,170.5C 237.559,188.056 226.893,205.723 216.5,223.5C 213.098,223.342 209.764,223.676 206.5,224.5C 216.989,207.528 227.489,190.528 238,173.5C 238.692,172.563 238.525,171.897 237.5,171.5C 240.273,170.343 243.273,169.676 246.5,169.5 Z"/></g>
<g><path style="opacity:1" fill="#3f4347" d="M 384.5,169.5 C 402.996,171.331 416.829,180.331 426,196.5C 426.062,200.148 425.895,203.815 425.5,207.5C 403.167,208.833 380.833,210.167 358.5,211.5C 367.167,197.5 375.833,183.5 384.5,169.5 Z"/></g>
<g><path style="opacity:1" fill="#5a5e62" d="M 237.5,171.5 C 238.525,171.897 238.692,172.563 238,173.5C 227.489,190.528 216.989,207.528 206.5,224.5C 197.854,225.356 189.187,226.022 180.5,226.5C 189.073,213.028 197.407,199.361 205.5,185.5C 205.376,184.893 205.043,184.56 204.5,184.5C 214.882,178.813 225.882,174.479 237.5,171.5 Z"/></g>
<g><path style="opacity:1" fill="#3f4347" d="M 204.5,184.5 C 205.043,184.56 205.376,184.893 205.5,185.5C 197.407,199.361 189.073,213.028 180.5,226.5C 170.83,227.334 161.163,227.834 151.5,228C 155.592,218.901 161.592,211.234 169.5,205C 180.565,197.135 192.231,190.301 204.5,184.5 Z"/></g>
<g><path style="opacity:1" fill="#fed33b" d="M 499.5,224.5 C 500.302,225.952 500.802,227.618 501,229.5C 501.499,235.491 501.666,241.491 501.5,247.5C 496.089,249.368 490.423,249.868 484.5,249C 482.998,248.417 481.665,247.584 480.5,246.5C 473.392,227.35 479.726,220.016 499.5,224.5 Z"/></g>
<g><path style="opacity:1" fill="#fed53b" d="M 38.5,242.5 C 44.0606,241.802 49.2273,242.802 54,245.5C 56.2289,250.242 55.0622,254.075 50.5,257C 37.6867,264.83 23.8533,267.663 9,265.5C 8.68475,264.092 9.01809,262.759 10,261.5C 17.9993,252.762 27.4993,246.428 38.5,242.5 Z"/></g>
<g><path style="opacity:1" fill="#323235" d="M 131.5,308.5 C 132.08,312.649 131.414,316.316 129.5,319.5C 127.035,319.233 124.701,318.566 122.5,317.5C 121.849,294.014 110.182,279.181 87.5,273C 61.8805,270.957 45.0472,282.124 37,306.5C 36.5009,313.514 36.6676,320.514 37.5,327.5C 34.1667,327.5 30.8333,327.5 27.5,327.5C 25.5877,316.938 26.421,306.605 30,296.5C 40.9543,272.887 59.4543,261.72 85.5,263C 111.33,267.663 126.663,282.83 131.5,308.5 Z"/></g>
<g><path style="opacity:1" fill="#313235" d="M 492.5,315.5 C 489.5,315.5 486.5,315.5 483.5,315.5C 482.472,296.284 473.139,282.784 455.5,275C 430.026,268.489 411.526,276.989 400,300.5C 398.292,305.499 397.126,310.499 396.5,315.5C 393.933,315.279 391.599,314.612 389.5,313.5C 388.659,311.621 388.325,309.621 388.5,307.5C 388.857,303.737 389.69,300.07 391,296.5C 401.954,272.887 420.454,261.72 446.5,263C 475.601,268.592 490.934,286.092 492.5,315.5 Z"/></g>
<g><path style="opacity:0.991" fill="#3e4347" d="M 122.5,317.5 C 121.261,336.796 111.595,349.963 93.5,357C 66.2626,363.216 47.5959,353.383 37.5,327.5C 36.6676,320.514 36.5009,313.514 37,306.5C 45.0472,282.124 61.8805,270.957 87.5,273C 110.182,279.181 121.849,294.014 122.5,317.5 Z"/></g>
<g><path style="opacity:0.99" fill="#3e4347" d="M 483.5,315.5 C 481.343,341.991 467.009,356.658 440.5,359.5C 420.173,358.425 406.34,348.425 399,329.5C 397.842,324.882 397.008,320.216 396.5,315.5C 397.126,310.499 398.292,305.499 400,300.5C 411.526,276.989 430.026,268.489 455.5,275C 473.139,282.784 482.472,296.284 483.5,315.5 Z"/></g>
<g><path style="opacity:1" fill="#c4ced8" d="M 73.5,286.5 C 98.7636,286.922 109.93,299.589 107,324.5C 100.6,339.119 89.4332,345.619 73.5,344C 56.8362,338.511 49.3362,327.011 51,309.5C 54.684,297.984 62.184,290.317 73.5,286.5 Z"/></g>
<g><path style="opacity:1" fill="#c4ced8" d="M 434.5,286.5 C 457.497,286.331 468.997,297.665 469,320.5C 463.74,337.418 452.24,345.251 434.5,344C 417.821,338.474 410.321,326.974 412,309.5C 415.684,297.984 423.184,290.317 434.5,286.5 Z"/></g>
<g><path style="opacity:1" fill="#94989b" d="M 72.5,292.5 C 93.3491,290.52 103.182,299.853 102,320.5C 100.007,329.662 94.5067,335.495 85.5,338C 64.1948,339.694 54.6948,329.86 57,308.5C 59.685,300.65 64.8517,295.316 72.5,292.5 Z"/></g>
<g><path style="opacity:1" fill="#94989b" d="M 433.5,292.5 C 454.349,290.52 464.182,299.853 463,320.5C 458.46,334.865 448.626,340.699 433.5,338C 420.241,332.628 415.074,322.794 418,308.5C 420.685,300.65 425.852,295.316 433.5,292.5 Z"/></g>
<g><path style="opacity:1" fill="#cad4de" d="M 74.5,298.5 C 88.6948,297.867 95.8615,304.533 96,318.5C 91.5637,331.421 83.0637,335.254 70.5,330C 58.753,317.809 60.0863,307.309 74.5,298.5 Z"/></g>
<g><path style="opacity:1" fill="#cad4de" d="M 435.5,298.5 C 449.695,297.867 456.861,304.533 457,318.5C 452.564,331.421 444.064,335.254 431.5,330C 419.753,317.809 421.086,307.309 435.5,298.5 Z"/></g>
<g><path style="opacity:1" fill="#753c3d" d="M 388.5,307.5 C 388.325,309.621 388.659,311.621 389.5,313.5C 388.833,313.5 388.5,313.833 388.5,314.5C 387.167,312.167 387.167,309.833 388.5,307.5 Z"/></g>
<g><path style="opacity:1" fill="#843e3f" d="M 131.5,308.5 C 132.483,312.298 132.817,316.298 132.5,320.5C 131.209,320.737 130.209,320.404 129.5,319.5C 131.414,316.316 132.08,312.649 131.5,308.5 Z"/></g>
</svg>
