<?xml version="1.0" encoding="utf-8"?>
<!DOCTYPE svg PUBLIC "-//W3C//DTD SVG 1.0//EN" "http://www.w3.org/TR/2001/REC-SVG-20010904/DTD/svg10.dtd">
<svg version="1.0" xmlns="http://www.w3.org/2000/svg" width="512px" height="512px" viewBox="0 0 512 512" preserveAspectRatio="xMidYMid meet">
 <g fill="#3c4b52">
  <path d="M400.6 479.8 c-16.7 -2.2 -31.9 -15.9 -36.5 -33 -1.9 -6.7 -1 -20 1.8 -27.1 4.3 -10.9 14 -20.5 24.9 -24.8 7 -2.8 20.3 -3.7 27 -1.8 7.9 2.1 14.3 5.9 20.4 12 17.1 17 17.4 43.7 0.8 61.3 -10.1 10.7 -23.6 15.4 -38.4 13.4z"/>
  <path d="M147.5 390 c-8.3 -1.1 -13 -2.8 -19.3 -7 -15.4 -10.3 -22.9 -28.3 -19.1 -46.2 3.5 -16.3 16.9 -30.1 32.8 -33.7 2.4 -0.5 4.4 -1.1 4.6 -1.3 0.2 -0.2 -11.6 -54.4 -26.3 -120.5 l-26.7 -120.2 -41 -0.3 c-37.2 -0.3 -41.3 -0.5 -44.3 -2.1 -9.6 -5.3 -9.6 -20.1 0 -25.4 3 -1.7 7 -1.8 51.8 -1.8 47 0 48.6 0.1 52 2 1.9 1.2 4.2 3.4 5.2 5 0.9 1.7 4.1 14 7.1 27.5 l5.3 24.5 186 0.5 c138.2 0.4 186.4 0.8 187.9 1.7 3.7 2.1 6.7 6.1 7.6 10.2 0.8 3.7 -1.8 13.6 -30 112.3 l-30.9 108.3 -3.6 3.1 c-2 1.7 -5.3 3.4 -7.4 3.8 -2 0.3 -68.5 0.6 -147.8 0.6 l-144.1 0 -3.4 2.3 c-4.8 3.2 -7.1 8.1 -6.6 14 0.5 5.5 2.9 9.3 7.8 12.2 3.4 2 5.2 2 150.9 2 145.7 0 147.5 0 150.9 2 9.8 5.8 9.3 20.1 -0.9 25.3 l-4.4 2.2 -144.6 -0.1 c-79.5 -0.1 -146.7 -0.5 -149.5 -0.9z"/>
 </g>
 <g fill="#485b61">
  <path d="M188.6 479.8 c-16.5 -2.2 -31.1 -15 -36.1 -31.5 -1.9 -6.1 -1.9 -18.4 -0.1 -24.4 5.9 -19.2 22.7 -31.9 42.4 -31.9 13 0 22.2 3.9 31.4 13.1 29.9 29.8 4.3 80.5 -37.6 74.7z"/>
  <path d="M400.6 479.8 c-16.7 -2.2 -31.9 -15.9 -36.5 -33 -1.9 -6.7 -1 -20 1.8 -27.1 4.3 -10.9 14 -20.5 24.9 -24.8 7 -2.8 20.3 -3.7 27 -1.8 7.9 2.1 14.3 5.9 20.4 12 17.1 17 17.4 43.7 0.8 61.3 -10.1 10.7 -23.6 15.4 -38.4 13.4z m7.4 -29.8 c0 -0.5 0.9 -1 1.9 -1 2.2 0 10.3 -6.4 9.4 -7.4 -0.4 -0.3 -0.2 -0.6 0.4 -0.6 0.6 0 0.9 -0.9 0.6 -2 -0.3 -1.1 0 -2 0.6 -2 0.6 0 1.1 -0.9 1.1 -2 0 -1.1 -0.5 -2 -1.1 -2 -0.6 0 -0.9 -0.9 -0.6 -2 0.3 -1.1 0 -2 -0.6 -2 -0.6 0 -0.7 -0.3 -0.4 -0.6 0.4 -0.4 -1.3 -2.2 -3.6 -4 -4.9 -3.9 -10.1 -4.5 -15.6 -1.6 -4.8 2.4 -7.3 6.2 -7.8 11.9 -0.4 3.9 0 5.5 1.9 8.3 1.3 1.9 3.7 4.1 5.3 4.9 1.7 0.8 3.7 1.8 4.5 2.2 2.1 1.1 4 1.1 4 -0.1z"/>
  <path d="M147.5 390 c-8.3 -1.1 -13 -2.8 -19.3 -7 -15.4 -10.3 -22.9 -28.3 -19.1 -46.2 3.5 -16.3 16.9 -30.1 32.8 -33.7 2.4 -0.5 4.4 -1.1 4.6 -1.3 0.2 -0.2 -11.6 -54.4 -26.3 -120.5 l-26.7 -120.2 -41 -0.3 c-37.2 -0.3 -41.3 -0.5 -44.3 -2.1 -9.6 -5.3 -9.6 -20.1 0 -25.4 3 -1.7 7 -1.8 51.8 -1.8 47 0 48.6 0.1 52 2 1.9 1.2 4.2 3.4 5.2 5 0.9 1.7 4.1 14 7.1 27.5 l5.3 24.5 186 0.5 c138.2 0.4 186.4 0.8 187.9 1.7 3.7 2.1 6.7 6.1 7.6 10.2 0.8 3.7 -1.8 13.6 -30 112.3 l-30.9 108.3 -3.6 3.1 c-2 1.7 -5.3 3.4 -7.4 3.8 -2 0.3 -68.5 0.6 -147.8 0.6 l-144.1 0 -3.4 2.3 c-4.8 3.2 -7.1 8.1 -6.6 14 0.5 5.5 2.9 9.3 7.8 12.2 3.3 1.9 5.5 2 77.7 2.3 l74.2 0.3 0 14.4 0 14.5 -72.2 -0.1 c-39.8 -0.1 -74.5 -0.5 -77.3 -0.9z"/>
 </g>
 <g fill="#948538">
 </g>
 <g fill="#61747e">
  <path d="M188.6 479.8 c-16.5 -2.2 -31.1 -15 -36.1 -31.5 -1.9 -6.1 -1.9 -18.4 -0.1 -24.4 5.9 -19.2 22.7 -31.9 42.4 -31.9 13 0 22.2 3.9 31.4 13.1 29.9 29.8 4.3 80.5 -37.6 74.7z m8.4 -29.8 c0 -0.5 0.6 -1 1.4 -1 1.8 0 9.7 -6.6 8.9 -7.4 -0.4 -0.3 -0.1 -0.6 0.5 -0.6 0.6 0 0.9 -0.7 0.6 -1.5 -0.4 -0.8 -0.1 -1.5 0.5 -1.5 0.6 0 1.1 -1.3 1.1 -3 0 -1.6 -0.5 -3 -1.1 -3 -0.6 0 -0.9 -0.7 -0.5 -1.5 0.3 -0.8 0 -1.5 -0.6 -1.5 -0.6 0 -0.9 -0.3 -0.5 -0.6 0.3 -0.3 -1 -2 -2.9 -3.6 -6.5 -5.7 -16.7 -4.5 -21.8 2.5 -2.9 3.9 -2.9 12.5 0 16.4 3.5 4.7 14.4 9.5 14.4 6.3z"/>
  <path d="M400.6 479.8 c-16.7 -2.2 -31.9 -15.9 -36.5 -33 -1.9 -6.7 -1 -20 1.8 -27.1 4.3 -10.9 14 -20.5 24.9 -24.8 7 -2.8 20.3 -3.7 27 -1.8 7.9 2.1 14.3 5.9 20.4 12 17.1 17 17.4 43.7 0.8 61.3 -10.1 10.7 -23.6 15.4 -38.4 13.4z m14.2 -31.5 c4.2 -3.1 6.4 -6.8 6.9 -11.6 1.3 -10.9 -11.1 -20.6 -20.7 -16.4 -4.3 1.9 -9.1 6.9 -8.4 8.9 0.3 1.2 0 1.8 -1 1.8 -1.9 0 -2.1 2.6 -0.3 3.4 1 0.5 1 0.7 0 1.2 -1.8 0.8 -1.6 3.3 0.2 4 0.8 0.4 1.2 1 0.9 1.5 -0.8 1.4 2.1 5 6.3 7.5 4.7 2.8 12.1 2.7 16.1 -0.3z"/>
 </g>
 <g fill="#fea001">
  <path d="M152.6 329.3 c-0.3 -1 -1.7 -7.6 -3.2 -14.8 -3.3 -16 -48.3 -219.3 -49 -221.7 -0.5 -1.7 9.4 -1.8 197.8 -1.8 115.1 0 199.9 0.4 202.2 1 5.1 1.1 9.5 5.6 10.7 10.8 0.8 3.8 -1.6 13 -30 112.4 l-30.9 108.3 -3.6 3.1 c-2 1.7 -5.3 3.4 -7.4 3.8 -2 0.3 -67.2 0.6 -144.9 0.6 -133.6 0 -141.2 -0.1 -141.7 -1.7z"/>
 </g>
 <g fill="#fdbf00">
  <path d="M152.6 329.3 c-0.3 -1 -1.7 -7.6 -3.2 -14.8 -3.3 -16 -48.3 -219.3 -49 -221.7 -0.5 -1.7 4.6 -1.8 98 -1.8 l98.6 0 0 120 0 120 -71.9 0 c-67.7 0 -72 -0.1 -72.5 -1.7z"/>
 </g>
</svg>