<?xml version="1.0" encoding="UTF-8"?>
<!DOCTYPE svg PUBLIC "-//W3C//DTD SVG 1.1//EN" "http://www.w3.org/Graphics/SVG/1.1/DTD/svg11.dtd">
<svg xmlns="http://www.w3.org/2000/svg" version="1.1" width="512px" height="512px" style="shape-rendering:geometricPrecision; text-rendering:geometricPrecision; image-rendering:optimizeQuality; fill-rule:evenodd; clip-rule:evenodd" xmlns:xlink="http://www.w3.org/1999/xlink">
<g><path style="opacity:0.955" fill="#fec74f" d="M 511.5,429.5 C 511.5,433.5 511.5,437.5 511.5,441.5C 509.997,444.489 507.997,447.156 505.5,449.5C 503.537,448.04 501.704,446.373 500,444.5C 481.848,378.227 463.848,311.893 446,245.5C 439.83,233.666 430.33,225.833 417.5,222C 414.238,219.408 411.738,216.241 410,212.5C 406.457,199.639 402.623,186.973 398.5,174.5C 399.209,173.596 400.209,173.263 401.5,173.5C 393.397,141.254 385.064,109.087 376.5,77C 378.806,70.5659 383.14,68.5659 389.5,71C 391.049,72.214 392.215,73.714 393,75.5C 401.479,106.434 409.646,137.434 417.5,168.5C 419.854,168.162 422.187,167.662 424.5,167C 425.022,166.439 425.355,165.772 425.5,165C 416.296,133.349 408.129,101.515 401,69.5C 403.477,63.5497 407.643,62.0497 413.5,65C 415.049,66.214 416.215,67.714 417,69.5C 425.039,100.659 433.539,131.659 442.5,162.5C 444.925,161.692 447.258,160.692 449.5,159.5C 440.855,128.253 432.522,96.9196 424.5,65.5C 425.511,58.3343 429.511,55.8343 436.5,58C 438,58.8333 439.167,60 440,61.5C 451.911,104.565 463.411,147.732 474.5,191C 473.64,199.217 470.474,206.383 465,212.5C 460.767,220.333 459.1,228.666 460,237.5C 476.569,301.786 493.736,365.786 511.5,429.5 Z"/></g>
<g><path style="opacity:1" fill="#f9b429" d="M 116.5,75.5 C 104.223,80.2649 94.0566,87.9316 86,98.5C 71.1352,118.76 64.1352,141.426 65,166.5C 67.9952,177.16 70.9952,187.827 74,198.5C 75.3841,207.464 75.7174,216.464 75,225.5C 57.6038,293.636 39.6038,361.636 21,429.5C 18.7713,437.958 20.938,444.958 27.5,450.5C 15.1344,456.711 5.80107,453.711 -0.5,441.5C -0.5,437.5 -0.5,433.5 -0.5,429.5C 18.0881,362.822 35.9214,295.822 53,228.5C 53.4341,223.826 53.9341,219.159 54.5,214.5C 53.3616,198.947 49.8616,183.947 44,169.5C 42.4475,135.113 54.2809,106.28 79.5,83C 89.271,75.5212 100.271,72.5212 112.5,74C 114.058,74.21 115.391,74.71 116.5,75.5 Z"/></g>
<g><path style="opacity:0.985" fill="#fec74f" d="M 116.5,75.5 C 123.613,78.1133 129.446,82.4466 134,88.5C 144.884,109.843 147.717,132.176 142.5,155.5C 140,166.836 135.833,177.503 130,187.5C 122.023,195.809 113.69,203.809 105,211.5C 99.8655,217.438 96.0322,224.104 93.5,231.5C 92.8333,231.5 92.5,231.833 92.5,232.5C 92.5,232.833 92.5,233.167 92.5,233.5C 88.8078,240.732 85.9744,248.399 84,256.5C 67.4702,320.084 50.1369,383.418 32,446.5C 30.6288,448.041 29.1288,449.375 27.5,450.5C 20.938,444.958 18.7713,437.958 21,429.5C 39.6038,361.636 57.6038,293.636 75,225.5C 75.7174,216.464 75.3841,207.464 74,198.5C 70.9952,187.827 67.9952,177.16 65,166.5C 64.1352,141.426 71.1352,118.76 86,98.5C 94.0566,87.9316 104.223,80.2649 116.5,75.5 Z"/></g>
<g><path style="opacity:0.984" fill="#f9b429" d="M 398.5,174.5 C 402.623,186.973 406.457,199.639 410,212.5C 411.738,216.241 414.238,219.408 417.5,222C 430.33,225.833 439.83,233.666 446,245.5C 463.848,311.893 481.848,378.227 500,444.5C 501.704,446.373 503.537,448.04 505.5,449.5C 498.625,454.228 491.292,454.728 483.5,451C 480.567,448.736 478.4,445.902 477,442.5C 459.511,378.21 442.178,313.877 425,249.5C 422.559,242.238 418.392,236.238 412.5,231.5C 411.426,230.115 410.093,228.949 408.5,228C 398.499,224.99 391.332,218.823 387,209.5C 383.252,195.431 379.419,181.431 375.5,167.5C 375.5,166.833 375.167,166.5 374.5,166.5C 367.582,139.327 360.582,112.16 353.5,85C 354.269,77.5716 358.269,74.905 365.5,77C 367.81,78.6374 369.31,80.804 370,83.5C 378,113.5 386,143.5 394,173.5C 395.356,174.38 396.856,174.714 398.5,174.5 Z"/></g>
<g><path style="opacity:0.999" fill="#d8dce5" d="M 259.5,115.5 C 194.49,123.589 147.99,157.256 120,216.5C 100.089,268.334 103.422,318.668 130,367.5C 160.92,416.557 205.42,443.557 263.5,448.5C 202.907,451.12 154.074,428.453 117,380.5C 86.5627,335.283 78.3961,286.283 92.5,233.5C 92.5,233.167 92.5,232.833 92.5,232.5C 93.1667,232.5 93.5,232.167 93.5,231.5C 96.0322,224.104 99.8655,217.438 105,211.5C 113.69,203.809 122.023,195.809 130,187.5C 135.833,177.503 140,166.836 142.5,155.5C 176.35,127.438 215.35,114.105 259.5,115.5 Z"/></g>
<g><path style="opacity:0.994" fill="#e3e9f7" d="M 259.5,115.5 C 304.609,117.561 342.943,134.561 374.5,166.5C 375.167,166.5 375.5,166.833 375.5,167.5C 379.419,181.431 383.252,195.431 387,209.5C 391.332,218.823 398.499,224.99 408.5,228C 410.093,228.949 411.426,230.115 412.5,231.5C 430.964,300.16 414.63,358.993 363.5,408C 334.86,432.811 301.527,446.311 263.5,448.5C 205.42,443.557 160.92,416.557 130,367.5C 103.422,318.668 100.089,268.334 120,216.5C 147.99,157.256 194.49,123.589 259.5,115.5 Z"/></g>
<g><path style="opacity:1" fill="#c3c8d1" d="M 260.5,172.5 C 210.739,181.494 179.239,210.494 166,259.5C 158.229,312.784 177.396,352.95 223.5,380C 235.428,385.59 247.761,389.423 260.5,391.5C 210.288,392.321 174.121,370.321 152,325.5C 134.177,275.59 144.677,232.757 183.5,197C 206.043,179.32 231.709,171.154 260.5,172.5 Z"/></g>
<g><path style="opacity:1" fill="#d7dbe4" d="M 260.5,172.5 C 314.293,179.791 347.793,209.791 361,262.5C 367.023,308.597 351.523,345.43 314.5,373C 298.079,383.641 280.079,389.807 260.5,391.5C 247.761,389.423 235.428,385.59 223.5,380C 177.396,352.95 158.229,312.784 166,259.5C 179.239,210.494 210.739,181.494 260.5,172.5 Z"/></g>
</svg>
