<?xml version="1.0" encoding="UTF-8"?>
<!DOCTYPE svg PUBLIC "-//W3C//DTD SVG 1.1//EN" "http://www.w3.org/Graphics/SVG/1.1/DTD/svg11.dtd">
<svg xmlns="http://www.w3.org/2000/svg" version="1.1" width="512px" height="512px" style="shape-rendering:geometricPrecision; text-rendering:geometricPrecision; image-rendering:optimizeQuality; fill-rule:evenodd; clip-rule:evenodd" xmlns:xlink="http://www.w3.org/1999/xlink">
<g><path style="opacity:1" fill="#d23c69" d="M 343.5,-0.5 C 347.5,-0.5 351.5,-0.5 355.5,-0.5C 365.775,8.43842 375.775,17.7718 385.5,27.5C 413.5,56.1667 441.833,84.5 470.5,112.5C 474.5,117.167 478.833,121.5 483.5,125.5C 493.228,135.225 502.562,145.225 511.5,155.5C 511.5,159.5 511.5,163.5 511.5,167.5C 500.095,180.408 488.095,192.908 475.5,205C 461.744,218.756 447.078,233.422 431.5,249C 425.167,252.333 418.833,252.333 412.5,249C 411.619,248.292 410.953,247.458 410.5,246.5C 424.131,232.368 437.965,218.368 452,204.5C 452.667,203.833 452.667,203.167 452,202.5C 399.583,150.583 347.749,98.25 296.5,45.5C 298.774,43.642 301.274,43.3086 304,44.5C 304.057,41.1489 304.891,38.1489 306.5,35.5C 359.132,87.632 411.632,139.965 464,192.5C 471.365,185.47 478.365,178.136 485,170.5C 487.789,164.953 488.122,159.287 486,153.5C 437.361,103.861 388.361,54.5275 339,5.5C 338.536,4.90558 338.369,4.23891 338.5,3.5C 339.984,1.92635 341.651,0.593015 343.5,-0.5 Z"/></g>
<g><path style="opacity:1" fill="#fe4f7c" d="M 338.5,3.5 C 338.369,4.23891 338.536,4.90558 339,5.5C 388.361,54.5275 437.361,103.861 486,153.5C 488.122,159.287 487.789,164.953 485,170.5C 478.365,178.136 471.365,185.47 464,192.5C 411.632,139.965 359.132,87.632 306.5,35.5C 316.833,24.5 327.5,13.8333 338.5,3.5 Z"/></g>
<g><path style="opacity:0.996" fill="#3b3b4c" d="M 446.5,39.5 C 449.77,44.4397 453.77,48.7731 458.5,52.5C 462.5,57.1667 466.833,61.5 471.5,65.5C 481.531,74.3638 490.698,84.0304 499,94.5C 500.823,100.405 500.156,106.072 497,111.5C 492.297,116.035 487.797,120.702 483.5,125.5C 478.833,121.5 474.5,117.167 470.5,112.5C 475.184,108.219 476.684,102.885 475,96.5C 474,94.5 473,92.5 472,90.5C 447.833,66.3333 423.667,42.1667 399.5,18C 398.552,17.5172 397.552,17.3505 396.5,17.5C 404.658,9.06813 413.325,8.56813 422.5,16C 430.368,24.0358 438.368,31.8691 446.5,39.5 Z"/></g>
<g><path style="opacity:1" fill="#454554" d="M 396.5,17.5 C 397.552,17.3505 398.552,17.5172 399.5,18C 423.667,42.1667 447.833,66.3333 472,90.5C 473,92.5 474,94.5 475,96.5C 476.684,102.885 475.184,108.219 470.5,112.5C 441.833,84.5 413.5,56.1667 385.5,27.5C 389.167,24.1667 392.833,20.8333 396.5,17.5 Z"/></g>
<g><path style="opacity:1" fill="#cddaf8" d="M 471.5,65.5 C 466.833,61.5 462.5,57.1667 458.5,52.5C 465.055,49.057 467.555,43.7237 466,36.5C 462.888,33.8991 460.388,30.8991 458.5,27.5C 462.523,20.8153 468.189,18.6486 475.5,21C 480.333,25.8333 485.167,30.6667 490,35.5C 492.161,39.6979 491.828,43.6979 489,47.5C 482.964,53.3686 477.13,59.3686 471.5,65.5 Z"/></g>
<g><path style="opacity:0.993" fill="#e4eaf8" d="M 458.5,27.5 C 460.388,30.8991 462.888,33.8991 466,36.5C 467.555,43.7237 465.055,49.057 458.5,52.5C 453.77,48.7731 449.77,44.4397 446.5,39.5C 450.167,35.1667 454.167,31.1667 458.5,27.5 Z"/></g>
<g><path style="opacity:0.998" fill="#fe507d" d="M 296.5,45.5 C 347.749,98.25 399.583,150.583 452,202.5C 452.667,203.167 452.667,203.833 452,204.5C 437.965,218.368 424.131,232.368 410.5,246.5C 392.167,228.5 373.833,210.5 355.5,192.5C 349.833,186.167 343.833,180.167 337.5,174.5C 331.5,167.833 325.167,161.5 318.5,155.5C 299.868,136.368 281.035,117.368 262,98.5C 258.667,92.1667 258.667,85.8333 262,79.5C 273.368,67.9646 284.868,56.6313 296.5,45.5 Z"/></g>
<g><path style="opacity:0.991" fill="#e2e9f7" d="M 318.5,155.5 C 325.167,161.5 331.5,167.833 337.5,174.5C 331.445,180.56 325.111,186.226 318.5,191.5C 312.5,185.833 306.5,180.167 300.5,174.5C 300.167,174.5 299.833,174.5 299.5,174.5C 305.5,167.833 311.833,161.5 318.5,155.5 Z"/></g>
<g><path style="opacity:1" fill="#cbd9f7" d="M 337.5,174.5 C 343.833,180.167 349.833,186.167 355.5,192.5C 349.5,199.167 343.167,205.5 336.5,211.5C 330.892,204.555 324.892,197.888 318.5,191.5C 325.111,186.226 331.445,180.56 337.5,174.5 Z"/></g>
<g><path style="opacity:1" fill="#494959" d="M 300.5,174.5 C 306.5,180.167 312.5,185.833 318.5,191.5C 324.892,197.888 330.892,204.555 336.5,211.5C 333.833,214.833 330.833,217.833 327.5,220.5C 326.448,220.649 325.448,220.483 324.5,220C 318.965,214.297 313.298,208.797 307.5,203.5C 301.833,197.5 296.167,191.5 290.5,185.5C 293.833,181.833 297.167,178.167 300.5,174.5 Z"/></g>
<g><path style="opacity:0.886" fill="#868f9a" d="M 299.5,174.5 C 299.833,174.5 300.167,174.5 300.5,174.5C 297.167,178.167 293.833,181.833 290.5,185.5C 289.833,185.5 289.5,185.167 289.5,184.5C 292.5,180.833 295.833,177.5 299.5,174.5 Z"/></g>
<g><path style="opacity:0.991" fill="#e3eaf8" d="M 289.5,184.5 C 289.5,185.167 289.833,185.5 290.5,185.5C 296.167,191.5 301.833,197.5 307.5,203.5C 273.167,238.5 238.5,273.167 203.5,307.5C 197.5,301.833 191.5,296.167 185.5,290.5C 185.5,289.833 185.167,289.5 184.5,289.5C 219.167,254.167 254.167,219.167 289.5,184.5 Z"/></g>
<g><path style="opacity:1" fill="#ccdaf8" d="M 307.5,203.5 C 313.298,208.797 318.965,214.297 324.5,220C 325.448,220.483 326.448,220.649 327.5,220.5C 291.833,256.833 255.833,292.833 219.5,328.5C 220.028,327.153 220.195,325.819 220,324.5C 214.297,318.965 208.797,313.298 203.5,307.5C 238.5,273.167 273.167,238.5 307.5,203.5 Z"/></g>
<g><path style="opacity:1" fill="#d23c69" d="M 155.5,318.5 C 161.5,325.167 167.833,331.5 174.5,337.5C 180.167,343.833 186.167,349.833 192.5,355.5C 211.132,374.632 229.965,393.632 249,412.5C 252.333,418.833 252.333,425.167 249,431.5C 233.527,446.973 218.861,461.639 205,475.5C 192.908,488.095 180.408,500.095 167.5,511.5C 163.5,511.5 159.5,511.5 155.5,511.5C 153.131,510.31 151.131,508.643 149.5,506.5C 163.938,492.562 178.272,478.396 192.5,464C 139.965,411.632 87.632,359.132 35.5,306.5C 38.1489,304.891 41.1489,304.057 44.5,304C 43.2155,300.691 43.8822,297.857 46.5,295.5C 98.2986,347.799 150.299,399.965 202.5,452C 203.167,452.667 203.833,452.667 204.5,452C 213.116,444.39 220.616,435.89 227,426.5C 228.174,421.06 227.174,416.06 224,411.5C 174.965,362.632 126.132,313.632 77.5,264.5C 81.8309,259.944 87.1642,258.444 93.5,260C 95.2464,260.471 96.913,261.138 98.5,262C 117.368,281.035 136.368,299.868 155.5,318.5 Z"/></g>
<g><path style="opacity:1" fill="#fe4f7c" d="M 77.5,264.5 C 126.132,313.632 174.965,362.632 224,411.5C 227.174,416.06 228.174,421.06 227,426.5C 220.616,435.89 213.116,444.39 204.5,452C 203.833,452.667 203.167,452.667 202.5,452C 150.299,399.965 98.2986,347.799 46.5,295.5C 56.5,284.833 66.8333,274.5 77.5,264.5 Z"/></g>
<g><path style="opacity:1" fill="#494958" d="M 185.5,290.5 C 191.5,296.167 197.5,301.833 203.5,307.5C 208.797,313.298 214.297,318.965 220,324.5C 220.195,325.819 220.028,327.153 219.5,328.5C 217.167,331.5 214.5,334.167 211.5,336.5C 204.555,330.892 197.888,324.892 191.5,318.5C 185.833,312.5 180.167,306.5 174.5,300.5C 178.167,297.167 181.833,293.833 185.5,290.5 Z"/></g>
<g><path style="opacity:0.89" fill="#838d97" d="M 184.5,289.5 C 185.167,289.5 185.5,289.833 185.5,290.5C 181.833,293.833 178.167,297.167 174.5,300.5C 174.5,300.167 174.5,299.833 174.5,299.5C 177.5,295.833 180.833,292.5 184.5,289.5 Z"/></g>
<g><path style="opacity:0.991" fill="#e2e9f7" d="M 174.5,299.5 C 174.5,299.833 174.5,300.167 174.5,300.5C 180.167,306.5 185.833,312.5 191.5,318.5C 186.226,325.111 180.56,331.445 174.5,337.5C 167.833,331.5 161.5,325.167 155.5,318.5C 161.5,311.833 167.833,305.5 174.5,299.5 Z"/></g>
<g><path style="opacity:0.997" fill="#fe4f7c" d="M 35.5,306.5 C 87.632,359.132 139.965,411.632 192.5,464C 178.272,478.396 163.938,492.562 149.5,506.5C 141.5,498.833 133.5,491.167 125.5,483.5C 122.23,478.56 118.23,474.227 113.5,470.5C 85.4503,441.45 56.7836,413.116 27.5,385.5C 17.7718,375.775 8.43842,365.775 -0.5,355.5C -0.5,351.5 -0.5,347.5 -0.5,343.5C 10.7739,330.558 22.7739,318.225 35.5,306.5 Z"/></g>
<g><path style="opacity:1" fill="#cbd9f7" d="M 191.5,318.5 C 197.888,324.892 204.555,330.892 211.5,336.5C 205.5,343.167 199.167,349.5 192.5,355.5C 186.167,349.833 180.167,343.833 174.5,337.5C 180.56,331.445 186.226,325.111 191.5,318.5 Z"/></g>
<g><path style="opacity:0.99" fill="#474554" d="M 27.5,385.5 C 56.7836,413.116 85.4503,441.45 113.5,470.5C 108.369,475.13 103.369,479.963 98.5,485C 91.7839,488.275 85.1173,488.108 78.5,484.5C 73.8333,480.5 69.5,476.167 65.5,471.5C 61.5,466.833 57.1667,462.5 52.5,458.5C 48.7731,453.77 44.4397,449.77 39.5,446.5C 31.8691,438.368 24.0358,430.368 16,422.5C 9.94876,415.297 9.28209,407.631 14,399.5C 18.7033,394.965 23.2033,390.298 27.5,385.5 Z"/></g>
<g><path style="opacity:0.976" fill="#e4eaf8" d="M 39.5,446.5 C 44.4397,449.77 48.7731,453.77 52.5,458.5C 46.7028,464.798 40.7028,470.965 34.5,477C 31.4213,477.973 28.4213,478.806 25.5,479.5C 19.2946,475.309 18.1279,469.976 22,463.5C 27.7019,457.63 33.5353,451.964 39.5,446.5 Z"/></g>
<g><path style="opacity:1" fill="#cddaf8" d="M 52.5,458.5 C 57.1667,462.5 61.5,466.833 65.5,471.5C 59.3686,477.13 53.3686,482.964 47.5,489C 43.6979,491.828 39.6979,492.161 35.5,490C 31.9626,486.631 28.6293,483.131 25.5,479.5C 28.4213,478.806 31.4213,477.973 34.5,477C 40.7028,470.965 46.7028,464.798 52.5,458.5 Z"/></g>
<g><path style="opacity:0.99" fill="#3d3b4c" d="M 113.5,470.5 C 118.23,474.227 122.23,478.56 125.5,483.5C 120.702,487.797 116.035,492.297 111.5,497C 105.296,500.859 98.9627,501.193 92.5,498C 87.3306,493.997 82.6639,489.497 78.5,484.5C 85.1173,488.108 91.7839,488.275 98.5,485C 103.369,479.963 108.369,475.13 113.5,470.5 Z"/></g>
</svg>
