<?xml version="1.0" encoding="UTF-8"?>
<!DOCTYPE svg PUBLIC "-//W3C//DTD SVG 1.1//EN" "http://www.w3.org/Graphics/SVG/1.1/DTD/svg11.dtd">
<svg xmlns="http://www.w3.org/2000/svg" version="1.1" width="512px" height="512px" style="shape-rendering:geometricPrecision; text-rendering:geometricPrecision; image-rendering:optimizeQuality; fill-rule:evenodd; clip-rule:evenodd" xmlns:xlink="http://www.w3.org/1999/xlink">
<g><path style="opacity:1" fill="#3f3b39" d="M 127.5,-0.5 C 134.833,-0.5 142.167,-0.5 149.5,-0.5C 102.073,8.09249 73.5731,36.0925 64,83.5C 63.5002,93.1609 63.3335,102.828 63.5,112.5C 55.6931,112.406 49.0265,115.073 43.5,120.5C 41.7999,98.9655 44.2999,77.9655 51,57.5C 61.6236,32.877 79.4569,15.7104 104.5,6C 112.163,3.33838 119.829,1.17171 127.5,-0.5 Z"/></g>
<g><path style="opacity:0.993" fill="#4c4846" d="M 149.5,-0.5 C 151.167,-0.5 152.833,-0.5 154.5,-0.5C 188.798,5.29816 213.965,23.6315 230,54.5C 235.193,65.9401 238.193,77.9401 239,90.5C 239.5,100.494 239.666,110.494 239.5,120.5C 233.917,115.302 227.25,112.635 219.5,112.5C 209.825,107.964 203.992,100.298 202,89.5C 202.988,81.9744 200.154,76.4744 193.5,73C 183.818,73.517 174.152,74.517 164.5,76C 146.482,76.7495 128.482,76.5829 110.5,75.5C 105.026,74.1974 99.3595,73.1974 93.5,72.5C 83.4844,74.1493 78.9844,80.1493 80,90.5C 78.1156,100.625 72.6156,107.958 63.5,112.5C 63.3335,102.828 63.5002,93.1609 64,83.5C 73.5731,36.0925 102.073,8.09249 149.5,-0.5 Z"/></g>
<g><path style="opacity:0.998" fill="#72655a" d="M 357.5,-0.5 C 366.833,-0.5 376.167,-0.5 385.5,-0.5C 371.303,1.96104 358.303,7.46104 346.5,16C 341.751,20.0779 337.751,24.7446 334.5,30C 316.904,34.9263 305.07,46.093 299,63.5C 293.778,79.3963 291.278,95.7297 291.5,112.5C 291.333,131.17 291.5,149.836 292,168.5C 296.042,198.283 311.542,219.616 338.5,232.5C 338.819,237.363 338.486,242.03 337.5,246.5C 318.497,246.667 299.497,246.5 280.5,246C 277.829,244.75 275.663,242.917 274,240.5C 272.855,235.917 272.189,231.251 272,226.5C 268.982,183.866 266.982,141.199 266,98.5C 266.593,79.1003 272.26,61.4336 283,45.5C 289.504,37.667 297.67,32.5004 307.5,30C 319.931,12.9486 336.598,2.78188 357.5,-0.5 Z"/></g>
<g><path style="opacity:0.992" fill="#7f7369" d="M 385.5,-0.5 C 386.167,-0.5 386.833,-0.5 387.5,-0.5C 436.832,8.33477 464.999,37.6681 472,87.5C 474.959,111.455 475.293,135.455 473,159.5C 471.194,186.6 468.861,213.6 466,240.5C 464.337,242.917 462.171,244.75 459.5,246C 440.17,246.5 420.836,246.667 401.5,246.5C 400.514,242.03 400.181,237.363 400.5,232.5C 438.495,212.114 453.662,180.447 446,137.5C 445.097,136.299 443.931,135.465 442.5,135C 401.548,133.522 367.548,117.522 340.5,87C 338.167,86.3333 335.833,86.3333 333.5,87C 328.578,91.7632 323.244,95.9299 317.5,99.5C 311.62,103.073 305.287,105.573 298.5,107C 295.734,108.371 293.401,110.204 291.5,112.5C 291.278,95.7297 293.778,79.3963 299,63.5C 305.07,46.093 316.904,34.9263 334.5,30C 337.751,24.7446 341.751,20.0779 346.5,16C 358.303,7.46104 371.303,1.96104 385.5,-0.5 Z"/></g>
<g><path style="opacity:0.999" fill="#db985d" d="M 110.5,75.5 C 109.878,76.6266 109.045,77.6266 108,78.5C 107.097,88.3537 104.431,97.687 100,106.5C 95.9648,110.2 92.2981,114.2 89,118.5C 88.3333,138.5 88.3333,158.5 89,178.5C 92.9422,192.717 99.2755,205.717 108,217.5C 112.717,223.377 117.217,229.377 121.5,235.5C 118.013,235.095 114.68,234.095 111.5,232.5C 110.502,240.807 110.169,249.14 110.5,257.5C 110.167,257.5 109.833,257.5 109.5,257.5C 109.5,248.833 109.5,240.167 109.5,231.5C 77.0625,216.01 61.3959,190.01 62.5,153.5C 45.6428,152.816 37.8095,144.149 39,127.5C 40.0259,124.761 41.5259,122.428 43.5,120.5C 49.0265,115.073 55.6931,112.406 63.5,112.5C 72.6156,107.958 78.1156,100.625 80,90.5C 78.9844,80.1493 83.4844,74.1493 93.5,72.5C 99.3595,73.1974 105.026,74.1974 110.5,75.5 Z"/></g>
<g><path style="opacity:0.997" fill="#ecad6a" d="M 219.5,112.5 C 219.5,126.167 219.5,139.833 219.5,153.5C 221.071,189.718 205.738,215.718 173.5,231.5C 161.596,236.014 149.263,238.347 136.5,238.5C 131.288,237.953 126.288,236.953 121.5,235.5C 117.217,229.377 112.717,223.377 108,217.5C 99.2755,205.717 92.9422,192.717 89,178.5C 88.3333,158.5 88.3333,138.5 89,118.5C 92.2981,114.2 95.9648,110.2 100,106.5C 104.431,97.687 107.097,88.3537 108,78.5C 109.045,77.6266 109.878,76.6266 110.5,75.5C 128.482,76.5829 146.482,76.7495 164.5,76C 174.152,74.517 183.818,73.517 193.5,73C 200.154,76.4744 202.988,81.9744 202,89.5C 203.992,100.298 209.825,107.964 219.5,112.5 Z"/></g>
<g><path style="opacity:1" fill="#f6ce9b" d="M 400.5,232.5 C 394.764,234.393 388.931,236.06 383,237.5C 366.491,232.082 351.491,224.082 338,213.5C 326.516,200.74 319.849,185.74 318,168.5C 317.5,145.502 317.333,122.502 317.5,99.5C 323.244,95.9299 328.578,91.7632 333.5,87C 335.833,86.3333 338.167,86.3333 340.5,87C 367.548,117.522 401.548,133.522 442.5,135C 443.931,135.465 445.097,136.299 446,137.5C 453.662,180.447 438.495,212.114 400.5,232.5 Z"/></g>
<g><path style="opacity:1" fill="#e9b782" d="M 317.5,99.5 C 317.333,122.502 317.5,145.502 318,168.5C 319.849,185.74 326.516,200.74 338,213.5C 351.491,224.082 366.491,232.082 383,237.5C 388.931,236.06 394.764,234.393 400.5,232.5C 400.181,237.363 400.514,242.03 401.5,246.5C 401.334,251.179 401.501,255.845 402,260.5C 402.308,261.308 402.808,261.975 403.5,262.5C 410.657,264.369 417.657,266.369 424.5,268.5C 418.514,277.485 411.181,285.152 402.5,291.5C 386.466,300.728 369.466,302.895 351.5,298C 345.881,296.524 340.881,294.024 336.5,290.5C 343.616,287.4 350.95,284.567 358.5,282C 360,280.5 361.5,279 363,277.5C 364.462,264.599 364.962,251.599 364.5,238.5C 355.535,237.759 346.868,235.759 338.5,232.5C 311.542,219.616 296.042,198.283 292,168.5C 291.5,149.836 291.333,131.17 291.5,112.5C 293.401,110.204 295.734,108.371 298.5,107C 305.287,105.573 311.62,103.073 317.5,99.5 Z"/></g>
<g><path style="opacity:1" fill="#d59157" d="M 219.5,112.5 C 227.25,112.635 233.917,115.302 239.5,120.5C 247.727,134.383 244.394,144.883 229.5,152C 226.243,153.043 222.91,153.543 219.5,153.5C 219.5,139.833 219.5,126.167 219.5,112.5 Z"/></g>
<g><path style="opacity:0.983" fill="#dc9a5e" d="M 173.5,231.5 C 173.5,239.833 173.5,248.167 173.5,256.5C 163.037,265.794 152.703,275.294 142.5,285C 141.833,285.667 141.167,285.667 140.5,285C 138.76,283.483 137.094,281.983 135.5,280.5C 136.496,266.677 136.829,252.677 136.5,238.5C 149.263,238.347 161.596,236.014 173.5,231.5 Z"/></g>
<g><path style="opacity:1" fill="#d38d54" d="M 121.5,235.5 C 126.288,236.953 131.288,237.953 136.5,238.5C 136.829,252.677 136.496,266.677 135.5,280.5C 127.467,272.465 119.133,264.798 110.5,257.5C 110.169,249.14 110.502,240.807 111.5,232.5C 114.68,234.095 118.013,235.095 121.5,235.5 Z"/></g>
<g><path style="opacity:1" fill="#d8a272" d="M 338.5,232.5 C 346.868,235.759 355.535,237.759 364.5,238.5C 364.962,251.599 364.462,264.599 363,277.5C 361.5,279 360,280.5 358.5,282C 350.95,284.567 343.616,287.4 336.5,290.5C 326.955,285.437 319.621,278.104 314.5,268.5C 321.343,266.369 328.343,264.369 335.5,262.5C 336.192,261.975 336.692,261.308 337,260.5C 337.499,255.845 337.666,251.179 337.5,246.5C 338.486,242.03 338.819,237.363 338.5,232.5 Z"/></g>
<g><path style="opacity:0.99" fill="#8e551d" d="M 261.5,250.5 C 229.137,256.696 209.971,276.03 204,308.5C 203.501,313.823 203.334,319.156 203.5,324.5C 199.398,325.201 195.398,326.534 191.5,328.5C 189.259,312.168 192.092,296.835 200,282.5C 202.689,278.325 205.523,274.325 208.5,270.5C 223.089,255.966 240.756,249.3 261.5,250.5 Z"/></g>
<g><path style="opacity:0.995" fill="#996123" d="M 261.5,250.5 C 277.71,252.106 291.377,258.772 302.5,270.5C 316.612,287.186 322.279,306.52 319.5,328.5C 314.903,327.278 310.57,325.612 306.5,323.5C 299.472,320.554 293.305,316.221 288,310.5C 286.414,308.33 285.08,305.996 284,303.5C 282.475,300.913 280.308,300.08 277.5,301C 267.438,316.372 253.105,324.539 234.5,325.5C 225.147,326.078 215.981,325.078 207,322.5C 205.697,322.978 204.531,323.645 203.5,324.5C 203.334,319.156 203.501,313.823 204,308.5C 209.971,276.03 229.137,256.696 261.5,250.5 Z"/></g>
<g><path style="opacity:1" fill="#cdcbc9" d="M 173.5,256.5 C 177.743,259.024 182.076,261.357 186.5,263.5C 185.448,263.351 184.448,263.517 183.5,264C 173.499,275.525 163.166,286.692 152.5,297.5C 151.5,296.833 150.5,296.167 149.5,295.5C 147.188,292.521 144.521,289.854 141.5,287.5C 138.479,289.854 135.812,292.521 133.5,295.5C 132.5,296.167 131.5,296.833 130.5,297.5C 120.867,287.698 111.367,277.698 102,267.5C 100.549,265.536 98.7157,264.203 96.5,263.5C 100.586,261.13 104.919,259.13 109.5,257.5C 109.833,257.5 110.167,257.5 110.5,257.5C 119.133,264.798 127.467,272.465 135.5,280.5C 137.094,281.983 138.76,283.483 140.5,285C 141.167,285.667 141.833,285.667 142.5,285C 152.703,275.294 163.037,265.794 173.5,256.5 Z"/></g>
<g><path style="opacity:1" fill="#d8d9d9" d="M 96.5,263.5 C 98.7157,264.203 100.549,265.536 102,267.5C 111.367,277.698 120.867,287.698 130.5,297.5C 127.021,303.24 122.021,305.74 115.5,305C 105.258,292.935 95.2579,280.768 85.5,268.5C 88.9789,266.597 92.6456,264.93 96.5,263.5 Z"/></g>
<g><path style="opacity:1" fill="#d8d8d9" d="M 186.5,263.5 C 191.245,265.545 195.911,267.545 200.5,269.5C 197.956,269.104 195.789,269.771 194,271.5C 185.547,282.954 176.714,294.121 167.5,305C 160.666,306.25 155.666,303.75 152.5,297.5C 163.166,286.692 173.499,275.525 183.5,264C 184.448,263.517 185.448,263.351 186.5,263.5 Z"/></g>
<g><path style="opacity:1" fill="#70baee" d="M 85.5,268.5 C 95.2579,280.768 105.258,292.935 115.5,305C 122.021,305.74 127.021,303.24 130.5,297.5C 131.5,296.833 132.5,296.167 133.5,295.5C 133.333,312.17 133.5,328.837 134,345.5C 139.421,352.433 144.421,352.1 149,344.5C 149.5,328.17 149.667,311.837 149.5,295.5C 150.5,296.167 151.5,296.833 152.5,297.5C 155.666,303.75 160.666,306.25 167.5,305C 176.714,294.121 185.547,282.954 194,271.5C 195.789,269.771 197.956,269.104 200.5,269.5C 203.167,269.833 205.833,270.167 208.5,270.5C 205.523,274.325 202.689,278.325 200,282.5C 192.092,296.835 189.259,312.168 191.5,328.5C 189.273,330.607 187.273,332.94 185.5,335.5C 181.675,350.388 187.675,358.388 203.5,359.5C 205.411,374.402 211.744,387.069 222.5,397.5C 221.504,397.414 220.671,397.748 220,398.5C 219.421,408.18 219.588,417.847 220.5,427.5C 212.326,429.54 204.326,431.873 196.5,434.5C 185.661,437.17 178.495,443.837 175,454.5C 171.919,473.4 169.752,492.4 168.5,511.5C 131.833,511.5 95.1667,511.5 58.5,511.5C 60.4662,474.177 61.9662,436.844 63,399.5C 60.6557,397.226 57.8224,396.059 54.5,396C 47.8294,395.474 41.1627,394.974 34.5,394.5C 33.209,394.737 32.209,394.404 31.5,393.5C 32.8333,393.5 34.1667,393.5 35.5,393.5C 37.1885,364.76 39.6885,336.093 43,307.5C 44.3283,295.343 49.495,285.176 58.5,277C 57.2068,276.51 55.8734,276.343 54.5,276.5C 64.6072,273.389 74.9405,270.722 85.5,268.5 Z"/></g>
<g><path style="opacity:1" fill="#b82d2d" d="M 424.5,268.5 C 430.094,269.232 435.427,270.565 440.5,272.5C 439.833,278.5 439.167,284.5 438.5,290.5C 438.565,290.062 438.399,289.728 438,289.5C 433.963,294.736 428.63,297.07 422,296.5C 415.097,296.316 408.597,294.649 402.5,291.5C 411.181,285.152 418.514,277.485 424.5,268.5 Z"/></g>
<g><path style="opacity:1" fill="#d83d3d" d="M 440.5,272.5 C 455.845,273.997 469.345,279.664 481,289.5C 488.799,297.545 493.132,307.212 494,318.5C 496.83,341.807 499.33,365.14 501.5,388.5C 501.5,389.5 501.5,390.5 501.5,391.5C 484.109,392.783 466.776,394.616 449.5,397C 448.874,397.75 448.374,398.584 448,399.5C 449.307,436.829 450.807,474.162 452.5,511.5C 416.167,511.5 379.833,511.5 343.5,511.5C 341.475,493.157 339.308,474.824 337,456.5C 333.993,446.16 327.493,438.993 317.5,435C 308.421,432.648 299.421,430.148 290.5,427.5C 291.315,417.843 291.482,408.176 291,398.5C 289.961,397.756 289.461,396.756 289.5,395.5C 300.131,385.983 305.798,373.983 306.5,359.5C 321.201,359.303 328.035,351.97 327,337.5C 326.623,336.058 325.79,335.058 324.5,334.5C 323.92,332.251 322.587,330.585 320.5,329.5C 320.5,328.167 320.5,326.833 320.5,325.5C 328.191,325.729 335.524,324.229 342.5,321C 352.207,315.48 361.207,308.98 369.5,301.5C 380.422,312.129 393.089,319.962 407.5,325C 418.126,327.101 426.293,323.601 432,314.5C 435.902,306.962 438.069,298.962 438.5,290.5C 439.167,284.5 439.833,278.5 440.5,272.5 Z"/></g>
<g><path style="opacity:1" fill="#4fade3" d="M 54.5,276.5 C 55.8734,276.343 57.2068,276.51 58.5,277C 49.495,285.176 44.3283,295.343 43,307.5C 39.6885,336.093 37.1885,364.76 35.5,393.5C 34.1667,393.5 32.8333,393.5 31.5,393.5C 23.7995,393.163 16.1328,392.497 8.5,391.5C 11.4405,367.203 14.2738,342.87 17,318.5C 19.8157,295.851 32.3157,281.851 54.5,276.5 Z"/></g>
<g><path style="opacity:1" fill="#4daee5" d="M 149.5,295.5 C 149.667,311.837 149.5,328.17 149,344.5C 144.421,352.1 139.421,352.433 134,345.5C 133.5,328.837 133.333,312.17 133.5,295.5C 135.812,292.521 138.479,289.854 141.5,287.5C 144.521,289.854 147.188,292.521 149.5,295.5 Z"/></g>
<g><path style="opacity:1" fill="#a92726" d="M 314.5,268.5 C 319.621,278.104 326.955,285.437 336.5,290.5C 340.881,294.024 345.881,296.524 351.5,298C 369.466,302.895 386.466,300.728 402.5,291.5C 408.597,294.649 415.097,296.316 422,296.5C 428.63,297.07 433.963,294.736 438,289.5C 438.399,289.728 438.565,290.062 438.5,290.5C 438.069,298.962 435.902,306.962 432,314.5C 426.293,323.601 418.126,327.101 407.5,325C 393.089,319.962 380.422,312.129 369.5,301.5C 361.207,308.98 352.207,315.48 342.5,321C 335.524,324.229 328.191,325.729 320.5,325.5C 320.5,326.833 320.5,328.167 320.5,329.5C 319.833,329.5 319.5,329.167 319.5,328.5C 322.279,306.52 316.612,287.186 302.5,270.5C 306.5,269.833 310.5,269.167 314.5,268.5 Z"/></g>
<g><path style="opacity:1" fill="#fbe2ba" d="M 306.5,323.5 C 306.5,327.5 306.5,331.5 306.5,335.5C 306.5,343.5 306.5,351.5 306.5,359.5C 305.798,373.983 300.131,385.983 289.5,395.5C 285.304,398.759 280.97,401.759 276.5,404.5C 273.797,404.955 271.13,405.622 268.5,406.5C 246.933,400.062 234.1,385.728 230,363.5C 229.5,351.171 229.333,338.838 229.5,326.5C 231.415,326.784 233.081,326.451 234.5,325.5C 253.105,324.539 267.438,316.372 277.5,301C 280.308,300.08 282.475,300.913 284,303.5C 285.08,305.996 286.414,308.33 288,310.5C 293.305,316.221 299.472,320.554 306.5,323.5 Z"/></g>
<g><path style="opacity:1" fill="#eecfa2" d="M 234.5,325.5 C 233.081,326.451 231.415,326.784 229.5,326.5C 229.333,338.838 229.5,351.171 230,363.5C 234.1,385.728 246.933,400.062 268.5,406.5C 271.13,405.622 273.797,404.955 276.5,404.5C 276.334,410.842 276.5,417.175 277,423.5C 280.73,425.273 284.563,426.606 288.5,427.5C 276.03,442.105 260.697,446.771 242.5,441.5C 246.712,440.066 250.878,438.399 255,436.5C 255.5,427.173 255.666,417.839 255.5,408.5C 248.284,408.279 241.284,406.946 234.5,404.5C 230.508,402.17 226.508,399.837 222.5,397.5C 211.744,387.069 205.411,374.402 203.5,359.5C 203.5,354.5 203.5,349.5 203.5,344.5C 195.814,344.657 189.814,341.657 185.5,335.5C 187.273,332.94 189.273,330.607 191.5,328.5C 195.398,326.534 199.398,325.201 203.5,324.5C 204.531,323.645 205.697,322.978 207,322.5C 215.981,325.078 225.147,326.078 234.5,325.5 Z"/></g>
<g><path style="opacity:1" fill="#edcda1" d="M 306.5,323.5 C 310.57,325.612 314.903,327.278 319.5,328.5C 319.5,329.167 319.833,329.5 320.5,329.5C 322.587,330.585 323.92,332.251 324.5,334.5C 323.857,337.988 321.857,340.488 318.5,342C 315.077,343.904 311.41,344.737 307.5,344.5C 307.81,341.287 307.477,338.287 306.5,335.5C 306.5,331.5 306.5,327.5 306.5,323.5 Z"/></g>
<g><path style="opacity:1" fill="#e1bf92" d="M 185.5,335.5 C 189.814,341.657 195.814,344.657 203.5,344.5C 203.5,349.5 203.5,354.5 203.5,359.5C 187.675,358.388 181.675,350.388 185.5,335.5 Z"/></g>
<g><path style="opacity:1" fill="#e3be91" d="M 324.5,334.5 C 325.79,335.058 326.623,336.058 327,337.5C 328.035,351.97 321.201,359.303 306.5,359.5C 306.5,351.5 306.5,343.5 306.5,335.5C 307.477,338.287 307.81,341.287 307.5,344.5C 311.41,344.737 315.077,343.904 318.5,342C 321.857,340.488 323.857,337.988 324.5,334.5 Z"/></g>
<g><path style="opacity:0.999" fill="#d38d54" d="M 8.5,391.5 C 16.1328,392.497 23.7995,393.163 31.5,393.5C 32.209,394.404 33.209,394.737 34.5,394.5C 32.403,416.873 29.903,439.206 27,461.5C 25.8344,470.812 25.5011,480.146 26,489.5C 28.9203,500.584 35.7537,507.917 46.5,511.5C 37.5,511.5 28.5,511.5 19.5,511.5C 9.42458,507.758 2.75791,500.758 -0.5,490.5C -0.5,483.5 -0.5,476.5 -0.5,469.5C 2.92401,443.689 5.92401,417.689 8.5,391.5 Z"/></g>
<g><path style="opacity:0.989" fill="#e9b782" d="M 501.5,388.5 C 504.833,415.5 508.167,442.5 511.5,469.5C 511.5,476.167 511.5,482.833 511.5,489.5C 508.701,500.301 502.035,507.634 491.5,511.5C 478.5,511.5 465.5,511.5 452.5,511.5C 450.807,474.162 449.307,436.829 448,399.5C 448.374,398.584 448.874,397.75 449.5,397C 466.776,394.616 484.109,392.783 501.5,391.5C 501.5,390.5 501.5,389.5 501.5,388.5 Z"/></g>
<g><path style="opacity:1" fill="#dc9a5e" d="M 34.5,394.5 C 41.1627,394.974 47.8294,395.474 54.5,396C 57.8224,396.059 60.6557,397.226 63,399.5C 61.9662,436.844 60.4662,474.177 58.5,511.5C 54.5,511.5 50.5,511.5 46.5,511.5C 35.7537,507.917 28.9203,500.584 26,489.5C 25.5011,480.146 25.8344,470.812 27,461.5C 29.903,439.206 32.403,416.873 34.5,394.5 Z"/></g>
<g><path style="opacity:1" fill="#dc9a5e" d="M 222.5,397.5 C 226.508,399.837 230.508,402.17 234.5,404.5C 234.8,411.273 234.133,417.94 232.5,424.5C 229.046,425.513 225.713,426.513 222.5,427.5C 221.833,427.5 221.167,427.5 220.5,427.5C 219.588,417.847 219.421,408.18 220,398.5C 220.671,397.748 221.504,397.414 222.5,397.5 Z"/></g>
<g><path style="opacity:1" fill="#eab782" d="M 289.5,395.5 C 289.461,396.756 289.961,397.756 291,398.5C 291.482,408.176 291.315,417.843 290.5,427.5C 289.833,427.5 289.167,427.5 288.5,427.5C 284.563,426.606 280.73,425.273 277,423.5C 276.5,417.175 276.334,410.842 276.5,404.5C 280.97,401.759 285.304,398.759 289.5,395.5 Z"/></g>
<g><path style="opacity:1" fill="#e2be90" d="M 234.5,404.5 C 241.284,406.946 248.284,408.279 255.5,408.5C 255.666,417.839 255.5,427.173 255,436.5C 250.878,438.399 246.712,440.066 242.5,441.5C 238.577,440.205 234.91,438.372 231.5,436C 228.584,432.913 225.584,430.079 222.5,427.5C 225.713,426.513 229.046,425.513 232.5,424.5C 234.133,417.94 234.8,411.273 234.5,404.5 Z"/></g>
<g><path style="opacity:1" fill="#7ebb7d" d="M 220.5,427.5 C 221.167,427.5 221.833,427.5 222.5,427.5C 225.584,430.079 228.584,432.913 231.5,436C 234.91,438.372 238.577,440.205 242.5,441.5C 260.697,446.771 276.03,442.105 288.5,427.5C 289.167,427.5 289.833,427.5 290.5,427.5C 299.421,430.148 308.421,432.648 317.5,435C 327.493,438.993 333.993,446.16 337,456.5C 339.308,474.824 341.475,493.157 343.5,511.5C 333.5,511.5 323.5,511.5 313.5,511.5C 313.666,503.16 313.5,494.827 313,486.5C 310.742,480.581 306.575,478.914 300.5,481.5C 299.667,482.5 298.833,483.5 298,484.5C 297.252,493.535 297.419,502.535 298.5,511.5C 270.167,511.5 241.833,511.5 213.5,511.5C 213.666,502.161 213.5,492.827 213,483.5C 208.042,479.285 203.375,479.619 199,484.5C 198.5,493.494 198.334,502.494 198.5,511.5C 193.833,511.5 189.167,511.5 184.5,511.5C 185.591,488.659 188.091,465.993 192,443.5C 194.045,440.577 196.212,437.743 198.5,435C 197.906,434.536 197.239,434.369 196.5,434.5C 204.326,431.873 212.326,429.54 220.5,427.5 Z"/></g>
<g><path style="opacity:1" fill="#5faa60" d="M 196.5,434.5 C 197.239,434.369 197.906,434.536 198.5,435C 196.212,437.743 194.045,440.577 192,443.5C 188.091,465.993 185.591,488.659 184.5,511.5C 179.167,511.5 173.833,511.5 168.5,511.5C 169.752,492.4 171.919,473.4 175,454.5C 178.495,443.837 185.661,437.17 196.5,434.5 Z"/></g>
<g><path style="opacity:1" fill="#5eaa5e" d="M 213.5,511.5 C 208.5,511.5 203.5,511.5 198.5,511.5C 198.334,502.494 198.5,493.494 199,484.5C 203.375,479.619 208.042,479.285 213,483.5C 213.5,492.827 213.666,502.161 213.5,511.5 Z"/></g>
<g><path style="opacity:1" fill="#5faa5f" d="M 313.5,511.5 C 308.5,511.5 303.5,511.5 298.5,511.5C 297.419,502.535 297.252,493.535 298,484.5C 298.833,483.5 299.667,482.5 300.5,481.5C 306.575,478.914 310.742,480.581 313,486.5C 313.5,494.827 313.666,503.16 313.5,511.5 Z"/></g>
</svg>
