<?xml version="1.0" encoding="UTF-8"?>
<!DOCTYPE svg PUBLIC "-//W3C//DTD SVG 1.1//EN" "http://www.w3.org/Graphics/SVG/1.1/DTD/svg11.dtd">
<svg xmlns="http://www.w3.org/2000/svg" version="1.1" width="512px" height="512px" style="shape-rendering:geometricPrecision; text-rendering:geometricPrecision; image-rendering:optimizeQuality; fill-rule:evenodd; clip-rule:evenodd" xmlns:xlink="http://www.w3.org/1999/xlink">
<g><path style="opacity:0.98" fill="#e6e8ec" d="M 107.5,-0.5 C 136.5,-0.5 165.5,-0.5 194.5,-0.5C 196.696,0.854084 198.196,2.85408 199,5.5C 199.5,32.8313 199.667,60.1646 199.5,87.5C 188.833,87.5 178.167,87.5 167.5,87.5C 167.5,68.5 167.5,49.5 167.5,30.5C 146.741,30.9768 126.075,30.4768 105.5,29C 104.299,28.0975 103.465,26.9308 103,25.5C 102.333,18.5 102.333,11.5 103,4.5C 104.025,2.31305 105.525,0.646381 107.5,-0.5 Z"/></g>
<g><path style="opacity:0.999" fill="#a0d0e6" d="M 102.5,87.5 C 101.878,88.6266 101.045,89.6266 100,90.5C 99.5001,105.163 99.3334,119.83 99.5,134.5C 88.1667,134.5 76.8333,134.5 65.5,134.5C 65.0326,119.403 65.5326,104.403 67,89.5C 67.5,89 68,88.5 68.5,88C 79.8284,87.5001 91.1618,87.3335 102.5,87.5 Z"/></g>
<g><path style="opacity:0.997" fill="#b0e7fe" d="M 102.5,87.5 C 124.167,87.5 145.833,87.5 167.5,87.5C 178.167,87.5 188.833,87.5 199.5,87.5C 232.168,87.3334 264.835,87.5 297.5,88C 298.126,88.7504 298.626,89.5838 299,90.5C 299.5,105.163 299.667,119.83 299.5,134.5C 232.833,134.5 166.167,134.5 99.5,134.5C 99.3334,119.83 99.5001,105.163 100,90.5C 101.045,89.6266 101.878,88.6266 102.5,87.5 Z"/></g>
<g><path style="opacity:0.993" fill="#68a7c9" d="M 62.5,134.5 C 61.8783,135.627 61.045,136.627 60,137.5C 59.3333,151.833 59.3333,166.167 60,180.5C 60.6979,181.691 61.5313,182.691 62.5,183.5C 60.2646,183.205 58.2646,183.539 56.5,184.5C 47.1607,184.666 37.8274,184.5 28.5,184C 27.6667,183.167 26.8333,182.333 26,181.5C 25.3333,166.5 25.3333,151.5 26,136.5C 26.5,136 27,135.5 27.5,135C 39.1619,134.5 50.8286,134.333 62.5,134.5 Z"/></g>
<g><path style="opacity:0.998" fill="#74b8df" d="M 62.5,134.5 C 63.5,134.5 64.5,134.5 65.5,134.5C 76.8333,134.5 88.1667,134.5 99.5,134.5C 166.167,134.5 232.833,134.5 299.5,134.5C 312.171,134.333 324.838,134.5 337.5,135C 338.893,136.171 339.727,137.671 340,139.5C 340.93,153.889 340.597,168.222 339,182.5C 338.25,183.126 337.416,183.626 336.5,184C 326.839,184.5 317.172,184.666 307.5,184.5C 279.338,183.502 251.005,183.169 222.5,183.5C 169.167,183.5 115.833,183.5 62.5,183.5C 61.5313,182.691 60.6979,181.691 60,180.5C 59.3333,166.167 59.3333,151.833 60,137.5C 61.045,136.627 61.8783,135.627 62.5,134.5 Z"/></g>
<g><path style="opacity:0.989" fill="#cb3835" d="M 62.5,183.5 C 115.833,183.5 169.167,183.5 222.5,183.5C 222.5,184.167 222.167,184.5 221.5,184.5C 176.167,184.5 130.833,184.5 85.5,184.5C 89.8606,229.466 93.8606,274.466 97.5,319.5C 89.7277,329.751 81.061,339.085 71.5,347.5C 66.5601,293.161 61.5601,238.828 56.5,184.5C 58.2646,183.539 60.2646,183.205 62.5,183.5 Z"/></g>
<g><path style="opacity:1" fill="#e23c38" d="M 221.5,184.5 C 180.869,229.799 139.869,274.799 98.5,319.5C 98.1667,319.5 97.8333,319.5 97.5,319.5C 93.8606,274.466 89.8606,229.466 85.5,184.5C 130.833,184.5 176.167,184.5 221.5,184.5 Z"/></g>
<g><path style="opacity:1" fill="#e5e8ec" d="M 222.5,183.5 C 251.005,183.169 279.338,183.502 307.5,184.5C 307.073,191.532 306.406,198.532 305.5,205.5C 239.5,277.167 173.5,348.833 107.5,420.5C 103.972,387.026 100.972,353.36 98.5,319.5C 139.869,274.799 180.869,229.799 221.5,184.5C 222.167,184.5 222.5,184.167 222.5,183.5 Z"/></g>
<g><path style="opacity:0.999" fill="#e23c38" d="M 305.5,205.5 C 304.192,223.554 302.525,241.554 300.5,259.5C 257.436,277.407 230.269,309.073 219,354.5C 218.081,358.731 218.581,362.731 220.5,366.5C 217.813,366.336 215.146,366.503 212.5,367C 211.333,367.5 210.5,368.333 210,369.5C 209.333,378.5 209.333,387.5 210,396.5C 210.422,398.426 211.589,399.426 213.5,399.5C 213.5,400.167 213.833,400.5 214.5,400.5C 212.832,402.34 211.332,404.34 210,406.5C 209.333,415.5 209.333,424.5 210,433.5C 211.821,438.999 215.655,441.332 221.5,440.5C 220.878,441.627 220.045,442.627 219,443.5C 220.061,480.395 238.561,503.062 274.5,511.5C 222.5,511.5 170.5,511.5 118.5,511.5C 116.856,510.684 115.69,509.35 115,507.5C 112.53,478.825 110.03,450.159 107.5,421.5C 107.5,421.167 107.5,420.833 107.5,420.5C 173.5,348.833 239.5,277.167 305.5,205.5 Z"/></g>
<g><path style="opacity:0.997" fill="#e69d5d" d="M 362.5,251.5 C 311.432,260.721 275.932,289.387 256,337.5C 253.238,344.95 251.405,352.617 250.5,360.5C 250.611,362.714 251.278,364.714 252.5,366.5C 249.833,366.5 247.167,366.5 244.5,366.5C 236.5,366.5 228.5,366.5 220.5,366.5C 218.581,362.731 218.081,358.731 219,354.5C 230.269,309.073 257.436,277.407 300.5,259.5C 320.514,251.998 341.18,249.331 362.5,251.5 Z"/></g>
<g><path style="opacity:0.997" fill="#feaf68" d="M 362.5,251.5 C 425.385,262.218 463.718,298.718 477.5,361C 476.956,362.585 476.289,364.085 475.5,365.5C 401.238,366.497 326.904,366.83 252.5,366.5C 251.278,364.714 250.611,362.714 250.5,360.5C 251.405,352.617 253.238,344.95 256,337.5C 275.932,289.387 311.432,260.721 362.5,251.5 Z"/></g>
<g><path style="opacity:1" fill="#ffcda8" d="M 318.5,275.5 C 322.967,275.133 327.3,275.633 331.5,277C 335.886,282.074 335.219,286.408 329.5,290C 325.044,290.867 320.711,290.534 316.5,289C 312.188,283.731 312.855,279.231 318.5,275.5 Z"/></g>
<g><path style="opacity:1" fill="#fffdfb" d="M 365.5,280.5 C 369.967,280.133 374.3,280.633 378.5,282C 382.957,287.135 382.29,291.468 376.5,295C 372.833,295.667 369.167,295.667 365.5,295C 360.214,290.169 360.214,285.335 365.5,280.5 Z"/></g>
<g><path style="opacity:1" fill="#fffcfa" d="M 287.5,299.5 C 291.967,299.133 296.3,299.633 300.5,301C 304.24,304.694 304.407,308.527 301,312.5C 295.801,315.142 290.635,315.142 285.5,312.5C 283.534,309.451 283.034,306.118 284,302.5C 285.145,301.364 286.312,300.364 287.5,299.5 Z"/></g>
<g><path style="opacity:1" fill="#ffcea9" d="M 399.5,299.5 C 403.514,299.334 407.514,299.501 411.5,300C 416.986,305.081 416.653,309.748 410.5,314C 406.833,314.667 403.167,314.667 399.5,314C 394.235,309.076 394.235,304.242 399.5,299.5 Z"/></g>
<g><path style="opacity:1" fill="#fffcf9" d="M 339.5,305.5 C 343.846,305.334 348.179,305.501 352.5,306C 358.133,311.487 357.466,316.154 350.5,320C 342.978,322.24 337.978,319.74 335.5,312.5C 336.071,309.687 337.404,307.354 339.5,305.5 Z"/></g>
<g><path style="opacity:0.992" fill="#cfd1d5" d="M 97.5,319.5 C 97.8333,319.5 98.1667,319.5 98.5,319.5C 100.972,353.36 103.972,387.026 107.5,420.5C 107.5,420.833 107.5,421.167 107.5,421.5C 98.5,430.833 89.5,440.167 80.5,449.5C 77.7404,415.477 74.7404,381.477 71.5,347.5C 81.061,339.085 89.7277,329.751 97.5,319.5 Z"/></g>
<g><path style="opacity:1" fill="#e6a842" d="M 220.5,366.5 C 228.5,366.5 236.5,366.5 244.5,366.5C 243.531,367.309 242.698,368.309 242,369.5C 241.333,378.5 241.333,387.5 242,396.5C 242.513,397.527 243.013,398.527 243.5,399.5C 233.5,399.5 223.5,399.5 213.5,399.5C 211.589,399.426 210.422,398.426 210,396.5C 209.333,387.5 209.333,378.5 210,369.5C 210.5,368.333 211.333,367.5 212.5,367C 215.146,366.503 217.813,366.336 220.5,366.5 Z"/></g>
<g><path style="opacity:0.999" fill="#feba49" d="M 475.5,365.5 C 479.192,364.971 482.358,365.971 485,368.5C 485.667,378.5 485.667,388.5 485,398.5C 483.887,399.305 482.721,399.972 481.5,400.5C 465.865,399.38 450.199,399.213 434.5,400C 426.965,404.195 419.965,409.195 413.5,415C 411.305,416.373 408.971,416.706 406.5,416C 401.167,411.667 395.833,407.333 390.5,403C 388.043,401.438 385.376,400.438 382.5,400C 336.168,399.5 289.835,399.333 243.5,399.5C 243.013,398.527 242.513,397.527 242,396.5C 241.333,387.5 241.333,378.5 242,369.5C 242.698,368.309 243.531,367.309 244.5,366.5C 247.167,366.5 249.833,366.5 252.5,366.5C 326.904,366.83 401.238,366.497 475.5,365.5 Z"/></g>
<g><path style="opacity:1" fill="#9a4b31" d="M 214.5,400.5 C 225.172,400.333 235.839,400.5 246.5,401C 244.622,402.543 243.122,404.376 242,406.5C 241.333,415.5 241.333,424.5 242,433.5C 242.967,436.621 244.8,438.954 247.5,440.5C 238.833,440.5 230.167,440.5 221.5,440.5C 215.655,441.332 211.821,438.999 210,433.5C 209.333,424.5 209.333,415.5 210,406.5C 211.332,404.34 212.832,402.34 214.5,400.5 Z"/></g>
<g><path style="opacity:0.999" fill="#ab5536" d="M 213.5,399.5 C 223.5,399.5 233.5,399.5 243.5,399.5C 289.835,399.333 336.168,399.5 382.5,400C 385.376,400.438 388.043,401.438 390.5,403C 395.833,407.333 401.167,411.667 406.5,416C 408.971,416.706 411.305,416.373 413.5,415C 419.965,409.195 426.965,404.195 434.5,400C 450.199,399.213 465.865,399.38 481.5,400.5C 482.836,402.01 484.003,403.677 485,405.5C 485.667,415.5 485.667,425.5 485,435.5C 482.904,439.135 479.737,441.135 475.5,441.5C 474.833,441.5 474.167,441.5 473.5,441.5C 398.335,440.501 323.002,440.167 247.5,440.5C 244.8,438.954 242.967,436.621 242,433.5C 241.333,424.5 241.333,415.5 242,406.5C 243.122,404.376 244.622,402.543 246.5,401C 235.839,400.5 225.172,400.333 214.5,400.5C 213.833,400.5 213.5,400.167 213.5,399.5 Z"/></g>
<g><path style="opacity:0.992" fill="#cc3633" d="M 107.5,421.5 C 110.03,450.159 112.53,478.825 115,507.5C 115.69,509.35 116.856,510.684 118.5,511.5C 108.5,511.5 98.5,511.5 88.5,511.5C 87.0693,509.811 86.2359,507.811 86,505.5C 84.4325,486.753 82.5991,468.086 80.5,449.5C 89.5,440.167 98.5,430.833 107.5,421.5 Z"/></g>
<g><path style="opacity:0.999" fill="#e49a5c" d="M 221.5,440.5 C 230.167,440.5 238.833,440.5 247.5,440.5C 323.002,440.167 398.335,440.501 473.5,441.5C 399.833,441.333 326.166,441.5 252.5,442C 249.956,468.576 260.29,488.91 283.5,503C 291.45,507.371 299.783,510.205 308.5,511.5C 297.167,511.5 285.833,511.5 274.5,511.5C 238.561,503.062 220.061,480.395 219,443.5C 220.045,442.627 220.878,441.627 221.5,440.5 Z"/></g>
<g><path style="opacity:0.998" fill="#feae67" d="M 473.5,441.5 C 474.167,441.5 474.833,441.5 475.5,441.5C 477.619,468.095 467.286,488.595 444.5,503C 437.393,506.752 430.06,509.585 422.5,511.5C 384.5,511.5 346.5,511.5 308.5,511.5C 299.783,510.205 291.45,507.371 283.5,503C 260.29,488.91 249.956,468.576 252.5,442C 326.166,441.5 399.833,441.333 473.5,441.5 Z"/></g>
</svg>
