<?xml version="1.0" encoding="UTF-8"?>
<!DOCTYPE svg PUBLIC "-//W3C//DTD SVG 1.1//EN" "http://www.w3.org/Graphics/SVG/1.1/DTD/svg11.dtd">
<svg xmlns="http://www.w3.org/2000/svg" version="1.1" width="512px" height="512px" style="shape-rendering:geometricPrecision; text-rendering:geometricPrecision; image-rendering:optimizeQuality; fill-rule:evenodd; clip-rule:evenodd" xmlns:xlink="http://www.w3.org/1999/xlink">
<g><path style="opacity:0.924" fill="#52535f" d="M 488.5,71.5 C 483.266,72.8021 477.933,72.8021 472.5,71.5C 472.667,60.8281 472.5,50.1615 472,39.5C 461.88,31.6196 452.213,23.2863 443,14.5C 441.083,7.98278 443.417,4.31612 450,3.5C 453.233,3.70018 456.067,4.86685 458.5,7C 467.724,15.1915 477.224,23.0249 487,30.5C 488.464,44.0683 488.964,57.735 488.5,71.5 Z"/></g>
<g><path style="opacity:0.996" fill="#fe8b01" d="M 92.5,10.5 C 167.167,10.3333 241.834,10.5 316.5,11C 322.236,12.4022 326.069,15.9022 328,21.5C 328.5,95.1659 328.667,168.833 328.5,242.5C 327.177,257.735 327.177,273.069 328.5,288.5C 328.5,350.833 328.5,413.167 328.5,475.5C 237.167,476.833 145.833,476.833 54.5,475.5C 62.8333,475.5 71.1667,475.5 79.5,475.5C 79.3333,324.5 79.5,173.5 80,22.5C 82.2079,16.3375 86.3746,12.3375 92.5,10.5 Z"/></g>
<g><path style="opacity:1" fill="#e8650b" d="M 92.5,10.5 C 86.3746,12.3375 82.2079,16.3375 80,22.5C 79.5,173.5 79.3333,324.5 79.5,475.5C 71.1667,475.5 62.8333,475.5 54.5,475.5C 54.3333,324.166 54.5,172.833 55,21.5C 56.5787,15.5901 60.412,12.0901 66.5,11C 75.1603,10.5002 83.8269,10.3336 92.5,10.5 Z"/></g>
<g><path style="opacity:1" fill="#8fc8f1" d="M 107.5,51.5 C 115.174,51.3336 122.841,51.5003 130.5,52C 126.612,54.2215 123.779,57.3882 122,61.5C 121.5,100.499 121.333,139.499 121.5,178.5C 113.167,178.5 104.833,178.5 96.5,178.5C 96.3333,139.165 96.5,99.8319 97,60.5C 99.0049,55.7487 102.505,52.7487 107.5,51.5 Z"/></g>
<g><path style="opacity:1" fill="#c7e4fb" d="M 107.5,51.5 C 115.65,50.5073 123.983,50.1739 132.5,50.5C 154.67,51.1667 177.004,51.8333 199.5,52.5C 196.445,63.2191 193.779,74.0524 191.5,85C 191.743,85.9021 192.077,86.7354 192.5,87.5C 190.278,87.178 188.444,87.8446 187,89.5C 181.417,97.6637 176.084,105.997 171,114.5C 165.83,130.827 171.33,141.827 187.5,147.5C 187.726,157.864 188.392,168.198 189.5,178.5C 166.833,178.5 144.167,178.5 121.5,178.5C 121.333,139.499 121.5,100.499 122,61.5C 123.779,57.3882 126.612,54.2215 130.5,52C 122.841,51.5003 115.174,51.3336 107.5,51.5 Z"/></g>
<g><path style="opacity:1" fill="#dff0fb" d="M 132.5,50.5 C 180.168,50.3333 227.834,50.5 275.5,51C 280.667,52.8333 284.167,56.3333 286,61.5C 286.5,100.499 286.667,139.499 286.5,178.5C 254.167,178.5 221.833,178.5 189.5,178.5C 188.392,168.198 187.726,157.864 187.5,147.5C 193.473,148.258 198.806,146.925 203.5,143.5C 212.278,137.008 215.445,128.341 213,117.5C 207.308,107.43 201.141,97.7633 194.5,88.5C 194.158,87.6618 193.492,87.3284 192.5,87.5C 192.077,86.7354 191.743,85.9021 191.5,85C 193.779,74.0524 196.445,63.2191 199.5,52.5C 177.004,51.8333 154.67,51.1667 132.5,50.5 Z"/></g>
<g><path style="opacity:0.99" fill="#fca74b" d="M 495.5,71.5 C 502.85,71.8306 508.183,75.1639 511.5,81.5C 511.5,107.167 511.5,132.833 511.5,158.5C 507.09,166.096 500.423,169.096 491.5,167.5C 486.463,164.956 482.963,160.956 481,155.5C 480.333,131.5 480.333,107.5 481,83.5C 483.932,77.0565 488.766,73.0565 495.5,71.5 Z"/></g>
<g><path style="opacity:1" fill="#fe8c02" d="M 472.5,71.5 C 477.933,72.8021 483.266,72.8021 488.5,71.5C 490.833,71.5 493.167,71.5 495.5,71.5C 488.766,73.0565 483.932,77.0565 481,83.5C 480.333,107.5 480.333,131.5 481,155.5C 482.963,160.956 486.463,164.956 491.5,167.5C 490.5,167.5 489.5,167.5 488.5,167.5C 483.167,167.5 477.833,167.5 472.5,167.5C 468.5,167.5 464.5,167.5 460.5,167.5C 453.879,164.276 450.213,158.943 449.5,151.5C 449.5,137.5 449.5,123.5 449.5,109.5C 450.809,102.734 450.809,96.0678 449.5,89.5C 450.72,75.6849 458.387,69.6849 472.5,71.5 Z"/></g>
<g><path style="opacity:1" fill="#456ab6" d="M 192.5,87.5 C 193.492,87.3284 194.158,87.6618 194.5,88.5C 192.175,89.6546 191.008,91.6546 191,94.5C 188.725,105.085 187.392,115.752 187,126.5C 189.352,135.351 194.852,141.017 203.5,143.5C 198.806,146.925 193.473,148.258 187.5,147.5C 171.33,141.827 165.83,130.827 171,114.5C 176.084,105.997 181.417,97.6637 187,89.5C 188.444,87.8446 190.278,87.178 192.5,87.5 Z"/></g>
<g><path style="opacity:1" fill="#577ddc" d="M 194.5,88.5 C 201.141,97.7633 207.308,107.43 213,117.5C 215.445,128.341 212.278,137.008 203.5,143.5C 194.852,141.017 189.352,135.351 187,126.5C 187.392,115.752 188.725,105.085 191,94.5C 191.008,91.6546 192.175,89.6546 194.5,88.5 Z"/></g>
<g><path style="opacity:0.936" fill="#bdbeb8" d="M 449.5,89.5 C 450.809,96.0678 450.809,102.734 449.5,109.5C 443.609,113.367 437.775,117.367 432,121.5C 431.5,131.494 431.334,141.494 431.5,151.5C 437.5,151.5 443.5,151.5 449.5,151.5C 450.213,158.943 453.879,164.276 460.5,167.5C 446.829,167.667 433.163,167.5 419.5,167C 418.333,165.833 417.167,164.667 416,163.5C 415.333,147.167 415.333,130.833 416,114.5C 426.432,105.243 437.598,96.9092 449.5,89.5 Z"/></g>
<g><path style="opacity:0.931" fill="#bcbeb9" d="M 472.5,167.5 C 477.833,167.5 483.167,167.5 488.5,167.5C 488.667,229.501 488.5,291.501 488,353.5C 480.985,384.183 462.152,403.349 431.5,411C 396.975,417.171 369.808,406.005 350,377.5C 346.547,371.141 343.881,364.474 342,357.5C 340.564,334.539 340.064,311.539 340.5,288.5C 347.392,287.718 352.725,284.385 356.5,278.5C 356.333,302.169 356.5,325.836 357,349.5C 362.567,375.399 378.4,390.899 404.5,396C 430.651,399.169 451.151,390.003 466,368.5C 468.849,363.134 470.849,357.468 472,351.5C 472.5,290.168 472.667,228.834 472.5,167.5 Z"/></g>
<g><path style="opacity:1" fill="#393a47" d="M 96.5,178.5 C 104.833,178.5 113.167,178.5 121.5,178.5C 121.334,185.841 121.5,193.174 122,200.5C 123.35,205.185 126.183,208.685 130.5,211C 122.841,211.5 115.174,211.666 107.5,211.5C 102.22,210.054 98.7203,206.721 97,201.5C 96.5003,193.841 96.3336,186.174 96.5,178.5 Z"/></g>
<g><path style="opacity:1" fill="#65656e" d="M 121.5,178.5 C 144.167,178.5 166.833,178.5 189.5,178.5C 221.833,178.5 254.167,178.5 286.5,178.5C 286.906,186.917 286.406,195.251 285,203.5C 282.708,207.788 279.208,210.622 274.5,212C 218.665,212.832 162.998,212.665 107.5,211.5C 115.174,211.666 122.841,211.5 130.5,211C 126.183,208.685 123.35,205.185 122,200.5C 121.5,193.174 121.334,185.841 121.5,178.5 Z"/></g>
<g><path style="opacity:1" fill="#ffd9a3" d="M 200.5,247.5 C 198.261,252.234 194.594,255.401 189.5,257C 161.833,257.667 134.167,257.667 106.5,257C 101.026,255.034 98.0261,251.201 97.5,245.5C 98.8633,241.298 101.53,238.131 105.5,236C 133.833,235.333 162.167,235.333 190.5,236C 195.825,238.155 199.159,241.989 200.5,247.5 Z"/></g>
<g><path style="opacity:1" fill="#e8660b" d="M 231.5,235.5 C 250.836,235.333 270.17,235.5 289.5,236C 293.212,238.513 294.378,242.013 293,246.5C 291.681,248.487 289.848,249.654 287.5,250C 269.5,250.667 251.5,250.667 233.5,250C 226.37,246.053 225.703,241.22 231.5,235.5 Z"/></g>
<g><path style="opacity:0.973" fill="#65656e" d="M 328.5,242.5 C 334.842,242.334 341.175,242.5 347.5,243C 352.428,244.927 355.594,248.427 357,253.5C 357.773,261.882 357.606,270.215 356.5,278.5C 352.725,284.385 347.392,287.718 340.5,288.5C 336.5,288.5 332.5,288.5 328.5,288.5C 327.177,273.069 327.177,257.735 328.5,242.5 Z"/></g>
<g><path style="opacity:1" fill="#ffc25a" d="M 97.5,245.5 C 98.0261,251.201 101.026,255.034 106.5,257C 134.167,257.667 161.833,257.667 189.5,257C 194.594,255.401 198.261,252.234 200.5,247.5C 201.655,254.321 201.821,261.321 201,268.5C 199.65,273.185 196.817,276.685 192.5,279C 164.228,280.642 135.895,280.975 107.5,280C 102.427,278.594 98.9268,275.428 97,270.5C 96.1768,261.99 96.3434,253.656 97.5,245.5 Z"/></g>
<g><path style="opacity:0.985" fill="#62646f" d="M 54.5,475.5 C 145.833,476.833 237.167,476.833 328.5,475.5C 342.171,475.333 355.837,475.5 369.5,476C 375.334,476.346 379.334,479.179 381.5,484.5C 378.961,487.19 375.961,489.357 372.5,491C 251.5,491.667 130.5,491.667 9.5,491C 5.72086,489.623 3.05419,487.123 1.5,483.5C 3.94049,479.23 7.60716,476.73 12.5,476C 26.496,475.5 40.496,475.333 54.5,475.5 Z"/></g>
<g><path style="opacity:1" fill="#3a3b48" d="M 1.5,483.5 C 3.05419,487.123 5.72086,489.623 9.5,491C 130.5,491.667 251.5,491.667 372.5,491C 375.961,489.357 378.961,487.19 381.5,484.5C 386.108,494.471 383.442,501.971 373.5,507C 252.167,507.667 130.833,507.667 9.5,507C 4.98004,504.978 1.6467,501.811 -0.5,497.5C -0.5,493.833 -0.5,490.167 -0.5,486.5C 0.166667,485.5 0.833333,484.5 1.5,483.5 Z"/></g>
</svg>
