<?xml version="1.0" encoding="UTF-8"?>
<!DOCTYPE svg PUBLIC "-//W3C//DTD SVG 1.1//EN" "http://www.w3.org/Graphics/SVG/1.1/DTD/svg11.dtd">
<svg xmlns="http://www.w3.org/2000/svg" version="1.1" width="512px" height="512px" style="shape-rendering:geometricPrecision; text-rendering:geometricPrecision; image-rendering:optimizeQuality; fill-rule:evenodd; clip-rule:evenodd" xmlns:xlink="http://www.w3.org/1999/xlink">
<g><path style="opacity:0.997" fill="#a8d2d5" d="M 191.5,-0.5 C 223.833,-0.5 256.167,-0.5 288.5,-0.5C 288.5,36.5 288.5,73.5 288.5,110.5C 283.167,110.5 277.833,110.5 272.5,110.5C 272.667,97.1625 272.5,83.8292 272,70.5C 271.5,68.6667 270.333,67.5 268.5,67C 259.833,66.3333 251.167,66.3333 242.5,67C 240.667,67.5 239.5,68.6667 239,70.5C 238.5,83.8292 238.333,97.1625 238.5,110.5C 221.833,110.5 205.167,110.5 188.5,110.5C 188.333,74.4985 188.5,38.4985 189,2.5C 189.698,1.30943 190.531,0.309426 191.5,-0.5 Z"/></g>
<g><path style="opacity:1" fill="#84afb4" d="M 288.5,-0.5 C 298.833,-0.5 309.167,-0.5 319.5,-0.5C 320.469,0.309426 321.302,1.30943 322,2.5C 322.5,38.4985 322.667,74.4985 322.5,110.5C 311.5,110.5 300.5,110.5 289.5,110.5C 289.167,110.5 288.833,110.5 288.5,110.5C 288.5,73.5 288.5,36.5 288.5,-0.5 Z"/></g>
<g><path style="opacity:1" fill="#fdd34a" d="M 272.5,110.5 C 261.167,110.5 249.833,110.5 238.5,110.5C 238.333,97.1625 238.5,83.8292 239,70.5C 239.5,68.6667 240.667,67.5 242.5,67C 251.167,66.3333 259.833,66.3333 268.5,67C 270.333,67.5 271.5,68.6667 272,70.5C 272.5,83.8292 272.667,97.1625 272.5,110.5 Z"/></g>
<g><path style="opacity:0.998" fill="#dbf2f3" d="M 188.5,110.5 C 205.167,110.5 221.833,110.5 238.5,110.5C 249.833,110.5 261.167,110.5 272.5,110.5C 277.833,110.5 283.167,110.5 288.5,110.5C 288.833,110.5 289.167,110.5 289.5,110.5C 332.478,113.589 360.978,135.589 375,176.5C 376.546,181.73 377.38,187.063 377.5,192.5C 369.16,192.334 360.827,192.5 352.5,193C 347.188,197.572 347.188,202.239 352.5,207C 360.827,207.5 369.16,207.666 377.5,207.5C 377.5,276.5 377.5,345.5 377.5,414.5C 314.499,414.333 251.499,414.5 188.5,415C 181.578,420.471 181.911,425.471 189.5,430C 251.832,430.5 314.166,430.667 376.5,430.5C 371.309,453.353 356.976,465.353 333.5,466.5C 269.998,466.168 206.664,466.501 143.5,467.5C 120.223,465.384 105.723,453.051 100,430.5C 99.5,356.167 99.3333,281.834 99.5,207.5C 173.834,207.667 248.167,207.5 322.5,207C 328.508,202.658 328.841,197.991 323.5,193C 248.834,192.5 174.167,192.333 99.5,192.5C 103.801,157.043 122.135,131.876 154.5,117C 165.418,112.603 176.751,110.437 188.5,110.5 Z"/></g>
<g><path style="opacity:1" fill="#b0cdcf" d="M 289.5,110.5 C 300.5,110.5 311.5,110.5 322.5,110.5C 357.209,111.593 383.376,126.927 401,156.5C 406.345,166.534 409.678,177.201 411,188.5C 411.667,269.167 411.667,349.833 411,430.5C 405.277,453.051 390.777,465.384 367.5,467.5C 356.167,467.5 344.833,467.5 333.5,467.5C 333.5,467.167 333.5,466.833 333.5,466.5C 356.976,465.353 371.309,453.353 376.5,430.5C 314.166,430.667 251.832,430.5 189.5,430C 181.911,425.471 181.578,420.471 188.5,415C 251.499,414.5 314.499,414.333 377.5,414.5C 377.5,345.5 377.5,276.5 377.5,207.5C 369.16,207.666 360.827,207.5 352.5,207C 347.188,202.239 347.188,197.572 352.5,193C 360.827,192.5 369.16,192.334 377.5,192.5C 377.38,187.063 376.546,181.73 375,176.5C 360.978,135.589 332.478,113.589 289.5,110.5 Z"/></g>
<g><path style="opacity:1" fill="#b0cdcf" d="M 99.5,192.5 C 174.167,192.333 248.834,192.5 323.5,193C 328.841,197.991 328.508,202.658 322.5,207C 248.167,207.5 173.834,207.667 99.5,207.5C 99.5,202.5 99.5,197.5 99.5,192.5 Z"/></g>
<g><path style="opacity:1" fill="#f26d2e" d="M 245.5,376.5 C 262.426,370.735 272.926,359.069 277,341.5C 279.029,311.593 270.862,284.926 252.5,261.5C 252.209,255.389 254.876,251.389 260.5,249.5C 262.266,250.091 263.933,250.924 265.5,252C 293.829,280.118 303.996,313.618 296,352.5C 284.549,372.313 267.716,380.313 245.5,376.5 Z"/></g>
<g><path style="opacity:1" fill="#fd8a46" d="M 252.5,261.5 C 270.862,284.926 279.029,311.593 277,341.5C 272.926,359.069 262.426,370.735 245.5,376.5C 222.021,369.099 210.355,352.932 210.5,328C 211.089,310.351 216.422,294.351 226.5,280C 228.5,279.333 230.5,279.333 232.5,280C 234.333,281.833 236.167,283.667 238,285.5C 244.142,278.202 248.976,270.202 252.5,261.5 Z"/></g>
<g><path style="opacity:1" fill="#b1ced0" d="M 130.5,414.5 C 140.247,414.08 149.914,414.58 159.5,416C 162.394,418.909 163.227,422.409 162,426.5C 160.681,428.487 158.848,429.654 156.5,430C 147.833,430.667 139.167,430.667 130.5,430C 125.465,426.987 124.298,422.82 127,417.5C 128.518,416.837 129.685,415.837 130.5,414.5 Z"/></g>
<g><path style="opacity:0.996" fill="#a8d3d6" d="M 333.5,466.5 C 333.5,466.833 333.5,467.167 333.5,467.5C 333.5,482.167 333.5,496.833 333.5,511.5C 271.167,511.5 208.833,511.5 146.5,511.5C 145.496,510.317 144.662,508.984 144,507.5C 143.5,494.171 143.333,480.837 143.5,467.5C 206.664,466.501 269.998,466.168 333.5,466.5 Z"/></g>
<g><path style="opacity:1" fill="#84afb4" d="M 333.5,467.5 C 344.833,467.5 356.167,467.5 367.5,467.5C 367.667,480.837 367.5,494.171 367,507.5C 366.338,508.984 365.504,510.317 364.5,511.5C 354.167,511.5 343.833,511.5 333.5,511.5C 333.5,496.833 333.5,482.167 333.5,467.5 Z"/></g>
</svg>
