<?xml version="1.0" encoding="UTF-8"?>
<!DOCTYPE svg PUBLIC "-//W3C//DTD SVG 1.1//EN" "http://www.w3.org/Graphics/SVG/1.1/DTD/svg11.dtd">
<svg xmlns="http://www.w3.org/2000/svg" version="1.1" width="512px" height="512px" style="shape-rendering:geometricPrecision; text-rendering:geometricPrecision; image-rendering:optimizeQuality; fill-rule:evenodd; clip-rule:evenodd" xmlns:xlink="http://www.w3.org/1999/xlink">
<g><path style="opacity:1" fill="#ec625e" d="M 75.5,35.5 C 49.7192,71.2743 38.2192,111.274 41,155.5C 138.902,214.572 203.568,299.238 235,409.5C 250.02,444.845 276.52,465.678 314.5,472C 340.816,476.408 367.15,476.574 393.5,472.5C 348.486,487.525 302.82,489.358 256.5,478C 231.615,469.776 212.782,454.276 200,431.5C 192.067,408.369 183.734,385.369 175,362.5C 156.916,320.653 132.75,282.986 102.5,249.5C 84.7598,228.427 64.7598,209.76 42.5,193.5C 30.5265,184.175 17.8599,175.842 4.5,168.5C 2.83333,167.167 1.16667,165.833 -0.5,164.5C -0.5,156.5 -0.5,148.5 -0.5,140.5C 3.86604,98.2736 19.866,61.107 47.5,29C 58.8036,22.9934 68.1369,25.1601 75.5,35.5 Z"/></g>
<g><path style="opacity:0.998" fill="#f77b67" d="M 75.5,35.5 C 78.9957,39.172 81.9957,43.172 84.5,47.5C 117.035,91.1918 144.535,138.192 167,188.5C 182.02,226.542 198.686,263.875 217,300.5C 228.894,322.763 244.06,342.596 262.5,360C 282.014,375.89 304.347,382.39 329.5,379.5C 341.743,376.938 353.743,373.438 365.5,369C 373.336,365.917 380.67,362.084 387.5,357.5C 396.113,352.182 405.446,350.349 415.5,352C 444.373,360.439 472.373,371.106 499.5,384C 505.263,388.256 509.263,393.756 511.5,400.5C 511.5,405.833 511.5,411.167 511.5,416.5C 508.138,427.031 501.138,434.198 490.5,438C 459.115,452.184 426.782,463.684 393.5,472.5C 367.15,476.574 340.816,476.408 314.5,472C 276.52,465.678 250.02,444.845 235,409.5C 203.568,299.238 138.902,214.572 41,155.5C 38.2192,111.274 49.7192,71.2743 75.5,35.5 Z"/></g>
<g><path style="opacity:1" fill="#df4854" d="M 84.5,47.5 C 96.8443,61.0157 108.678,75.0157 120,89.5C 161.413,143.101 198.246,199.768 230.5,259.5C 239.233,294.704 256.566,324.87 282.5,350C 297.138,362.157 313.471,371.49 331.5,378C 330.584,378.278 329.918,378.778 329.5,379.5C 304.347,382.39 282.014,375.89 262.5,360C 244.06,342.596 228.894,322.763 217,300.5C 198.686,263.875 182.02,226.542 167,188.5C 144.535,138.192 117.035,91.1918 84.5,47.5 Z"/></g>
<g><path style="opacity:0.999" fill="#ffd064" d="M 4.5,168.5 C 17.8599,175.842 30.5265,184.175 42.5,193.5C 51.0457,287.297 60.2124,381.297 70,475.5C 71.2734,478.597 73.1067,481.264 75.5,483.5C 65.7587,487.412 58.9254,484.412 55,474.5C 37.8403,372.542 21.007,270.542 4.5,168.5 Z"/></g>
<g><path style="opacity:0.991" fill="#fedf7c" d="M 42.5,193.5 C 64.7598,209.76 84.7598,228.427 102.5,249.5C 84.2291,274.138 74.5624,301.972 73.5,333C 76.7383,378.669 80.0716,424.336 83.5,470C 83.7351,476.382 81.0684,480.882 75.5,483.5C 73.1067,481.264 71.2734,478.597 70,475.5C 60.2124,381.297 51.0457,287.297 42.5,193.5 Z"/></g>
<g><path style="opacity:0.981" fill="#eb615d" d="M 230.5,259.5 C 242.028,283.021 257.361,303.855 276.5,322C 308.676,348.335 345.676,360.168 387.5,357.5C 380.67,362.084 373.336,365.917 365.5,369C 353.743,373.438 341.743,376.938 329.5,379.5C 329.918,378.778 330.584,378.278 331.5,378C 313.471,371.49 297.138,362.157 282.5,350C 256.566,324.87 239.233,294.704 230.5,259.5 Z"/></g>
</svg>
