<?xml version="1.0" encoding="UTF-8"?>
<!DOCTYPE svg PUBLIC "-//W3C//DTD SVG 1.1//EN" "http://www.w3.org/Graphics/SVG/1.1/DTD/svg11.dtd">
<svg xmlns="http://www.w3.org/2000/svg" version="1.1" width="512px" height="512px" style="shape-rendering:geometricPrecision; text-rendering:geometricPrecision; image-rendering:optimizeQuality; fill-rule:evenodd; clip-rule:evenodd" xmlns:xlink="http://www.w3.org/1999/xlink">
<g><path style="opacity:0.991" fill="#f37059" d="M 246.5,-0.5 C 252.167,-0.5 257.833,-0.5 263.5,-0.5C 268.02,1.09328 272.353,3.25995 276.5,6C 311.368,41.0348 346.368,75.8681 381.5,110.5C 400.803,131.47 420.803,151.804 441.5,171.5C 462.799,192.298 483.965,213.298 505,234.5C 507.74,238.647 509.907,242.98 511.5,247.5C 511.5,252.833 511.5,258.167 511.5,263.5C 506.831,280.317 495.665,289.317 478,290.5C 472.59,289.946 467.423,288.613 462.5,286.5C 459.402,284.584 456.402,282.417 453.5,280C 387.653,213.986 321.653,148.153 255.5,82.5C 189.347,148.153 123.347,213.986 57.5,280C 53.3049,283.598 48.6382,286.431 43.5,288.5C 21.8803,293.027 7.21366,285.027 -0.5,264.5C -0.5,258.833 -0.5,253.167 -0.5,247.5C 1.09328,242.98 3.25995,238.647 6,234.5C 81.4725,158.027 157.306,81.8607 233.5,6C 237.647,3.25995 241.98,1.09328 246.5,-0.5 Z"/></g>
<g><path style="opacity:0.987" fill="#f26f59" d="M 441.5,76.5 C 421.5,76.5 401.5,76.5 381.5,76.5C 374.167,76.5 366.833,76.5 359.5,76.5C 359.5,57.8333 359.5,39.1667 359.5,20.5C 394.167,20.5 428.833,20.5 463.5,20.5C 463.5,39.1667 463.5,57.8333 463.5,76.5C 456.167,76.5 448.833,76.5 441.5,76.5 Z"/></g>
<g><path style="opacity:0.982" fill="#f05540" d="M 381.5,76.5 C 401.5,76.5 421.5,76.5 441.5,76.5C 441.5,108.167 441.5,139.833 441.5,171.5C 420.803,151.804 400.803,131.47 381.5,110.5C 381.5,99.1667 381.5,87.8333 381.5,76.5 Z"/></g>
<g><path style="opacity:1" fill="#f7b64c" d="M 462.5,286.5 C 462.5,298.833 462.5,311.167 462.5,323.5C 392.854,254.188 323.188,184.854 253.5,115.5C 184.014,184.486 114.68,253.653 45.5,323C 44.9056,323.464 44.2389,323.631 43.5,323.5C 43.5,311.833 43.5,300.167 43.5,288.5C 48.6382,286.431 53.3049,283.598 57.5,280C 123.347,213.986 189.347,148.153 255.5,82.5C 321.653,148.153 387.653,213.986 453.5,280C 456.402,282.417 459.402,284.584 462.5,286.5 Z"/></g>
<g><path style="opacity:0.998" fill="#fed05c" d="M 462.5,323.5 C 462.5,386.167 462.5,448.833 462.5,511.5C 380.167,511.5 297.833,511.5 215.5,511.5C 215.667,466.499 215.5,421.499 215,376.5C 208.864,349.031 192.031,332.197 164.5,326C 129.954,322.349 106.121,336.516 93,368.5C 92.2057,371.471 91.539,374.471 91,377.5C 90.5,422.165 90.3333,466.832 90.5,511.5C 74.8333,511.5 59.1667,511.5 43.5,511.5C 43.5,448.833 43.5,386.167 43.5,323.5C 44.2389,323.631 44.9056,323.464 45.5,323C 114.68,253.653 184.014,184.486 253.5,115.5C 323.188,184.854 392.854,254.188 462.5,323.5 Z"/></g>
<g><path style="opacity:1" fill="#415a6a" d="M 215.5,511.5 C 173.833,511.5 132.167,511.5 90.5,511.5C 90.3333,466.832 90.5,422.165 91,377.5C 91.539,374.471 92.2057,371.471 93,368.5C 106.121,336.516 129.954,322.349 164.5,326C 192.031,332.197 208.864,349.031 215,376.5C 215.5,421.499 215.667,466.499 215.5,511.5 Z"/></g>
<g><path style="opacity:1" fill="#354b5e" d="M 253.5,324.5 C 308.167,324.5 362.833,324.5 417.5,324.5C 417.5,372.5 417.5,420.5 417.5,468.5C 362.833,468.5 308.167,468.5 253.5,468.5C 253.5,420.5 253.5,372.5 253.5,324.5 Z"/></g>
<g><path style="opacity:1" fill="#8ad7f7" d="M 270.5,342.5 C 289.167,342.5 307.833,342.5 326.5,342.5C 326.5,378.833 326.5,415.167 326.5,451.5C 307.833,451.5 289.167,451.5 270.5,451.5C 270.5,415.167 270.5,378.833 270.5,342.5 Z"/></g>
<g><path style="opacity:1" fill="#5e90aa" d="M 270.5,342.5 C 289.326,341.503 308.326,341.17 327.5,341.5C 327.832,378.337 327.498,415.004 326.5,451.5C 326.5,415.167 326.5,378.833 326.5,342.5C 307.833,342.5 289.167,342.5 270.5,342.5 Z"/></g>
<g><path style="opacity:1" fill="#5e90aa" d="M 400.5,342.5 C 381.833,342.5 363.167,342.5 344.5,342.5C 344.5,378.833 344.5,415.167 344.5,451.5C 343.502,415.004 343.168,378.337 343.5,341.5C 362.674,341.17 381.674,341.503 400.5,342.5 Z"/></g>
<g><path style="opacity:1" fill="#8ad7f7" d="M 400.5,342.5 C 400.5,378.833 400.5,415.167 400.5,451.5C 381.833,451.5 363.167,451.5 344.5,451.5C 344.5,415.167 344.5,378.833 344.5,342.5C 363.167,342.5 381.833,342.5 400.5,342.5 Z"/></g>
</svg>
