<?xml version="1.0" encoding="UTF-8"?>
<!DOCTYPE svg PUBLIC "-//W3C//DTD SVG 1.1//EN" "http://www.w3.org/Graphics/SVG/1.1/DTD/svg11.dtd">
<svg xmlns="http://www.w3.org/2000/svg" version="1.1" width="512px" height="512px" style="shape-rendering:geometricPrecision; text-rendering:geometricPrecision; image-rendering:optimizeQuality; fill-rule:evenodd; clip-rule:evenodd" xmlns:xlink="http://www.w3.org/1999/xlink">
<g><path style="opacity:0.979" fill="#5e5461" d="M 139.5,-0.5 C 216.833,-0.5 294.167,-0.5 371.5,-0.5C 384.771,4.27618 392.937,13.6095 396,27.5C 396.667,179.5 396.667,331.5 396,483.5C 395.559,488 394.059,492 391.5,495.5C 308.998,495.833 226.665,495.499 144.5,494.5C 219.167,494.667 293.834,494.5 368.5,494C 373.731,491.768 377.231,487.935 379,482.5C 379.667,331.167 379.667,179.833 379,28.5C 377.257,23.0896 373.757,19.2563 368.5,17C 352.167,16.3333 335.833,16.3333 319.5,17C 314.5,19.3333 310.833,23 308.5,28C 306.33,29.5862 303.996,30.9196 301.5,32C 270.833,32.6667 240.167,32.6667 209.5,32C 204.606,30.314 201.106,27.1474 199,22.5C 197.457,20.6217 195.624,19.1217 193.5,18C 184.571,16.8752 175.571,16.3752 166.5,16.5C 158.5,16.6667 150.5,16.8333 142.5,17C 137.226,19.4373 133.56,23.2706 131.5,28.5C 131.5,20.1667 131.5,11.8333 131.5,3.5C 134.232,2.134 136.899,0.800671 139.5,-0.5 Z"/></g>
<g><path style="opacity:0.998" fill="#4b3e4d" d="M 131.5,3.5 C 131.5,11.8333 131.5,20.1667 131.5,28.5C 131.333,179.834 131.5,331.167 132,482.5C 134.079,488.747 138.246,492.747 144.5,494.5C 226.665,495.499 308.998,495.833 391.5,495.5C 386.879,503.461 380.212,508.794 371.5,511.5C 294.167,511.5 216.833,511.5 139.5,511.5C 126.201,506.699 118.035,497.366 115,483.5C 114.333,331.5 114.333,179.5 115,27.5C 116.789,16.9134 122.289,8.9134 131.5,3.5 Z"/></g>
<g><path style="opacity:1" fill="#ebe9eb" d="M 144.5,494.5 C 138.246,492.747 134.079,488.747 132,482.5C 131.5,331.167 131.333,179.834 131.5,28.5C 133.56,23.2706 137.226,19.4373 142.5,17C 150.5,16.8333 158.5,16.6667 166.5,16.5C 175.571,16.3752 184.571,16.8752 193.5,18C 195.624,19.1217 197.457,20.6217 199,22.5C 201.106,27.1474 204.606,30.314 209.5,32C 240.167,32.6667 270.833,32.6667 301.5,32C 303.996,30.9196 306.33,29.5862 308.5,28C 310.833,23 314.5,19.3333 319.5,17C 335.833,16.3333 352.167,16.3333 368.5,17C 373.757,19.2563 377.257,23.0896 379,28.5C 379.667,179.833 379.667,331.167 379,482.5C 377.231,487.935 373.731,491.768 368.5,494C 293.834,494.5 219.167,494.667 144.5,494.5 Z"/></g>
<g><path style="opacity:1" fill="#fefefe" d="M 300.5,477.5 C 304.314,474.848 305.481,471.181 304,466.5C 302.891,464.185 301.057,462.685 298.5,462C 269.5,461.333 240.5,461.333 211.5,462C 206.845,464.897 205.345,469.063 207,474.5C 208.039,475.71 209.206,476.71 210.5,477.5C 198.674,478.66 186.674,478.826 174.5,478C 161.762,474.262 153.262,466.096 149,453.5C 148.333,327.5 148.333,201.5 149,75.5C 151.958,62.5407 159.791,54.0407 172.5,50C 227.167,49.3333 281.833,49.3333 336.5,50C 350.333,53.1667 358.833,61.6667 362,75.5C 362.667,201.5 362.667,327.5 362,453.5C 357.738,466.096 349.238,474.262 336.5,478C 324.326,478.826 312.326,478.66 300.5,477.5 Z"/></g>
<g><path style="opacity:1" fill="#96d6a4" d="M 177.5,74.5 C 178.833,74.5 180.167,74.5 181.5,74.5C 181.333,98.169 181.5,121.836 182,145.5C 184.167,150.333 187.667,153.833 192.5,156C 210.497,156.5 228.497,156.667 246.5,156.5C 246.5,157.5 246.5,158.5 246.5,159.5C 245.506,165.995 241.839,170.162 235.5,172C 215.5,172.667 195.5,172.667 175.5,172C 170.269,169.768 166.769,165.935 165,160.5C 164.333,135.5 164.333,110.5 165,85.5C 167.507,79.8189 171.674,76.1522 177.5,74.5 Z"/></g>
<g><path style="opacity:1" fill="#b3e5a0" d="M 177.5,74.5 C 195.995,73.3378 214.662,73.1712 233.5,74C 240.262,75.7633 244.762,79.9299 247,86.5C 247.83,111.003 247.663,135.337 246.5,159.5C 246.5,158.5 246.5,157.5 246.5,156.5C 228.497,156.667 210.497,156.5 192.5,156C 187.667,153.833 184.167,150.333 182,145.5C 181.5,121.836 181.333,98.169 181.5,74.5C 180.167,74.5 178.833,74.5 177.5,74.5 Z"/></g>
<g><path style="opacity:1" fill="#ffd065" d="M 276.5,74.5 C 277.833,74.5 279.167,74.5 280.5,74.5C 280.333,97.8357 280.5,121.169 281,144.5C 282.833,150.333 286.667,154.167 292.5,156C 310.164,156.5 327.83,156.667 345.5,156.5C 345.5,157.5 345.5,158.5 345.5,159.5C 344.506,165.995 340.839,170.162 334.5,172C 314.5,172.667 294.5,172.667 274.5,172C 269.269,169.768 265.769,165.935 264,160.5C 263.333,135.833 263.333,111.167 264,86.5C 266.088,80.2434 270.255,76.2434 276.5,74.5 Z"/></g>
<g><path style="opacity:1" fill="#ffe07d" d="M 276.5,74.5 C 294.995,73.3378 313.662,73.1712 332.5,74C 339.237,75.7361 343.737,79.9028 346,86.5C 346.83,111.003 346.663,135.337 345.5,159.5C 345.5,158.5 345.5,157.5 345.5,156.5C 327.83,156.667 310.164,156.5 292.5,156C 286.667,154.167 282.833,150.333 281,144.5C 280.5,121.169 280.333,97.8357 280.5,74.5C 279.167,74.5 277.833,74.5 276.5,74.5 Z"/></g>
<g><path style="opacity:1" fill="#fdfefc" d="M 195.5,110.5 C 203.279,110.068 210.946,110.568 218.5,112C 220.049,113.214 221.215,114.714 222,116.5C 222.839,121.921 222.506,127.254 221,132.5C 220.097,133.701 218.931,134.535 217.5,135C 209.063,135.937 200.73,135.604 192.5,134C 191.299,133.097 190.465,131.931 190,130.5C 189.333,125.5 189.333,120.5 190,115.5C 191.73,113.598 193.563,111.931 195.5,110.5 Z"/></g>
<g><path style="opacity:1" fill="#d6beef" d="M 177.5,206.5 C 178.833,206.5 180.167,206.5 181.5,206.5C 181.333,230.169 181.5,253.836 182,277.5C 184.365,283.202 188.531,286.702 194.5,288C 211.83,288.5 229.163,288.667 246.5,288.5C 246.5,289.5 246.5,290.5 246.5,291.5C 245.095,298.74 240.762,303.24 233.5,305C 214.833,305.667 196.167,305.667 177.5,305C 171.333,302.833 167.167,298.667 165,292.5C 164.333,267.833 164.333,243.167 165,218.5C 167.053,212.28 171.22,208.28 177.5,206.5 Z"/></g>
<g><path style="opacity:1" fill="#ead1fe" d="M 177.5,206.5 C 195.662,205.338 213.995,205.171 232.5,206C 239.815,207.316 244.648,211.483 247,218.5C 247.83,243.003 247.663,267.337 246.5,291.5C 246.5,290.5 246.5,289.5 246.5,288.5C 229.163,288.667 211.83,288.5 194.5,288C 188.531,286.702 184.365,283.202 182,277.5C 181.5,253.836 181.333,230.169 181.5,206.5C 180.167,206.5 178.833,206.5 177.5,206.5 Z"/></g>
<g><path style="opacity:1" fill="#a6cdff" d="M 276.5,206.5 C 277.833,206.5 279.167,206.5 280.5,206.5C 280.333,230.169 280.5,253.836 281,277.5C 283.167,282.333 286.667,285.833 291.5,288C 309.497,288.5 327.497,288.667 345.5,288.5C 345.5,290.167 345.5,291.833 345.5,293.5C 343.223,299.608 338.89,303.441 332.5,305C 313.833,305.667 295.167,305.667 276.5,305C 270.333,302.833 266.167,298.667 264,292.5C 263.333,267.833 263.333,243.167 264,218.5C 266.053,212.28 270.22,208.28 276.5,206.5 Z"/></g>
<g><path style="opacity:1" fill="#c3ddff" d="M 276.5,206.5 C 295.329,205.338 314.329,205.171 333.5,206C 339.693,208.193 343.859,212.359 346,218.5C 346.83,243.67 346.663,268.67 345.5,293.5C 345.5,291.833 345.5,290.167 345.5,288.5C 327.497,288.667 309.497,288.5 291.5,288C 286.667,285.833 283.167,282.333 281,277.5C 280.5,253.836 280.333,230.169 280.5,206.5C 279.167,206.5 277.833,206.5 276.5,206.5 Z"/></g>
<g><path style="opacity:1" fill="#fdfdff" d="M 298.5,230.5 C 304.952,230.084 311.285,230.584 317.5,232C 323.157,237.736 322.491,242.736 315.5,247C 309.056,247.915 302.723,247.581 296.5,246C 290.859,240.036 291.526,234.869 298.5,230.5 Z"/></g>
<g><path style="opacity:1" fill="#fdfdff" d="M 298.5,263.5 C 304.952,263.084 311.285,263.584 317.5,265C 323.157,270.736 322.491,275.736 315.5,280C 309.056,280.915 302.723,280.581 296.5,279C 290.859,273.036 291.526,267.869 298.5,263.5 Z"/></g>
<g><path style="opacity:1" fill="#ff8287" d="M 181.5,338.5 C 181.333,361.836 181.5,385.169 182,408.5C 183.743,413.91 187.243,417.744 192.5,420C 210.497,420.5 228.497,420.667 246.5,420.5C 246.5,421.5 246.5,422.5 246.5,423.5C 245.195,430.309 241.195,434.809 234.5,437C 215.5,437.667 196.5,437.667 177.5,437C 171.333,434.833 167.167,430.667 165,424.5C 164.333,399.833 164.333,375.167 165,350.5C 167.565,342.431 173.065,338.431 181.5,338.5 Z"/></g>
<g><path style="opacity:1" fill="#ff9a9f" d="M 181.5,338.5 C 199.503,338.333 217.503,338.5 235.5,339C 241.307,340.807 245.141,344.64 247,350.5C 247.83,375.003 247.663,399.337 246.5,423.5C 246.5,422.5 246.5,421.5 246.5,420.5C 228.497,420.667 210.497,420.5 192.5,420C 187.243,417.744 183.743,413.91 182,408.5C 181.5,385.169 181.333,361.836 181.5,338.5 Z"/></g>
<g><path style="opacity:1" fill="#d19b70" d="M 280.5,338.5 C 280.333,362.169 280.5,385.836 281,409.5C 283.167,414.333 286.667,417.833 291.5,420C 309.497,420.5 327.497,420.667 345.5,420.5C 345.5,421.5 345.5,422.5 345.5,423.5C 344.223,430.284 340.223,434.784 333.5,437C 314.5,437.667 295.5,437.667 276.5,437C 270.359,434.859 266.193,430.693 264,424.5C 263.333,399.833 263.333,375.167 264,350.5C 266.59,342.4 272.09,338.4 280.5,338.5 Z"/></g>
<g><path style="opacity:1" fill="#e2a975" d="M 280.5,338.5 C 298.503,338.333 316.503,338.5 334.5,339C 340.333,340.833 344.167,344.667 346,350.5C 346.83,375.003 346.663,399.337 345.5,423.5C 345.5,422.5 345.5,421.5 345.5,420.5C 327.497,420.667 309.497,420.5 291.5,420C 286.667,417.833 283.167,414.333 281,409.5C 280.5,385.836 280.333,362.169 280.5,338.5 Z"/></g>
<g><path style="opacity:1" fill="#fffcfc" d="M 194.5,375.5 C 202.943,375.062 211.277,375.562 219.5,377C 220.701,377.903 221.535,379.069 222,380.5C 222.839,385.921 222.506,391.254 221,396.5C 219.786,398.049 218.286,399.215 216.5,400C 208.728,400.931 201.061,400.598 193.5,399C 190.09,395.954 188.756,392.121 189.5,387.5C 188.478,382.227 190.145,378.227 194.5,375.5 Z"/></g>
<g><path style="opacity:1" fill="#c9c6ca" d="M 300.5,477.5 C 270.47,478.826 240.47,478.826 210.5,477.5C 209.206,476.71 208.039,475.71 207,474.5C 205.345,469.063 206.845,464.897 211.5,462C 240.5,461.333 269.5,461.333 298.5,462C 301.057,462.685 302.891,464.185 304,466.5C 305.481,471.181 304.314,474.848 300.5,477.5 Z"/></g>
</svg>
