<?xml version="1.0" encoding="UTF-8"?>
<!DOCTYPE svg PUBLIC "-//W3C//DTD SVG 1.1//EN" "http://www.w3.org/Graphics/SVG/1.1/DTD/svg11.dtd">
<svg xmlns="http://www.w3.org/2000/svg" version="1.1" width="512px" height="512px" style="shape-rendering:geometricPrecision; text-rendering:geometricPrecision; image-rendering:optimizeQuality; fill-rule:evenodd; clip-rule:evenodd" xmlns:xlink="http://www.w3.org/1999/xlink">
<g><path style="opacity:0.998" fill="#365e7c" d="M 511.5,154.5 C 511.5,159.167 511.5,163.833 511.5,168.5C 508.377,176.455 502.71,181.955 494.5,185C 465.472,196.681 436.139,207.515 406.5,217.5C 400.029,219.102 393.696,221.102 387.5,223.5C 387.957,218.579 385.957,215.079 381.5,213C 340.833,193.667 300.167,174.333 259.5,155C 252.75,152.766 248.75,155.099 247.5,162C 248.03,164.207 249.03,166.207 250.5,168C 290.5,187 330.5,206 370.5,225C 371.38,226.356 371.714,227.856 371.5,229.5C 341.238,238.817 310.905,247.983 280.5,257C 277.833,257.667 275.167,257.667 272.5,257C 190.646,233.938 109.979,207.271 30.5,177C 17.6953,172.216 11.862,163.049 13,149.5C 14.3194,145.528 16.1528,141.861 18.5,138.5C 90.9759,109.285 164.976,84.1182 240.5,63C 250.5,61 260.5,61 270.5,63C 346.822,84.5515 421.822,109.885 495.5,139C 503.376,141.711 508.709,146.878 511.5,154.5 Z"/></g>
<g><path style="opacity:0.998" fill="#2b4d66" d="M 18.5,138.5 C 16.1528,141.861 14.3194,145.528 13,149.5C 11.862,163.049 17.6953,172.216 30.5,177C 109.979,207.271 190.646,233.938 272.5,257C 275.167,257.667 277.833,257.667 280.5,257C 310.905,247.983 341.238,238.817 371.5,229.5C 371.5,236.167 371.5,242.833 371.5,249.5C 337.275,260.297 302.942,270.797 268.5,281C 264.56,282.015 260.56,282.515 256.5,282.5C 256.169,312.005 256.502,341.338 257.5,370.5C 257.44,371.043 257.107,371.376 256.5,371.5C 206.922,358.141 158.589,341.308 111.5,321C 109.57,318.742 108.07,316.242 107,313.5C 106.667,281.833 106.333,250.167 106,218.5C 73.125,206.986 40.625,194.486 8.5,181C 4.1179,177.701 1.1179,173.534 -0.5,168.5C -0.5,163.833 -0.5,159.167 -0.5,154.5C 2.77295,145.676 9.10628,140.343 18.5,138.5 Z"/></g>
<g><path style="opacity:0.998" fill="#f1e380" d="M 387.5,223.5 C 387.5,230.167 387.5,236.833 387.5,243.5C 387.5,271.5 387.5,299.5 387.5,327.5C 387.5,340.833 387.5,354.167 387.5,367.5C 382.167,367.5 376.833,367.5 371.5,367.5C 371.5,356.167 371.5,344.833 371.5,333.5C 371.5,305.5 371.5,277.5 371.5,249.5C 371.5,242.833 371.5,236.167 371.5,229.5C 371.714,227.856 371.38,226.356 370.5,225C 330.5,206 290.5,187 250.5,168C 249.03,166.207 248.03,164.207 247.5,162C 248.75,155.099 252.75,152.766 259.5,155C 300.167,174.333 340.833,193.667 381.5,213C 385.957,215.079 387.957,218.579 387.5,223.5 Z"/></g>
<g><path style="opacity:1" fill="#2b4d66" d="M 406.5,217.5 C 406.5,224.167 406.5,230.833 406.5,237.5C 400.167,239.5 393.833,241.5 387.5,243.5C 387.5,236.833 387.5,230.167 387.5,223.5C 393.696,221.102 400.029,219.102 406.5,217.5 Z"/></g>
<g><path style="opacity:0.995" fill="#355d7c" d="M 406.5,237.5 C 406.667,262.836 406.5,288.169 406,313.5C 404.93,316.242 403.43,318.742 401.5,321C 396.927,323.454 392.261,325.621 387.5,327.5C 387.5,299.5 387.5,271.5 387.5,243.5C 393.833,241.5 400.167,239.5 406.5,237.5 Z"/></g>
<g><path style="opacity:0.998" fill="#355d7c" d="M 371.5,249.5 C 371.5,277.5 371.5,305.5 371.5,333.5C 334.425,348.604 296.425,360.937 257.5,370.5C 256.502,341.338 256.169,312.005 256.5,282.5C 260.56,282.515 264.56,282.015 268.5,281C 302.942,270.797 337.275,260.297 371.5,249.5 Z"/></g>
<g><path style="opacity:1" fill="#f1cb85" d="M 371.5,367.5 C 376.833,367.5 382.167,367.5 387.5,367.5C 388.167,367.5 388.5,367.833 388.5,368.5C 379.029,372.478 372.862,379.478 370,389.5C 369.5,409.497 369.333,429.497 369.5,449.5C 363.167,449.5 356.833,449.5 350.5,449.5C 350.071,428.46 350.571,407.46 352,386.5C 355.389,376.944 361.889,370.611 371.5,367.5 Z"/></g>
<g><path style="opacity:0.996" fill="#f5e681" d="M 388.5,368.5 C 397.745,371.244 403.912,377.244 407,386.5C 408.429,407.46 408.929,428.46 408.5,449.5C 395.5,449.5 382.5,449.5 369.5,449.5C 369.333,429.497 369.5,409.497 370,389.5C 372.862,379.478 379.029,372.478 388.5,368.5 Z"/></g>
</svg>
