<?xml version="1.0" encoding="UTF-8"?>
<!DOCTYPE svg PUBLIC "-//W3C//DTD SVG 1.1//EN" "http://www.w3.org/Graphics/SVG/1.1/DTD/svg11.dtd">
<svg xmlns="http://www.w3.org/2000/svg" version="1.1" width="512px" height="512px" style="shape-rendering:geometricPrecision; text-rendering:geometricPrecision; image-rendering:optimizeQuality; fill-rule:evenodd; clip-rule:evenodd" xmlns:xlink="http://www.w3.org/1999/xlink">
<g><path style="opacity:1" fill="#26a6fe" d="M 466.5,-0.5 C 472.5,-0.5 478.5,-0.5 484.5,-0.5C 497.833,4.16667 506.833,13.1667 511.5,26.5C 511.5,144.5 511.5,262.5 511.5,380.5C 502.426,426.074 475.093,453.574 429.5,463C 400.896,466.688 375.563,459.521 353.5,441.5C 401.972,448.015 437.806,430.015 461,387.5C 465.753,377.327 468.753,366.66 470,355.5C 470.667,240.167 470.667,124.833 470,9.5C 469.264,5.9297 468.097,2.59636 466.5,-0.5 Z"/></g>
<g><path style="opacity:0.995" fill="#5fb6ff" d="M 465.5,-0.5 C 465.833,-0.5 466.167,-0.5 466.5,-0.5C 468.097,2.59636 469.264,5.9297 470,9.5C 470.667,124.833 470.667,240.167 470,355.5C 468.753,366.66 465.753,377.327 461,387.5C 437.806,430.015 401.972,448.015 353.5,441.5C 322.905,413.818 312.738,379.818 323,339.5C 341.583,290.625 377.083,268.125 429.5,272C 433.715,272.595 437.881,273.429 442,274.5C 443.711,274.561 445.044,273.894 446,272.5C 447.153,247.227 447.653,221.894 447.5,196.5C 447.644,170.461 447.144,144.461 446,118.5C 443.592,114.963 440.259,113.296 436,113.5C 357.484,123.21 278.984,133.044 200.5,143C 195.21,143.958 192.376,147.124 192,152.5C 191.985,246.53 191.319,340.53 190,434.5C 179.202,477.135 152.369,502.801 109.5,511.5C 100.167,511.5 90.8333,511.5 81.5,511.5C 36.5,501.833 9.16667,474.5 -0.5,429.5C -0.5,420.167 -0.5,410.833 -0.5,401.5C 8.98693,356.513 36.3203,329.347 81.5,320C 95.1453,318.802 108.645,319.636 122,322.5C 123.711,322.561 125.044,321.894 126,320.5C 127.325,235.557 127.992,150.557 128,65.5C 133.161,49.0044 144.328,39.8377 161.5,38C 263.02,25.477 364.353,12.6436 465.5,-0.5 Z"/></g>
</svg>
