<?xml version="1.0" encoding="UTF-8"?>
<!DOCTYPE svg PUBLIC "-//W3C//DTD SVG 1.1//EN" "http://www.w3.org/Graphics/SVG/1.1/DTD/svg11.dtd">
<svg xmlns="http://www.w3.org/2000/svg" version="1.1" width="512px" height="512px" style="shape-rendering:geometricPrecision; text-rendering:geometricPrecision; image-rendering:optimizeQuality; fill-rule:evenodd; clip-rule:evenodd" xmlns:xlink="http://www.w3.org/1999/xlink">
<g><path style="opacity:0.996" fill="#e8ba90" d="M 57.5,-0.5 C 113.167,-0.5 168.833,-0.5 224.5,-0.5C 220.84,40.0662 217.84,80.7329 215.5,121.5C 143.714,123.492 71.7137,124.158 -0.5,123.5C -0.5,122.833 -0.5,122.167 -0.5,121.5C 19.3451,81.1406 38.6784,40.4739 57.5,-0.5 Z"/></g>
<g><path style="opacity:1" fill="#8e6459" d="M 224.5,-0.5 C 245.167,-0.5 265.833,-0.5 286.5,-0.5C 290.16,40.0662 293.16,80.7329 295.5,121.5C 295.5,122.167 295.5,122.833 295.5,123.5C 268.833,123.5 242.167,123.5 215.5,123.5C 215.5,122.833 215.5,122.167 215.5,121.5C 217.84,80.7329 220.84,40.0662 224.5,-0.5 Z"/></g>
<g><path style="opacity:0.996" fill="#e8ba90" d="M 286.5,-0.5 C 342.167,-0.5 397.833,-0.5 453.5,-0.5C 472.322,40.4739 491.655,81.1406 511.5,121.5C 511.5,122.167 511.5,122.833 511.5,123.5C 439.286,124.158 367.286,123.492 295.5,121.5C 293.16,80.7329 290.16,40.0662 286.5,-0.5 Z"/></g>
<g><path style="opacity:1" fill="#c9926b" d="M 215.5,121.5 C 215.5,122.167 215.5,122.833 215.5,123.5C 215.5,159.5 215.5,195.5 215.5,231.5C 242.167,231.5 268.833,231.5 295.5,231.5C 295.5,195.5 295.5,159.5 295.5,123.5C 295.5,122.833 295.5,122.167 295.5,121.5C 367.286,123.492 439.286,124.158 511.5,123.5C 511.5,252.833 511.5,382.167 511.5,511.5C 439.833,511.5 368.167,511.5 296.5,511.5C 296.5,475.5 296.5,439.5 296.5,403.5C 269.167,403.5 241.833,403.5 214.5,403.5C 214.5,439.5 214.5,475.5 214.5,511.5C 142.833,511.5 71.1667,511.5 -0.5,511.5C -0.5,382.167 -0.5,252.833 -0.5,123.5C 71.7137,124.158 143.714,123.492 215.5,121.5 Z"/></g>
<g><path style="opacity:1" fill="#764f43" d="M 215.5,123.5 C 242.167,123.5 268.833,123.5 295.5,123.5C 295.5,159.5 295.5,195.5 295.5,231.5C 268.833,231.5 242.167,231.5 215.5,231.5C 215.5,195.5 215.5,159.5 215.5,123.5 Z"/></g>
<g><path style="opacity:1" fill="#e0cab7" d="M 472.5,177.5 C 472.167,177.5 471.833,177.5 471.5,177.5C 425.5,177.5 379.5,177.5 333.5,177.5C 333.5,213.167 333.5,248.833 333.5,284.5C 333.5,284.833 333.5,285.167 333.5,285.5C 332.502,249.337 332.168,213.004 332.5,176.5C 379.336,176.168 426.003,176.501 472.5,177.5 Z"/></g>
<g><path style="opacity:1" fill="#f4fefd" d="M 471.5,177.5 C 471.5,213.167 471.5,248.833 471.5,284.5C 425.5,284.5 379.5,284.5 333.5,284.5C 333.5,248.833 333.5,213.167 333.5,177.5C 379.5,177.5 425.5,177.5 471.5,177.5 Z"/></g>
<g><path style="opacity:1" fill="#785247" d="M 360.5,204.5 C 388.502,204.333 416.502,204.5 444.5,205C 450.616,207.321 452.116,211.488 449,217.5C 447.829,218.893 446.329,219.727 444.5,220C 416.5,220.667 388.5,220.667 360.5,220C 355.465,216.987 354.298,212.82 357,207.5C 358.518,206.837 359.685,205.837 360.5,204.5 Z"/></g>
<g><path style="opacity:1" fill="#764f43" d="M 359.5,242.5 C 388.502,242.333 417.502,242.5 446.5,243C 451.823,247.714 451.823,252.38 446.5,257C 417.5,257.667 388.5,257.667 359.5,257C 354.214,252.169 354.214,247.335 359.5,242.5 Z"/></g>
<g><path style="opacity:1" fill="#eeefea" d="M 471.5,177.5 C 471.833,177.5 472.167,177.5 472.5,177.5C 472.5,213.5 472.5,249.5 472.5,285.5C 426.167,285.5 379.833,285.5 333.5,285.5C 333.5,285.167 333.5,284.833 333.5,284.5C 379.5,284.5 425.5,284.5 471.5,284.5C 471.5,248.833 471.5,213.167 471.5,177.5 Z"/></g>
<g><path style="opacity:1" fill="#774f43" d="M 59.5,436.5 C 59.833,415.489 59.4997,394.489 58.5,373.5C 57.8933,373.624 57.56,373.957 57.5,374.5C 52.7021,378.797 48.0355,383.297 43.5,388C 35.3333,389.167 31.8333,385.667 33,377.5C 41.8029,367.696 50.9695,358.196 60.5,349C 64.5,345.667 68.5,345.667 72.5,349C 81.3333,357.833 90.1667,366.667 99,375.5C 102.215,384.58 99.0482,388.747 89.5,388C 84.6667,383.167 79.8333,378.333 75,373.5C 74.6667,394.5 74.3333,415.5 74,436.5C 72.1706,442.158 68.3373,443.992 62.5,442C 60.393,440.736 59.393,438.903 59.5,436.5 Z"/></g>
<g><path style="opacity:1" fill="#764f43" d="M 141.5,346.5 C 143.857,346.337 146.19,346.503 148.5,347C 158.333,356.833 168.167,366.667 178,376.5C 179.822,384.667 176.656,388.5 168.5,388C 163.032,383.533 157.865,378.7 153,373.5C 152.667,395.167 152.333,416.833 152,438.5C 150.607,441.366 148.274,442.699 145,442.5C 141.726,442.699 139.393,441.366 138,438.5C 137.667,416.833 137.333,395.167 137,373.5C 132.135,378.7 126.968,383.533 121.5,388C 112.828,388.664 109.661,384.831 112,376.5C 122.036,366.632 131.869,356.632 141.5,346.5 Z"/></g>
<g><path style="opacity:1" fill="#8b604d" d="M 57.5,374.5 C 57.56,373.957 57.8933,373.624 58.5,373.5C 59.4997,394.489 59.833,415.489 59.5,436.5C 58.8333,415.833 58.1667,395.167 57.5,374.5 Z"/></g>
<g><path style="opacity:1" fill="#ab7a5c" d="M 296.5,511.5 C 296.167,511.5 295.833,511.5 295.5,511.5C 295.5,475.833 295.5,440.167 295.5,404.5C 268.833,404.5 242.167,404.5 215.5,404.5C 215.5,440.167 215.5,475.833 215.5,511.5C 215.167,511.5 214.833,511.5 214.5,511.5C 214.5,475.5 214.5,439.5 214.5,403.5C 241.833,403.5 269.167,403.5 296.5,403.5C 296.5,439.5 296.5,475.5 296.5,511.5 Z"/></g>
<g><path style="opacity:1" fill="#754f42" d="M 295.5,511.5 C 268.833,511.5 242.167,511.5 215.5,511.5C 215.5,475.833 215.5,440.167 215.5,404.5C 242.167,404.5 268.833,404.5 295.5,404.5C 295.5,440.167 295.5,475.833 295.5,511.5 Z"/></g>
<g><path style="opacity:1" fill="#775043" d="M 37.5,454.5 C 82.8346,454.333 128.168,454.5 173.5,455C 178.535,458.013 179.702,462.18 177,467.5C 175.745,468.211 174.579,469.044 173.5,470C 128.5,470.667 83.5,470.667 38.5,470C 33.7762,467.565 32.2762,463.731 34,458.5C 35.3756,457.295 36.5423,455.962 37.5,454.5 Z"/></g>
</svg>
