<?xml version="1.0" encoding="UTF-8"?>
<!DOCTYPE svg PUBLIC "-//W3C//DTD SVG 1.1//EN" "http://www.w3.org/Graphics/SVG/1.1/DTD/svg11.dtd">
<svg xmlns="http://www.w3.org/2000/svg" version="1.1" width="512px" height="512px" style="shape-rendering:geometricPrecision; text-rendering:geometricPrecision; image-rendering:optimizeQuality; fill-rule:evenodd; clip-rule:evenodd" xmlns:xlink="http://www.w3.org/1999/xlink">
<g><path style="opacity:0.992" fill="#b35224" d="M 84.5,-0.5 C 86.5,-0.5 88.5,-0.5 90.5,-0.5C 90.5,89.8333 90.5,180.167 90.5,270.5C 75.5,270.5 60.5,270.5 45.5,270.5C 43.8364,204.587 47.0031,138.921 55,73.5C 57.1855,58.2384 60.5188,43.2384 65,28.5C 68.2707,16.4424 74.7707,6.77573 84.5,-0.5 Z"/></g>
<g><path style="opacity:1" fill="#99341f" d="M 90.5,-0.5 C 92.5,-0.5 94.5,-0.5 96.5,-0.5C 104.975,5.4 110.808,13.4 114,23.5C 121.844,46.8891 126.678,70.8891 128.5,95.5C 131.946,128.897 134.279,162.23 135.5,195.5C 135.5,215.167 135.5,234.833 135.5,254.5C 135.5,259.833 135.5,265.167 135.5,270.5C 120.5,270.5 105.5,270.5 90.5,270.5C 90.5,180.167 90.5,89.8333 90.5,-0.5 Z"/></g>
<g><path style="opacity:0.998" fill="#f9bd2c" d="M 315.5,30.5 C 315.5,130.5 315.5,230.5 315.5,330.5C 293.584,331.71 279.084,342.71 272,363.5C 267.523,392.733 279.356,411.566 307.5,420C 310.146,420.497 312.813,420.664 315.5,420.5C 315.5,439.833 315.5,459.167 315.5,478.5C 290.045,481.726 264.711,480.893 239.5,476C 222.385,470.551 211.885,459.051 208,441.5C 207.138,429.053 207.971,416.72 210.5,404.5C 208.789,372.261 192.789,350.428 162.5,339C 153.446,335.369 144.113,332.869 134.5,331.5C 135.037,311.171 135.37,290.837 135.5,270.5C 135.5,265.167 135.5,259.833 135.5,254.5C 154.669,272.346 175.335,274.179 197.5,260C 215.757,242.799 219.257,222.966 208,200.5C 191.879,179.797 171.713,174.63 147.5,185C 142.714,187.62 138.714,191.12 135.5,195.5C 134.279,162.23 131.946,128.897 128.5,95.5C 167.89,61.1436 213.556,39.6436 265.5,31C 282.157,29.2409 298.824,29.0742 315.5,30.5 Z"/></g>
<g><path style="opacity:1" fill="#fe9100" d="M 315.5,30.5 C 386.972,41.9692 441.805,78.3026 480,139.5C 497.423,168.981 507.923,200.648 511.5,234.5C 511.5,248.5 511.5,262.5 511.5,276.5C 499.737,365.092 453.07,427.592 371.5,464C 353.474,471.34 334.808,476.173 315.5,478.5C 315.5,459.167 315.5,439.833 315.5,420.5C 339.237,418.934 354.07,406.6 360,383.5C 362.29,355.904 350.123,338.404 323.5,331C 320.854,330.503 318.187,330.336 315.5,330.5C 315.5,230.5 315.5,130.5 315.5,30.5 Z"/></g>
<g><path style="opacity:1" fill="#484f53" d="M 246.5,94.5 C 273.762,93.1984 291.262,105.532 299,131.5C 300.923,158.895 288.756,176.395 262.5,184C 235.145,185.975 217.645,173.808 210,147.5C 208.215,120.133 220.382,102.466 246.5,94.5 Z"/></g>
<g><path style="opacity:1" fill="#0bc7c6" d="M 362.5,125.5 C 390.304,124.16 407.804,136.827 415,163.5C 417.04,182.729 410.207,197.895 394.5,209C 369.506,221.374 348.673,216.541 332,194.5C 318.851,166.319 325.685,144.486 352.5,129C 355.98,127.897 359.313,126.731 362.5,125.5 Z"/></g>
<g><path style="opacity:1" fill="#fe435a" d="M 135.5,254.5 C 135.5,234.833 135.5,215.167 135.5,195.5C 138.714,191.12 142.714,187.62 147.5,185C 171.713,174.63 191.879,179.797 208,200.5C 219.257,222.966 215.757,242.799 197.5,260C 175.335,274.179 154.669,272.346 135.5,254.5 Z"/></g>
<g><path style="opacity:1" fill="#99341e" d="M 393.5,241.5 C 420.883,240.077 438.383,252.411 446,278.5C 447.886,306.923 435.053,324.423 407.5,331C 380.484,332.24 363.651,319.74 357,293.5C 355.626,266.56 367.793,249.227 393.5,241.5 Z"/></g>
<g><path style="opacity:0.991" fill="#fef6e5" d="M 45.5,270.5 C 60.5,270.5 75.5,270.5 90.5,270.5C 90.5,300.5 90.5,330.5 90.5,360.5C 74.7912,360.734 61.1246,366.067 49.5,376.5C 46.5982,341.285 45.2649,305.952 45.5,270.5 Z"/></g>
<g><path style="opacity:1" fill="#feccb2" d="M 90.5,270.5 C 105.5,270.5 120.5,270.5 135.5,270.5C 135.37,290.837 135.037,311.171 134.5,331.5C 133.927,346.583 132.927,361.583 131.5,376.5C 119.941,365.891 106.274,360.558 90.5,360.5C 90.5,330.5 90.5,300.5 90.5,270.5 Z"/></g>
<g><path style="opacity:1" fill="#fff6e4" d="M 315.5,330.5 C 315.5,360.5 315.5,390.5 315.5,420.5C 312.813,420.664 310.146,420.497 307.5,420C 279.356,411.566 267.523,392.733 272,363.5C 279.084,342.71 293.584,331.71 315.5,330.5 Z"/></g>
<g><path style="opacity:1" fill="#ffe5cb" d="M 315.5,330.5 C 318.187,330.336 320.854,330.503 323.5,331C 350.123,338.404 362.29,355.904 360,383.5C 354.07,406.6 339.237,418.934 315.5,420.5C 315.5,390.5 315.5,360.5 315.5,330.5 Z"/></g>
<g><path style="opacity:0.995" fill="#474f54" d="M 90.5,360.5 C 90.5,409.167 90.5,457.833 90.5,506.5C 84.7908,508.34 79.1241,510.007 73.5,511.5C 48.8333,511.5 24.1667,511.5 -0.5,511.5C -0.5,501.167 -0.5,490.833 -0.5,480.5C 17.7191,478.781 27.8858,468.781 30,450.5C 30.3333,436.833 30.6667,423.167 31,409.5C 33.5681,396.352 39.7347,385.352 49.5,376.5C 61.1246,366.067 74.7912,360.734 90.5,360.5 Z"/></g>
<g><path style="opacity:1" fill="#32393f" d="M 90.5,360.5 C 106.274,360.558 119.941,365.891 131.5,376.5C 141.265,385.352 147.432,396.352 150,409.5C 153.429,449.812 137.929,480.312 103.5,501C 99.3465,503.327 95.0132,505.16 90.5,506.5C 90.5,457.833 90.5,409.167 90.5,360.5 Z"/></g>
</svg>
