<?xml version="1.0" encoding="UTF-8"?>
<!DOCTYPE svg PUBLIC "-//W3C//DTD SVG 1.1//EN" "http://www.w3.org/Graphics/SVG/1.1/DTD/svg11.dtd">
<svg xmlns="http://www.w3.org/2000/svg" version="1.1" width="512px" height="512px" style="shape-rendering:geometricPrecision; text-rendering:geometricPrecision; image-rendering:optimizeQuality; fill-rule:evenodd; clip-rule:evenodd" xmlns:xlink="http://www.w3.org/1999/xlink">
<g><path style="opacity:0.981" fill="#fecd84" d="M 443.5,13.5 C 442.307,13.9704 441.64,14.9704 441.5,16.5C 445.829,45.9356 439.829,72.9356 423.5,97.5C 421.438,87.173 418.938,76.8396 416,66.5C 409.5,62 403,57.5 396.5,53C 394.878,51.7049 393.545,50.2049 392.5,48.5C 392.529,46.9707 393.196,45.804 394.5,45C 403.079,40.7965 411.246,35.9632 419,30.5C 421.641,20.745 424.808,11.245 428.5,2C 429.5,1.33333 430.5,1.33333 431.5,2C 435.395,6.06467 439.395,9.89801 443.5,13.5 Z"/></g>
<g><path style="opacity:1" fill="#fdb442" d="M 79.5,92.5 C 84.1812,82.4494 87.0145,71.7827 88,60.5C 88.6667,51.8333 88.6667,43.1667 88,34.5C 87.566,27.2139 86.066,20.2139 83.5,13.5C 86.6293,9.86913 89.9626,6.36913 93.5,3C 94.8333,2.33333 96.1667,2.33333 97.5,3C 100.906,13.4535 104.24,23.9535 107.5,34.5C 116.174,40.1722 125.174,45.3389 134.5,50C 137.167,52 137.167,54 134.5,56C 126.055,61.4453 117.888,67.2786 110,73.5C 107.073,84.387 104.573,95.387 102.5,106.5C 100.45,107.663 98.4503,107.496 96.5,106C 90.6461,101.636 84.9795,97.1361 79.5,92.5 Z"/></g>
<g><path style="opacity:0.974" fill="#7fd260" d="M 303.5,4.5 C 307.353,16.8319 309.019,29.4986 308.5,42.5C 308.333,47.8333 308.167,53.1667 308,58.5C 307.003,63.4857 306.169,68.4857 305.5,73.5C 298.493,70.6622 291.826,67.1622 285.5,63C 283.438,61.4675 282.104,59.4675 281.5,57C 287.063,39.98 293.23,23.1467 300,6.5C 300.816,5.17723 301.983,4.51056 303.5,4.5 Z"/></g>
<g><path style="opacity:1" fill="#51c124" d="M 303.5,4.5 C 305.527,4.33788 307.527,4.50454 309.5,5C 320.931,11.4365 332.097,18.2699 343,25.5C 343.79,28.634 343.457,31.634 342,34.5C 332,46.5 322,58.5 312,70.5C 310.007,71.914 307.84,72.914 305.5,73.5C 306.169,68.4857 307.003,63.4857 308,58.5C 308.167,53.1667 308.333,47.8333 308.5,42.5C 309.019,29.4986 307.353,16.8319 303.5,4.5 Z"/></g>
<g><path style="opacity:0.986" fill="#fecd85" d="M 83.5,13.5 C 86.066,20.2139 87.566,27.2139 88,34.5C 88.6667,43.1667 88.6667,51.8333 88,60.5C 87.0145,71.7827 84.1812,82.4494 79.5,92.5C 76.6351,90.0699 73.3017,88.7366 69.5,88.5C 61.358,89.7052 53.1914,90.7052 45,91.5C 42.9063,91.4644 40.9063,91.1311 39,90.5C 41.8742,79.5418 45.3742,68.7085 49.5,58C 44.8931,48.1195 40.5598,38.1195 36.5,28C 36.5852,26.8926 36.9186,25.8926 37.5,25C 48.4966,25.1107 59.4966,25.1107 70.5,25C 74.4077,20.5866 78.7411,16.7533 83.5,13.5 Z"/></g>
<g><path style="opacity:1" fill="#fdb441" d="M 443.5,13.5 C 446.631,16.1288 449.631,18.9621 452.5,22C 463.161,22.4998 473.828,22.6665 484.5,22.5C 480.937,32.7992 476.937,42.9659 472.5,53C 475.132,61.2283 477.965,69.395 481,77.5C 481.667,79.5 481.667,81.5 481,83.5C 480.586,83.9574 480.086,84.2907 479.5,84.5C 470.671,83.2149 461.838,81.8815 453,80.5C 450.755,81.1371 448.588,81.9704 446.5,83C 440.167,88 433.833,93 427.5,98C 425.934,98.765 424.601,98.5983 423.5,97.5C 439.829,72.9356 445.829,45.9356 441.5,16.5C 441.64,14.9704 442.307,13.9704 443.5,13.5 Z"/></g>
<g><path style="opacity:1" fill="#fd5694" d="M 220.5,202.5 C 213.956,198.401 207.623,194.068 201.5,189.5C 216.591,159.204 222.091,127.204 218,93.5C 216.307,81.3676 213.973,69.3676 211,57.5C 208.639,47.7647 203.139,40.4313 194.5,35.5C 213.803,29.9 227.303,36.5667 235,55.5C 244.409,87.072 246.409,119.072 241,151.5C 236.918,169.655 230.085,186.655 220.5,202.5 Z"/></g>
<g><path style="opacity:0.993" fill="#fd75a7" d="M 194.5,35.5 C 203.139,40.4313 208.639,47.7647 211,57.5C 213.973,69.3676 216.307,81.3676 218,93.5C 222.091,127.204 216.591,159.204 201.5,189.5C 196.5,187.336 191.833,184.669 187.5,181.5C 191.666,154.48 191.5,127.48 187,100.5C 183.847,87.2243 181.014,73.891 178.5,60.5C 178.512,53.9404 180.345,47.9404 184,42.5C 186.956,39.2776 190.456,36.9442 194.5,35.5 Z"/></g>
<g><path style="opacity:0.99" fill="#fdcd84" d="M 388.5,142.5 C 348.817,176.18 308.817,209.514 268.5,242.5C 263.125,237.491 257.792,232.491 252.5,227.5C 283.934,190.163 315.267,152.663 346.5,115C 351.5,111.667 356.5,111.667 361.5,115C 370.702,124.035 379.702,133.202 388.5,142.5 Z"/></g>
<g><path style="opacity:0.974" fill="#7fd160" d="M 482.5,137.5 C 484.687,166.427 477.687,192.76 461.5,216.5C 459.016,214.88 457.516,212.547 457,209.5C 452.791,187.584 449.458,165.584 447,143.5C 448.251,140.619 450.417,138.786 453.5,138C 463.161,137.5 472.828,137.334 482.5,137.5 Z"/></g>
<g><path style="opacity:1" fill="#50c123" d="M 482.5,137.5 C 489.841,137.334 497.174,137.5 504.5,138C 507.233,138.904 509.567,140.404 511.5,142.5C 511.5,146.167 511.5,149.833 511.5,153.5C 507.697,172.639 504.197,191.973 501,211.5C 499.833,214.667 497.667,216.833 494.5,218C 484.167,218.667 473.833,218.667 463.5,218C 462.584,217.722 461.918,217.222 461.5,216.5C 477.687,192.76 484.687,166.427 482.5,137.5 Z"/></g>
<g><path style="opacity:1" fill="#50c123" d="M 26.5,222.5 C 40.6432,198.316 45.3098,172.316 40.5,144.5C 46.1142,141.787 52.1142,140.954 58.5,142C 59.6667,143.167 60.8333,144.333 62,145.5C 65.1444,169.087 67.1444,192.754 68,216.5C 66.8333,219 65,220.833 62.5,222C 54.8764,224.156 47.2097,226.156 39.5,228C 33.3974,229.898 29.0641,228.064 26.5,222.5 Z"/></g>
<g><path style="opacity:0.98" fill="#7fd160" d="M 40.5,144.5 C 45.3098,172.316 40.6432,198.316 26.5,222.5C 17.5,203.833 8.5,185.167 -0.5,166.5C -0.5,163.833 -0.5,161.167 -0.5,158.5C 1.04602,155.8 3.37935,153.967 6.5,153C 17.7742,149.848 29.1075,147.015 40.5,144.5 Z"/></g>
<g><path style="opacity:1" fill="#fdb441" d="M 388.5,142.5 C 393.785,145.783 397.118,150.45 398.5,156.5C 397.82,158.889 396.986,161.222 396,163.5C 358.602,195.074 321.102,226.408 283.5,257.5C 282.761,257.631 282.094,257.464 281.5,257C 277.33,251.998 272.996,247.164 268.5,242.5C 308.817,209.514 348.817,176.18 388.5,142.5 Z"/></g>
<g><path style="opacity:0.998" fill="#80d160" d="M 153.5,170.5 C 202.047,201.213 241.88,240.88 273,289.5C 282.149,304.13 288.816,319.796 293,336.5C 296.13,352.908 290.297,364.574 275.5,371.5C 240.178,310.968 191.512,264.135 129.5,231C 122.391,227.906 115.058,225.74 107.5,224.5C 111.914,209.76 117.414,195.427 124,181.5C 131.802,172.619 141.635,168.952 153.5,170.5 Z"/></g>
<g><path style="opacity:1" fill="#50c123" d="M 153.5,170.5 C 165.361,172.565 176.694,176.231 187.5,181.5C 191.833,184.669 196.5,187.336 201.5,189.5C 207.623,194.068 213.956,198.401 220.5,202.5C 231.74,210.07 242.406,218.403 252.5,227.5C 257.792,232.491 263.125,237.491 268.5,242.5C 272.996,247.164 277.33,251.998 281.5,257C 282.094,257.464 282.761,257.631 283.5,257.5C 292.174,268.505 300.84,279.505 309.5,290.5C 312.753,297.348 316.753,303.681 321.5,309.5C 323.997,315.165 326.997,320.498 330.5,325.5C 334.759,334.778 337.926,344.445 340,354.5C 343.306,370.635 337.806,382.469 323.5,390C 311.584,394.794 299.584,399.294 287.5,403.5C 285.074,392.556 281.074,382.223 275.5,372.5C 275.5,372.167 275.5,371.833 275.5,371.5C 290.297,364.574 296.13,352.908 293,336.5C 288.816,319.796 282.149,304.13 273,289.5C 241.88,240.88 202.047,201.213 153.5,170.5 Z"/></g>
<g><path style="opacity:1" fill="#fdce84" d="M 107.5,224.5 C 115.058,225.74 122.391,227.906 129.5,231C 191.512,264.135 240.178,310.968 275.5,371.5C 275.5,371.833 275.5,372.167 275.5,372.5C 258.356,378.104 241.356,384.104 224.5,390.5C 193.435,343.6 153.768,305.767 105.5,277C 100.932,274.548 96.265,272.382 91.5,270.5C 96.2713,254.96 101.605,239.627 107.5,224.5 Z"/></g>
<g><path style="opacity:0.998" fill="#80d261" d="M 91.5,270.5 C 96.265,272.382 100.932,274.548 105.5,277C 153.768,305.767 193.435,343.6 224.5,390.5C 200.94,398.462 177.607,406.796 154.5,415.5C 154.167,415.5 153.833,415.5 153.5,415.5C 128.901,384.895 100.234,358.895 67.5,337.5C 75.1254,314.952 83.1254,292.618 91.5,270.5 Z"/></g>
<g><path style="opacity:0.991" fill="#fd75a7" d="M 454.5,285.5 C 453.806,298.061 447.473,306.227 435.5,310C 429.167,310.667 422.833,310.667 416.5,310C 388.347,304.103 360.013,303.103 331.5,307C 327.821,307.026 324.488,307.86 321.5,309.5C 316.753,303.681 312.753,297.348 309.5,290.5C 357.13,268.301 405.463,266.635 454.5,285.5 Z"/></g>
<g><path style="opacity:1" fill="#fd5694" d="M 454.5,285.5 C 472.917,292.879 479.417,306.212 474,325.5C 469.142,335.692 460.975,341.025 449.5,341.5C 435.665,338.723 421.998,335.223 408.5,331C 382.8,324.969 356.8,323.136 330.5,325.5C 326.997,320.498 323.997,315.165 321.5,309.5C 324.488,307.86 327.821,307.026 331.5,307C 360.013,303.103 388.347,304.103 416.5,310C 422.833,310.667 429.167,310.667 435.5,310C 447.473,306.227 453.806,298.061 454.5,285.5 Z"/></g>
<g><path style="opacity:1" fill="#fdce84" d="M 67.5,337.5 C 100.234,358.895 128.901,384.895 153.5,415.5C 135.219,421.651 117.219,428.317 99.5,435.5C 99.1667,435.5 98.8333,435.5 98.5,435.5C 84.6171,419.785 69.2837,405.618 52.5,393C 50.8588,391.871 49.8588,390.371 49.5,388.5C 55.1255,371.286 61.1255,354.286 67.5,337.5 Z"/></g>
<g><path style="opacity:1" fill="#fdb441" d="M 511.5,404.5 C 511.5,405.833 511.5,407.167 511.5,408.5C 504.153,416.353 497.32,424.687 491,433.5C 491.027,442.67 491.527,451.837 492.5,461C 493.99,467.854 491.657,469.854 485.5,467C 478.5,464 471.5,461 464.5,458C 460.463,457.393 456.463,457.56 452.5,458.5C 451.903,458.265 451.57,457.765 451.5,457C 458.356,437.974 460.19,418.474 457,398.5C 455.305,391.191 453.805,383.857 452.5,376.5C 453.777,373.447 455.444,370.614 457.5,368C 458.833,367.333 460.167,367.333 461.5,368C 467.251,377.503 473.251,386.837 479.5,396C 490.185,398.838 500.852,401.671 511.5,404.5 Z"/></g>
<g><path style="opacity:1" fill="#fbb441" d="M 275.5,372.5 C 281.074,382.223 285.074,392.556 287.5,403.5C 271.822,408.837 256.155,414.17 240.5,419.5C 235.94,409.378 230.607,399.712 224.5,390.5C 241.356,384.104 258.356,378.104 275.5,372.5 Z"/></g>
<g><path style="opacity:0.981" fill="#fecd84" d="M 452.5,376.5 C 453.805,383.857 455.305,391.191 457,398.5C 460.19,418.474 458.356,437.974 451.5,457C 451.57,457.765 451.903,458.265 452.5,458.5C 444.972,462.296 437.139,465.629 429,468.5C 428.228,468.355 427.561,468.022 427,467.5C 427.435,455.84 427.769,444.173 428,432.5C 420.799,423.92 413.965,415.087 407.5,406C 408.682,404.265 410.349,403.265 412.5,403C 421.975,400.94 431.308,398.44 440.5,395.5C 444.561,389.127 448.561,382.793 452.5,376.5 Z"/></g>
<g><path style="opacity:0.99" fill="#80d261" d="M 49.5,388.5 C 49.8588,390.371 50.8588,391.871 52.5,393C 69.2837,405.618 84.6171,419.785 98.5,435.5C 73.818,443.844 49.1513,452.177 24.5,460.5C 31.7458,436.033 40.0791,412.033 49.5,388.5 Z"/></g>
<g><path style="opacity:1" fill="#50c123" d="M 224.5,390.5 C 230.607,399.712 235.94,409.378 240.5,419.5C 218.393,427.871 196.06,435.871 173.5,443.5C 167.662,433.821 161.328,424.487 154.5,415.5C 177.607,406.796 200.94,398.462 224.5,390.5 Z"/></g>
<g><path style="opacity:1" fill="#fbb441" d="M 153.5,415.5 C 153.833,415.5 154.167,415.5 154.5,415.5C 161.328,424.487 167.662,433.821 173.5,443.5C 155.914,450.029 138.248,456.362 120.5,462.5C 113.906,453.233 106.906,444.233 99.5,435.5C 117.219,428.317 135.219,421.651 153.5,415.5 Z"/></g>
<g><path style="opacity:0.979" fill="#80d160" d="M 332.5,432.5 C 338.271,455.132 337.605,477.465 330.5,499.5C 321.021,486.567 311.521,473.567 302,460.5C 298.788,455.8 298.788,451.133 302,446.5C 307.864,440.301 314.031,434.468 320.5,429C 325.305,427.746 329.305,428.913 332.5,432.5 Z"/></g>
<g><path style="opacity:1" fill="#50c123" d="M 332.5,432.5 C 347.935,442.754 363.268,453.254 378.5,464C 380.934,467.716 381.101,471.549 379,475.5C 368.167,486.333 357.333,497.167 346.5,508C 343.167,510 339.833,510 336.5,508C 334.112,505.371 332.112,502.538 330.5,499.5C 337.605,477.465 338.271,455.132 332.5,432.5 Z"/></g>
<g><path style="opacity:1" fill="#50c123" d="M 98.5,435.5 C 98.8333,435.5 99.1667,435.5 99.5,435.5C 106.906,444.233 113.906,453.233 120.5,462.5C 101.566,469.423 82.5665,476.256 63.5,483C 55.0021,486.308 46.3354,486.975 37.5,485C 27.5357,479.908 23.2024,471.742 24.5,460.5C 49.1513,452.177 73.818,443.844 98.5,435.5 Z"/></g>
</svg>
