<?xml version="1.0" encoding="UTF-8"?>
<!DOCTYPE svg PUBLIC "-//W3C//DTD SVG 1.1//EN" "http://www.w3.org/Graphics/SVG/1.1/DTD/svg11.dtd">
<svg xmlns="http://www.w3.org/2000/svg" version="1.1" width="512px" height="512px" style="shape-rendering:geometricPrecision; text-rendering:geometricPrecision; image-rendering:optimizeQuality; fill-rule:evenodd; clip-rule:evenodd" xmlns:xlink="http://www.w3.org/1999/xlink">
<g><path style="opacity:0.994" fill="#a9c1cb" d="M 88.5,-0.5 C 149.833,-0.5 211.167,-0.5 272.5,-0.5C 280.679,2.84942 285.845,8.84942 288,17.5C 288.667,38.1667 288.667,58.8333 288,79.5C 283.335,92.9764 273.835,98.9764 259.5,97.5C 245.833,97.5 232.167,97.5 218.5,97.5C 179.167,97.5 139.833,97.5 100.5,97.5C 86.5818,98.6313 77.4152,92.6313 73,79.5C 72.3333,58.8333 72.3333,38.1667 73,17.5C 75.1638,8.84129 80.3305,2.84129 88.5,-0.5 Z"/></g>
<g><path style="opacity:1" fill="#87a1a9" d="M 100.5,21.5 C 104.025,21.3459 106.859,22.6792 109,25.5C 109.667,40.5 109.667,55.5 109,70.5C 106.487,74.2115 102.987,75.3782 98.5,74C 96.9512,72.786 95.7845,71.286 95,69.5C 94.3333,55.5 94.3333,41.5 95,27.5C 96.3597,24.9774 98.193,22.9774 100.5,21.5 Z"/></g>
<g><path style="opacity:1" fill="#86a0a8" d="M 139.5,21.5 C 143.025,21.3459 145.859,22.6792 148,25.5C 148.667,40.5 148.667,55.5 148,70.5C 145.487,74.2115 141.987,75.3782 137.5,74C 136.667,73.1667 135.833,72.3333 135,71.5C 134.333,56.1667 134.333,40.8333 135,25.5C 136.397,23.9297 137.897,22.5964 139.5,21.5 Z"/></g>
<g><path style="opacity:1" fill="#86a0a8" d="M 178.5,21.5 C 182.025,21.3459 184.859,22.6792 187,25.5C 187.667,40.5 187.667,55.5 187,70.5C 184.019,74.6959 180.186,75.5293 175.5,73C 174.874,72.2496 174.374,71.4162 174,70.5C 173.333,55.5 173.333,40.5 174,25.5C 175.397,23.9297 176.897,22.5964 178.5,21.5 Z"/></g>
<g><path style="opacity:1" fill="#87a0a8" d="M 216.5,21.5 C 220.426,21.0466 223.592,22.3799 226,25.5C 226.667,40.5 226.667,55.5 226,70.5C 223.487,74.2115 219.987,75.3782 215.5,74C 213.951,72.786 212.785,71.286 212,69.5C 211.333,55.5 211.333,41.5 212,27.5C 213.332,25.34 214.832,23.34 216.5,21.5 Z"/></g>
<g><path style="opacity:1" fill="#86a0a8" d="M 256.5,21.5 C 260.025,21.3459 262.859,22.6792 265,25.5C 265.667,40.5 265.667,55.5 265,70.5C 262.487,74.2115 258.987,75.3782 254.5,74C 252.951,72.786 251.785,71.286 251,69.5C 250.333,55.5 250.333,41.5 251,27.5C 252.36,24.9774 254.193,22.9774 256.5,21.5 Z"/></g>
<g><path style="opacity:1" fill="#c2e8ef" d="M 218.5,97.5 C 232.167,97.5 245.833,97.5 259.5,97.5C 271.531,113.191 283.531,128.857 295.5,144.5C 300.422,151.936 305.589,159.269 311,166.5C 312.275,168.717 313.275,171.051 314,173.5C 315.403,184.102 315.903,194.769 315.5,205.5C 302.167,205.5 288.833,205.5 275.5,205.5C 275.666,196.161 275.5,186.827 275,177.5C 274.261,173.615 272.927,169.948 271,166.5C 253.491,143.47 235.991,120.47 218.5,97.5 Z"/></g>
<g><path style="opacity:1" fill="#c2e8ef" d="M 465.5,311.5 C 452.5,311.5 439.5,311.5 426.5,311.5C 426.667,274.165 426.5,236.832 426,199.5C 418.941,154.281 393.441,125.615 349.5,113.5C 401.913,106.806 438.747,127.473 460,175.5C 462.298,182.692 463.965,190.026 465,197.5C 465.5,235.499 465.667,273.499 465.5,311.5 Z"/></g>
<g><path style="opacity:0.999" fill="#e0f8fe" d="M 100.5,97.5 C 139.833,97.5 179.167,97.5 218.5,97.5C 235.991,120.47 253.491,143.47 271,166.5C 272.927,169.948 274.261,173.615 275,177.5C 275.5,186.827 275.666,196.161 275.5,205.5C 288.833,205.5 302.167,205.5 315.5,205.5C 315.903,194.769 315.403,184.102 314,173.5C 313.275,171.051 312.275,168.717 311,166.5C 305.589,159.269 300.422,151.936 295.5,144.5C 310.014,128.367 328.014,118.034 349.5,113.5C 393.441,125.615 418.941,154.281 426,199.5C 426.5,236.832 426.667,274.165 426.5,311.5C 389.5,311.5 352.5,311.5 315.5,311.5C 315.832,276.329 315.498,241.329 314.5,206.5C 301.5,206.5 288.5,206.5 275.5,206.5C 198.833,206.5 122.167,206.5 45.5,206.5C 45.3335,196.494 45.5002,186.494 46,176.5C 46.8786,171.864 48.5452,167.531 51,163.5C 67.7167,141.623 84.2167,119.623 100.5,97.5 Z"/></g>
<g><path style="opacity:1" fill="#fe6248" d="M 45.5,206.5 C 122.167,206.5 198.833,206.5 275.5,206.5C 275.667,281.501 275.5,356.501 275,431.5C 274.304,434.478 273.804,437.478 273.5,440.5C 197.5,440.5 121.5,440.5 45.5,440.5C 45.5,362.5 45.5,284.5 45.5,206.5 Z"/></g>
<g><path style="opacity:1" fill="#ff0000" d="M 275.5,206.5 C 288.5,206.5 301.5,206.5 314.5,206.5C 314.5,284.5 314.5,362.5 314.5,440.5C 300.833,440.5 287.167,440.5 273.5,440.5C 273.804,437.478 274.304,434.478 275,431.5C 275.5,356.501 275.667,281.501 275.5,206.5 Z"/></g>
<g><path style="opacity:1" fill="#e1f7fd" d="M 197.5,279.5 C 197.5,290.5 197.5,301.5 197.5,312.5C 208.5,312.5 219.5,312.5 230.5,312.5C 231.117,312.611 231.617,312.944 232,313.5C 232.667,324.5 232.667,335.5 232,346.5C 220.915,347.487 209.748,347.821 198.5,347.5C 198.667,358.505 198.5,369.505 198,380.5C 186.333,381.833 174.667,381.833 163,380.5C 162.5,369.505 162.333,358.505 162.5,347.5C 151.252,347.821 140.085,347.487 129,346.5C 128.333,335.5 128.333,324.5 129,313.5C 129.383,312.944 129.883,312.611 130.5,312.5C 141.5,312.5 152.5,312.5 163.5,312.5C 163.5,301.5 163.5,290.5 163.5,279.5C 163.611,278.883 163.944,278.383 164.5,278C 175.167,277.333 185.833,277.333 196.5,278C 197.056,278.383 197.389,278.883 197.5,279.5 Z"/></g>
<g><path style="opacity:1" fill="#f78f7e" d="M 163.5,279.5 C 163.5,290.5 163.5,301.5 163.5,312.5C 152.5,312.5 141.5,312.5 130.5,312.5C 140.987,311.506 151.654,311.172 162.5,311.5C 162.172,300.654 162.506,289.987 163.5,279.5 Z"/></g>
<g><path style="opacity:1" fill="#f7907f" d="M 197.5,279.5 C 198.494,289.987 198.828,300.654 198.5,311.5C 209.346,311.172 220.013,311.506 230.5,312.5C 219.5,312.5 208.5,312.5 197.5,312.5C 197.5,301.5 197.5,290.5 197.5,279.5 Z"/></g>
<g><path style="opacity:1" fill="#fe6148" d="M 314.5,206.5 C 315.498,241.329 315.832,276.329 315.5,311.5C 352.5,311.5 389.5,311.5 426.5,311.5C 426.5,311.833 426.5,312.167 426.5,312.5C 426.667,348.168 426.5,383.835 426,419.5C 421.046,466.449 395.879,496.283 350.5,509C 351.416,509.278 352.082,509.778 352.5,510.5C 335.621,507.89 320.621,501.224 307.5,490.5C 311.288,483.637 313.788,476.303 315,468.5C 315.5,459.506 315.666,450.506 315.5,441.5C 315.5,440.833 315.167,440.5 314.5,440.5C 314.5,362.5 314.5,284.5 314.5,206.5 Z"/></g>
<g><path style="opacity:1" fill="#fe0602" d="M 426.5,312.5 C 439.167,312.5 451.833,312.5 464.5,312.5C 464.5,350.5 464.5,388.5 464.5,426.5C 459.14,463.367 439.474,489.534 405.5,505C 397.837,507.662 390.171,509.828 382.5,511.5C 373.167,511.5 363.833,511.5 354.5,511.5C 354.158,510.662 353.492,510.328 352.5,510.5C 352.082,509.778 351.416,509.278 350.5,509C 395.879,496.283 421.046,466.449 426,419.5C 426.5,383.835 426.667,348.168 426.5,312.5 Z"/></g>
<g><path style="opacity:0.984" fill="#f83630" d="M 426.5,312.5 C 426.5,312.167 426.5,311.833 426.5,311.5C 439.5,311.5 452.5,311.5 465.5,311.5C 465.832,350.004 465.499,388.337 464.5,426.5C 464.5,388.5 464.5,350.5 464.5,312.5C 451.833,312.5 439.167,312.5 426.5,312.5 Z"/></g>
<g><path style="opacity:0.999" fill="#e1f7fd" d="M 45.5,440.5 C 121.5,440.5 197.5,440.5 273.5,440.5C 287.167,440.5 300.833,440.5 314.5,440.5C 315.167,440.5 315.5,440.833 315.5,441.5C 301.167,441.5 286.833,441.5 272.5,441.5C 266.402,460.092 253.736,471.592 234.5,476C 172.168,476.5 109.834,476.667 47.5,476.5C 46.8153,474.586 46.3153,472.586 46,470.5C 45.5002,460.506 45.3335,450.506 45.5,440.5 Z"/></g>
<g><path style="opacity:1" fill="#c2e8ee" d="M 315.5,441.5 C 315.666,450.506 315.5,459.506 315,468.5C 313.788,476.303 311.288,483.637 307.5,490.5C 299.559,501.12 289.226,508.12 276.5,511.5C 212.5,511.5 148.5,511.5 84.5,511.5C 66.0655,506.402 53.7322,494.735 47.5,476.5C 109.834,476.667 172.168,476.5 234.5,476C 253.736,471.592 266.402,460.092 272.5,441.5C 286.833,441.5 301.167,441.5 315.5,441.5 Z"/></g>
</svg>
