<?xml version="1.0" encoding="UTF-8"?>
<!DOCTYPE svg PUBLIC "-//W3C//DTD SVG 1.1//EN" "http://www.w3.org/Graphics/SVG/1.1/DTD/svg11.dtd">
<svg xmlns="http://www.w3.org/2000/svg" version="1.1" width="512px" height="512px" style="shape-rendering:geometricPrecision; text-rendering:geometricPrecision; image-rendering:optimizeQuality; fill-rule:evenodd; clip-rule:evenodd" xmlns:xlink="http://www.w3.org/1999/xlink">
<g><path style="opacity:0.959" fill="#3d6687" d="M 190.5,43.5 C 184.674,42.2587 179.007,40.4254 173.5,38C 165.728,35.1468 158.395,31.6468 151.5,27.5C 159.965,19.5357 168.298,11.369 176.5,3C 179.702,1.51674 183.036,1.1834 186.5,2C 192.302,6.80035 197.802,11.967 203,17.5C 206.333,21.8333 206.333,26.1667 203,30.5C 198.63,34.7022 194.463,39.0355 190.5,43.5 Z"/></g>
<g><path style="opacity:0.994" fill="#cbdeec" d="M 151.5,27.5 C 158.395,31.6468 165.728,35.1468 173.5,38C 179.007,40.4254 184.674,42.2587 190.5,43.5C 201.761,48.4832 213.095,53.4832 224.5,58.5C 236.868,64.3453 249.535,69.6786 262.5,74.5C 281.618,81.8927 300.618,89.5593 319.5,97.5C 294.845,126.82 269.845,155.82 244.5,184.5C 243.078,184.291 241.745,183.791 240.5,183C 177.828,135.338 114.828,88.1708 51.5,41.5C 59.631,32.8683 67.9643,24.3683 76.5,16C 85.6338,9.96358 95.6338,7.96358 106.5,10C 121.521,15.8465 136.521,21.6798 151.5,27.5 Z"/></g>
<g><path style="opacity:0.992" fill="#61aff5" d="M 453.5,14.5 C 451.01,34.4574 446.01,53.7908 438.5,72.5C 438.167,72.5 437.833,72.5 437.5,72.5C 425.841,60.8924 411.841,55.7258 395.5,57C 391.577,61.2606 391.577,65.594 395.5,70C 405.079,71.4151 414.079,74.4151 422.5,79C 425.039,81.3697 427.372,83.8697 429.5,86.5C 429.5,86.8333 429.5,87.1667 429.5,87.5C 419.912,102.273 408.579,115.773 395.5,128C 290.184,227.491 185.517,327.658 81.5,428.5C 74.0436,421.042 72.5436,412.376 77,402.5C 79.1799,398.14 81.3466,393.807 83.5,389.5C 86.669,385.167 89.3357,380.5 91.5,375.5C 100.247,361.006 109.247,346.673 118.5,332.5C 128.452,319.375 138.619,306.375 149,293.5C 176.043,262.628 202.876,231.628 229.5,200.5C 235.127,195.869 240.127,190.536 244.5,184.5C 269.845,155.82 294.845,126.82 319.5,97.5C 330.292,84.8714 341.292,72.3714 352.5,60C 381.125,34.0276 414.792,18.861 453.5,14.5 Z"/></g>
<g><path style="opacity:1" fill="#399aea" d="M 412.5,189.5 C 411.078,189.709 409.745,190.209 408.5,191C 380.603,215.738 352.603,240.238 324.5,264.5C 318.464,268.873 313.131,273.873 308.5,279.5C 275.764,306.727 243.43,334.56 211.5,363C 199.65,372.418 187.65,381.585 175.5,390.5C 161.477,399.534 147.477,408.534 133.5,417.5C 128.173,419.159 123.507,421.826 119.5,425.5C 114.735,427.382 110.068,429.548 105.5,432C 96.5984,436.057 88.5984,434.89 81.5,428.5C 185.517,327.658 290.184,227.491 395.5,128C 408.579,115.773 419.912,102.273 429.5,87.5C 431.474,89.428 432.974,91.7613 434,94.5C 435.774,100.819 437.441,107.152 439,113.5C 443.261,117.423 447.594,117.423 452,113.5C 453.498,102.143 451.165,91.4762 445,81.5C 442.615,78.6215 440.448,75.6215 438.5,72.5C 446.01,53.7908 451.01,34.4574 453.5,14.5C 461.548,13.1486 469.548,13.3152 477.5,15C 488.956,19.804 494.956,28.4707 495.5,41C 494.085,82.9368 479.918,119.77 453,151.5C 439.604,164.399 426.104,177.066 412.5,189.5 Z"/></g>
<g><path style="opacity:0.958" fill="#3d6687" d="M 262.5,74.5 C 249.535,69.6786 236.868,64.3453 224.5,58.5C 231.631,50.8684 238.964,43.3684 246.5,36C 249.702,34.5167 253.036,34.1834 256.5,35C 262.302,39.8004 267.802,44.967 273,50.5C 276.333,54.8333 276.333,59.1667 273,63.5C 269.296,67.0357 265.796,70.7024 262.5,74.5 Z"/></g>
<g><path style="opacity:1" fill="#bad5e5" d="M 51.5,41.5 C 114.828,88.1708 177.828,135.338 240.5,183C 241.745,183.791 243.078,184.291 244.5,184.5C 240.127,190.536 235.127,195.869 229.5,200.5C 168.594,155.768 108.094,110.435 48,64.5C 44.7199,59.4147 44.0532,54.0813 46,48.5C 46.9354,45.4048 48.7687,43.0714 51.5,41.5 Z"/></g>
<g><path style="opacity:1" fill="#fbfdfe" d="M 437.5,72.5 C 435.197,77.4463 432.531,82.1129 429.5,86.5C 427.372,83.8697 425.039,81.3697 422.5,79C 414.079,74.4151 405.079,71.4151 395.5,70C 391.577,65.594 391.577,61.2606 395.5,57C 411.841,55.7258 425.841,60.8924 437.5,72.5 Z"/></g>
<g><path style="opacity:1" fill="#cadeed" d="M 437.5,72.5 C 437.833,72.5 438.167,72.5 438.5,72.5C 440.448,75.6215 442.615,78.6215 445,81.5C 451.165,91.4762 453.498,102.143 452,113.5C 447.594,117.423 443.261,117.423 439,113.5C 437.441,107.152 435.774,100.819 434,94.5C 432.974,91.7613 431.474,89.428 429.5,87.5C 429.5,87.1667 429.5,86.8333 429.5,86.5C 432.531,82.1129 435.197,77.4463 437.5,72.5 Z"/></g>
<g><path style="opacity:0.996" fill="#cbdeec" d="M 412.5,189.5 C 420.226,209.285 428.226,228.951 436.5,248.5C 441.267,261.487 446.601,274.154 452.5,286.5C 457.321,299.465 462.655,312.132 468.5,324.5C 471.764,334.624 475.431,344.624 479.5,354.5C 479.579,361.096 477.745,367.096 474,372.5C 464.167,382.333 454.333,392.167 444.5,402C 437.946,405.634 431.613,405.301 425.5,401C 391.206,355.886 357.539,310.386 324.5,264.5C 352.603,240.238 380.603,215.738 408.5,191C 409.745,190.209 411.078,189.709 412.5,189.5 Z"/></g>
<g><path style="opacity:0.95" fill="#3d6687" d="M 452.5,286.5 C 446.601,274.154 441.267,261.487 436.5,248.5C 440,245.169 443.666,242.002 447.5,239C 450.5,238.333 453.5,238.333 456.5,239C 463.375,244.207 469.208,250.374 474,257.5C 474.79,260.634 474.457,263.634 473,266.5C 466.298,273.369 459.465,280.036 452.5,286.5 Z"/></g>
<g><path style="opacity:1" fill="#bad5e5" d="M 324.5,264.5 C 357.539,310.386 391.206,355.886 425.5,401C 431.613,405.301 437.946,405.634 444.5,402C 454.333,392.167 464.167,382.333 474,372.5C 477.745,367.096 479.579,361.096 479.5,354.5C 480.977,357.591 482.644,360.591 484.5,363.5C 489.654,376.479 494.82,389.479 500,402.5C 502.794,415.658 499.794,427.325 491,437.5C 483.167,445.333 475.333,453.167 467.5,461C 458.294,467.55 449.794,466.717 442,458.5C 397.668,398.674 353.168,339.007 308.5,279.5C 313.131,273.873 318.464,268.873 324.5,264.5 Z"/></g>
<g><path style="opacity:0.981" fill="#cbdeec" d="M 118.5,332.5 C 109.247,346.673 100.247,361.006 91.5,375.5C 63.1667,354.167 34.8333,332.833 6.5,311.5C 14.8948,299.465 26.2281,294.965 40.5,298C 66.4039,309.787 92.4039,321.287 118.5,332.5 Z"/></g>
<g><path style="opacity:0.948" fill="#3d6687" d="M 511.5,326.5 C 511.5,329.5 511.5,332.5 511.5,335.5C 502.528,344.807 493.528,354.14 484.5,363.5C 482.644,360.591 480.977,357.591 479.5,354.5C 475.431,344.624 471.764,334.624 468.5,324.5C 472.63,319.869 476.963,315.369 481.5,311C 485.937,308.101 490.603,307.768 495.5,310C 501.064,315.395 506.397,320.895 511.5,326.5 Z"/></g>
<g><path style="opacity:1" fill="#bad5e5" d="M 6.5,311.5 C 34.8333,332.833 63.1667,354.167 91.5,375.5C 89.3357,380.5 86.669,385.167 83.5,389.5C 55.1678,368.488 27.1678,347.155 -0.5,325.5C -0.5,323.167 -0.5,320.833 -0.5,318.5C 1.47281,315.861 3.80614,313.527 6.5,311.5 Z"/></g>
<g><path style="opacity:0.987" fill="#cbdeec" d="M 175.5,390.5 C 181.38,402.26 186.713,414.26 191.5,426.5C 185.962,432.205 179.962,437.372 173.5,442C 163.092,445.692 154.258,443.525 147,435.5C 142.723,429.253 138.223,423.253 133.5,417.5C 147.477,408.534 161.477,399.534 175.5,390.5 Z"/></g>
<g><path style="opacity:1" fill="#bad5e5" d="M 133.5,417.5 C 138.223,423.253 142.723,429.253 147,435.5C 154.258,443.525 163.092,445.692 173.5,442C 179.962,437.372 185.962,432.205 191.5,426.5C 197.285,438.742 203.119,451.076 209,463.5C 212.833,473.502 212.166,483.169 207,492.5C 201.5,498 196,503.5 190.5,509C 184.926,510.437 180.759,508.604 178,503.5C 158.668,477.34 139.168,451.34 119.5,425.5C 123.507,421.826 128.173,419.159 133.5,417.5 Z"/></g>
</svg>
