<?xml version="1.0" encoding="UTF-8"?>
<!DOCTYPE svg PUBLIC "-//W3C//DTD SVG 1.1//EN" "http://www.w3.org/Graphics/SVG/1.1/DTD/svg11.dtd">
<svg xmlns="http://www.w3.org/2000/svg" version="1.1" width="512px" height="512px" style="shape-rendering:geometricPrecision; text-rendering:geometricPrecision; image-rendering:optimizeQuality; fill-rule:evenodd; clip-rule:evenodd" xmlns:xlink="http://www.w3.org/1999/xlink">
<g><path style="opacity:0.954" fill="#333e60" d="M 222.5,153.5 C 205.045,145.598 188.712,147.432 173.5,159C 167.532,165.969 161.199,172.636 154.5,179C 153.906,179.464 153.239,179.631 152.5,179.5C 150.975,171.375 149.642,163.209 148.5,155C 149,140.662 155,129.329 166.5,121C 170.833,119 175.167,119 179.5,121C 194.26,131.368 208.594,142.201 222.5,153.5 Z"/></g>
<g><path style="opacity:0.997" fill="#af3838" d="M 222.5,153.5 C 227.09,155.762 231.09,158.762 234.5,162.5C 227.345,163.329 220.011,163.829 212.5,164C 204.9,168.579 204.567,173.579 211.5,179C 219.528,179.698 227.528,179.532 235.5,178.5C 236.168,185.179 237.002,191.846 238,198.5C 242.667,205.167 247.333,205.167 252,198.5C 252.423,191.491 252.256,184.491 251.5,177.5C 264.617,187.565 278.284,196.898 292.5,205.5C 286.694,207.285 280.694,208.785 274.5,210C 269.687,214.041 269.354,218.375 273.5,223C 275.199,223.958 277.033,224.458 279,224.5C 284.757,223.138 290.591,222.471 296.5,222.5C 297.218,229.375 298.718,236.042 301,242.5C 308.803,246.748 313.303,244.581 314.5,236C 313.415,229.499 312.415,222.999 311.5,216.5C 330.34,226.001 349.673,234.335 369.5,241.5C 367.503,246.012 364.503,249.845 360.5,253C 345.709,263.596 329.709,265.93 312.5,260C 280.939,246.563 251.606,229.563 224.5,209C 210.357,198.358 196.357,187.525 182.5,176.5C 178.487,178.506 174.82,181.006 171.5,184C 162.881,194.791 152.881,203.957 141.5,211.5C 120.981,222.288 99.3147,225.622 76.5,221.5C 58.6213,217.061 43.288,208.228 30.5,195C 24.7694,191.475 19.1027,187.975 13.5,184.5C 15.8797,172.81 22.5464,169.31 33.5,174C 58.4089,202.897 89.0756,211.23 125.5,199C 136.335,194.927 145.335,188.427 152.5,179.5C 153.239,179.631 153.906,179.464 154.5,179C 161.199,172.636 167.532,165.969 173.5,159C 188.712,147.432 205.045,145.598 222.5,153.5 Z"/></g>
<g><path style="opacity:0.987" fill="#353e60" d="M 234.5,162.5 C 247.085,159.755 252.752,164.755 251.5,177.5C 252.256,184.491 252.423,191.491 252,198.5C 247.333,205.167 242.667,205.167 238,198.5C 237.002,191.846 236.168,185.179 235.5,178.5C 227.528,179.532 219.528,179.698 211.5,179C 204.567,173.579 204.9,168.579 212.5,164C 220.011,163.829 227.345,163.329 234.5,162.5 Z"/></g>
<g><path style="opacity:0.998" fill="#f46c6c" d="M 369.5,241.5 C 398.834,250.25 428.501,257.584 458.5,263.5C 460.47,278.811 455.803,291.644 444.5,302C 441.205,304.434 437.538,306.101 433.5,307C 422.907,309.371 412.24,311.371 401.5,313C 381.137,317.233 370.804,329.733 370.5,350.5C 401.167,350.5 431.833,350.5 462.5,350.5C 384.334,351.666 306.001,351.832 227.5,351C 222.019,350.843 217.519,348.676 214,344.5C 212.333,338.833 210.667,333.167 209,327.5C 206.284,323.225 202.451,320.559 197.5,319.5C 196.432,318.566 195.099,318.232 193.5,318.5C 188.706,276.582 171.372,240.915 141.5,211.5C 152.881,203.957 162.881,194.791 171.5,184C 174.82,181.006 178.487,178.506 182.5,176.5C 196.357,187.525 210.357,198.358 224.5,209C 251.606,229.563 280.939,246.563 312.5,260C 329.709,265.93 345.709,263.596 360.5,253C 364.503,249.845 367.503,246.012 369.5,241.5 Z"/></g>
<g><path style="opacity:1" fill="#bc4444" d="M 13.5,184.5 C 19.1027,187.975 24.7694,191.475 30.5,195C 43.288,208.228 58.6213,217.061 76.5,221.5C 75.2682,230.148 74.1015,238.815 73,247.5C 72.5,271.164 72.3334,294.831 72.5,318.5C 48.1667,318.5 23.8333,318.5 -0.5,318.5C -0.5,292.833 -0.5,267.167 -0.5,241.5C 2.74883,222.171 7.4155,203.171 13.5,184.5 Z"/></g>
<g><path style="opacity:0.992" fill="#363e60" d="M 311.5,216.5 C 312.415,222.999 313.415,229.499 314.5,236C 313.303,244.581 308.803,246.748 301,242.5C 298.718,236.042 297.218,229.375 296.5,222.5C 290.591,222.471 284.757,223.138 279,224.5C 277.033,224.458 275.199,223.958 273.5,223C 269.354,218.375 269.687,214.041 274.5,210C 280.694,208.785 286.694,207.285 292.5,205.5C 297.14,204.603 301.806,204.436 306.5,205C 309.7,208.136 311.366,211.969 311.5,216.5 Z"/></g>
<g><path style="opacity:1" fill="#da4d4d" d="M 141.5,211.5 C 171.372,240.915 188.706,276.582 193.5,318.5C 153.167,318.5 112.833,318.5 72.5,318.5C 72.3334,294.831 72.5,271.164 73,247.5C 74.1015,238.815 75.2682,230.148 76.5,221.5C 99.3147,225.622 120.981,222.288 141.5,211.5 Z"/></g>
<g><path style="opacity:1" fill="#db4d4d" d="M 458.5,263.5 C 485.994,266.685 503.661,281.352 511.5,307.5C 511.5,311.167 511.5,314.833 511.5,318.5C 504.618,319.513 498.785,322.513 494,327.5C 488.138,341.529 477.638,349.196 462.5,350.5C 431.833,350.5 401.167,350.5 370.5,350.5C 370.804,329.733 381.137,317.233 401.5,313C 412.24,311.371 422.907,309.371 433.5,307C 437.538,306.101 441.205,304.434 444.5,302C 455.803,291.644 460.47,278.811 458.5,263.5 Z"/></g>
<g><path style="opacity:1" fill="#cdced8" d="M -0.5,318.5 C 23.8333,318.5 48.1667,318.5 72.5,318.5C 112.833,318.5 153.167,318.5 193.5,318.5C 195.099,318.232 196.432,318.566 197.5,319.5C 156.167,319.5 114.833,319.5 73.5,319.5C 73.5,329.167 73.5,338.833 73.5,348.5C 89.0091,348.17 104.342,348.504 119.5,349.5C 104.5,349.5 89.5,349.5 74.5,349.5C 49.5,349.5 24.5,349.5 -0.5,349.5C -0.5,339.167 -0.5,328.833 -0.5,318.5 Z"/></g>
<g><path style="opacity:0.989" fill="#e5e8ec" d="M 511.5,318.5 C 511.5,324.5 511.5,330.5 511.5,336.5C 503.053,365.769 483.72,383.602 453.5,390C 355.86,391.484 258.193,391.984 160.5,391.5C 160.802,388.941 160.468,386.607 159.5,384.5C 154.894,362.896 141.561,351.229 119.5,349.5C 104.342,348.504 89.0091,348.17 73.5,348.5C 73.5,338.833 73.5,329.167 73.5,319.5C 114.833,319.5 156.167,319.5 197.5,319.5C 202.451,320.559 206.284,323.225 209,327.5C 210.667,333.167 212.333,338.833 214,344.5C 217.519,348.676 222.019,350.843 227.5,351C 306.001,351.832 384.334,351.666 462.5,350.5C 477.638,349.196 488.138,341.529 494,327.5C 498.785,322.513 504.618,319.513 511.5,318.5 Z"/></g>
<g><path style="opacity:1" fill="#263551" d="M -0.5,349.5 C 24.5,349.5 49.5,349.5 74.5,349.5C 76.8772,370.387 88.2105,383.887 108.5,390C 85.3297,390.168 62.3297,390.668 39.5,391.5C 18.6141,387.748 5.28073,375.748 -0.5,355.5C -0.5,353.5 -0.5,351.5 -0.5,349.5 Z"/></g>
<g><path style="opacity:1" fill="#343f61" d="M 74.5,349.5 C 89.5,349.5 104.5,349.5 119.5,349.5C 141.561,351.229 154.894,362.896 159.5,384.5C 159.5,386.5 159.5,388.5 159.5,390.5C 144.324,390.171 129.324,390.504 114.5,391.5C 89.5,391.5 64.5,391.5 39.5,391.5C 62.3297,390.668 85.3297,390.168 108.5,390C 88.2105,383.887 76.8772,370.387 74.5,349.5 Z"/></g>
<g><path style="opacity:0.753" fill="#727b92" d="M 159.5,384.5 C 160.468,386.607 160.802,388.941 160.5,391.5C 145.167,391.5 129.833,391.5 114.5,391.5C 129.324,390.504 144.324,390.171 159.5,390.5C 159.5,388.5 159.5,386.5 159.5,384.5 Z"/></g>
</svg>
