<?xml version="1.0" encoding="UTF-8"?>
<!DOCTYPE svg PUBLIC "-//W3C//DTD SVG 1.1//EN" "http://www.w3.org/Graphics/SVG/1.1/DTD/svg11.dtd">
<svg xmlns="http://www.w3.org/2000/svg" version="1.1" width="512px" height="512px" style="shape-rendering:geometricPrecision; text-rendering:geometricPrecision; image-rendering:optimizeQuality; fill-rule:evenodd; clip-rule:evenodd" xmlns:xlink="http://www.w3.org/1999/xlink">
<g><path style="opacity:0.996" fill="#02a8f3" d="M 395.5,109.5 C 327.919,120.208 260.252,131.374 192.5,143C 187.857,143.998 183.19,144.332 178.5,144C 132.933,115.392 87.5996,86.5586 42.5,57.5C 110.027,46.0787 177.694,34.7453 245.5,23.5C 295.527,52.1785 345.527,80.8451 395.5,109.5 Z"/></g>
<g><path style="opacity:0.998" fill="#076ab2" d="M 42.5,57.5 C 87.5996,86.5586 132.933,115.392 178.5,144C 183.19,144.332 187.857,143.998 192.5,143C 260.252,131.374 327.919,120.208 395.5,109.5C 403.456,113.736 404.456,119.236 398.5,126C 395.937,127.079 393.271,127.579 390.5,127.5C 322.815,137.921 255.148,148.754 187.5,160C 186.333,161.167 185.167,162.333 184,163.5C 183.5,181.497 183.333,199.497 183.5,217.5C 252.237,206.71 320.904,195.71 389.5,184.5C 398.711,183.542 402.545,187.542 401,196.5C 399.891,198.815 398.057,200.315 395.5,201C 337.309,210.199 279.309,219.699 221.5,229.5C 211.146,230.781 200.812,232.281 190.5,234C 186.833,234.667 183.167,234.667 179.5,234C 138.265,207.915 96.9314,182.082 55.5,156.5C 47.735,151.108 39.735,145.942 31.5,141C 29.6227,138.749 28.1227,136.249 27,133.5C 26.3333,113.833 26.3333,94.1667 27,74.5C 28.9994,65.7639 34.1661,60.0973 42.5,57.5 Z"/></g>
<g><path style="opacity:1" fill="#fdf2e3" d="M 390.5,127.5 C 389.833,129.167 389.167,130.833 388.5,132.5C 383.367,143.66 382.2,155.327 385,167.5C 386.348,173.228 387.848,178.895 389.5,184.5C 320.904,195.71 252.237,206.71 183.5,217.5C 183.333,199.497 183.5,181.497 184,163.5C 185.167,162.333 186.333,161.167 187.5,160C 255.148,148.754 322.815,137.921 390.5,127.5 Z"/></g>
<g><path style="opacity:0.992" fill="#fe6666" d="M 388.5,132.5 C 427.7,155.263 466.7,178.263 505.5,201.5C 418.594,214.914 331.761,228.914 245,243.5C 236.586,239.714 228.753,235.047 221.5,229.5C 279.309,219.699 337.309,210.199 395.5,201C 398.057,200.315 399.891,198.815 401,196.5C 402.545,187.542 398.711,183.542 389.5,184.5C 387.848,178.895 386.348,173.228 385,167.5C 382.2,155.327 383.367,143.66 388.5,132.5 Z"/></g>
<g><path style="opacity:0.998" fill="#e63531" d="M 55.5,156.5 C 96.9314,182.082 138.265,207.915 179.5,234C 183.167,234.667 186.833,234.667 190.5,234C 200.812,232.281 211.146,230.781 221.5,229.5C 228.753,235.047 236.586,239.714 245,243.5C 331.761,228.914 418.594,214.914 505.5,201.5C 507.754,202.415 509.754,203.748 511.5,205.5C 511.5,208.5 511.5,211.5 511.5,214.5C 508.463,217.511 504.796,219.178 500.5,219.5C 417.272,231.647 333.939,244.814 250.5,259C 247.619,260.251 245.786,262.417 245,265.5C 244.333,287.167 244.333,308.833 245,330.5C 245.408,332.41 246.575,333.41 248.5,333.5C 332.609,319.592 416.609,305.926 500.5,292.5C 505.051,291.658 508.717,292.992 511.5,296.5C 511.5,299.167 511.5,301.833 511.5,304.5C 510.354,306.475 508.687,307.975 506.5,309C 489.77,311.733 473.104,314.566 456.5,317.5C 448.776,317.744 441.11,318.577 433.5,320C 391.473,326.727 349.473,333.56 307.5,340.5C 290.193,343.44 272.86,346.273 255.5,349C 250.833,349.667 246.167,349.667 241.5,349C 197.664,321.249 153.997,293.249 110.5,265C 107.589,263.239 104.589,261.739 101.5,260.5C 89.0681,252.108 76.4015,243.942 63.5,236C 58.4777,232.456 55.6444,227.623 55,221.5C 54.1996,199.803 54.3663,178.136 55.5,156.5 Z"/></g>
<g><path style="opacity:0.999" fill="#fef2e3" d="M 500.5,219.5 C 493.907,237.762 492.741,256.428 497,275.5C 498.329,281.148 499.496,286.815 500.5,292.5C 416.609,305.926 332.609,319.592 248.5,333.5C 246.575,333.41 245.408,332.41 245,330.5C 244.333,308.833 244.333,287.167 245,265.5C 245.786,262.417 247.619,260.251 250.5,259C 333.939,244.814 417.272,231.647 500.5,219.5 Z"/></g>
<g><path style="opacity:0.998" fill="#f4d076" d="M 101.5,260.5 C 104.589,261.739 107.589,263.239 110.5,265C 153.997,293.249 197.664,321.249 241.5,349C 246.167,349.667 250.833,349.667 255.5,349C 272.86,346.273 290.193,343.44 307.5,340.5C 294.067,350.924 280.067,360.59 265.5,369.5C 178.877,353.887 92.2107,338.554 5.5,323.5C 37.1496,302.006 69.1496,281.006 101.5,260.5 Z"/></g>
<g><path style="opacity:0.992" fill="#fbac10" d="M 456.5,317.5 C 456.666,326.173 456.5,334.84 456,343.5C 455.499,349.667 452.999,354.834 448.5,359C 389.009,401.579 329.342,443.912 269.5,486C 267.351,486.579 265.185,487.079 263,487.5C 176.804,472.162 90.6373,456.662 4.5,441C 2.31305,439.975 0.646381,438.475 -0.5,436.5C -0.5,433.833 -0.5,431.167 -0.5,428.5C 0.961599,427.542 2.29493,426.376 3.5,425C 5.4727,424.505 7.4727,424.338 9.5,424.5C 92.9551,439.57 176.455,454.57 260,469.5C 263.511,470.251 265.511,468.918 266,465.5C 266.667,441.5 266.667,417.5 266,393.5C 264.877,390.751 263.377,388.251 261.5,386C 177.793,370.827 94.1262,355.661 10.5,340.5C 5.72979,340.924 2.06313,339.257 -0.5,335.5C -0.5,332.833 -0.5,330.167 -0.5,327.5C 0.763268,325.193 2.76327,323.859 5.5,323.5C 92.2107,338.554 178.877,353.887 265.5,369.5C 280.067,360.59 294.067,350.924 307.5,340.5C 349.473,333.56 391.473,326.727 433.5,320C 441.11,318.577 448.776,317.744 456.5,317.5 Z"/></g>
<g><path style="opacity:0.999" fill="#fff2e3" d="M 10.5,340.5 C 94.1262,355.661 177.793,370.827 261.5,386C 263.377,388.251 264.877,390.751 266,393.5C 266.667,417.5 266.667,441.5 266,465.5C 265.511,468.918 263.511,470.251 260,469.5C 176.455,454.57 92.9551,439.57 9.5,424.5C 16.5882,405.382 18.7548,385.715 16,365.5C 14.2268,357.132 12.3934,348.798 10.5,340.5 Z"/></g>
</svg>
