<?xml version="1.0" encoding="UTF-8"?>
<!DOCTYPE svg PUBLIC "-//W3C//DTD SVG 1.1//EN" "http://www.w3.org/Graphics/SVG/1.1/DTD/svg11.dtd">
<svg xmlns="http://www.w3.org/2000/svg" version="1.1" width="512px" height="512px" style="shape-rendering:geometricPrecision; text-rendering:geometricPrecision; image-rendering:optimizeQuality; fill-rule:evenodd; clip-rule:evenodd" xmlns:xlink="http://www.w3.org/1999/xlink">
<g><path style="opacity:0.99" fill="#8ac9fe" d="M 99.5,-0.5 C 217.5,-0.5 335.5,-0.5 453.5,-0.5C 459.157,2.45162 462.657,7.11828 464,13.5C 464.667,153.833 464.667,294.167 464,434.5C 463.171,440.66 460.004,445.16 454.5,448C 443.912,449.429 433.245,449.929 422.5,449.5C 421.831,349.598 421.164,249.598 420.5,149.5C 386.397,113.896 351.73,78.7296 316.5,44C 315.473,43.4867 314.473,42.9867 313.5,42.5C 303.886,41.5514 294.219,41.2181 284.5,41.5C 218.998,41.8325 153.665,41.4991 88.5,40.5C 88.3335,30.8276 88.5002,21.1609 89,11.5C 90.9363,6.0678 94.4363,2.0678 99.5,-0.5 Z"/></g>
<g><path style="opacity:0.995" fill="#e9f5fe" d="M 88.5,40.5 C 153.665,41.4991 218.998,41.8325 284.5,41.5C 284.333,73.8351 284.5,106.168 285,138.5C 289.275,159.442 301.775,172.609 322.5,178C 343.833,178.333 365.167,178.667 386.5,179C 389,180.167 390.833,182 392,184.5C 392.667,289.5 392.667,394.5 392,499.5C 389.804,506.202 385.304,510.202 378.5,511.5C 271.833,511.5 165.167,511.5 58.5,511.5C 52.1012,509.083 48.2679,504.417 47,497.5C 46.3333,350.167 46.3333,202.833 47,55.5C 47.8293,49.34 50.996,44.84 56.5,42C 67.1023,40.5973 77.769,40.0973 88.5,40.5 Z"/></g>
<g><path style="opacity:0.998" fill="#d8ecfd" d="M 284.5,41.5 C 294.219,41.2181 303.886,41.5514 313.5,42.5C 313.333,73.8351 313.5,105.168 314,136.5C 316.167,142.667 320.333,146.833 326.5,149C 357.832,149.5 389.165,149.667 420.5,149.5C 421.164,249.598 421.831,349.598 422.5,449.5C 422.667,466.17 422.5,482.837 422,499.5C 420.064,504.932 416.564,508.932 411.5,511.5C 400.5,511.5 389.5,511.5 378.5,511.5C 385.304,510.202 389.804,506.202 392,499.5C 392.667,394.5 392.667,289.5 392,184.5C 390.833,182 389,180.167 386.5,179C 365.167,178.667 343.833,178.333 322.5,178C 301.775,172.609 289.275,159.442 285,138.5C 284.5,106.168 284.333,73.8351 284.5,41.5 Z"/></g>
<g><path style="opacity:1" fill="#b3dafe" d="M 313.5,42.5 C 314.473,42.9867 315.473,43.4867 316.5,44C 351.73,78.7296 386.397,113.896 420.5,149.5C 389.165,149.667 357.832,149.5 326.5,149C 320.333,146.833 316.167,142.667 314,136.5C 313.5,105.168 313.333,73.8351 313.5,42.5 Z"/></g>
<g><path style="opacity:1" fill="#fc8289" d="M 85.5,75.5 C 100.597,75.0326 115.597,75.5326 130.5,77C 135.112,82.6036 134.112,86.9369 127.5,90C 123.179,90.499 118.846,90.6657 114.5,90.5C 114.667,111.169 114.5,131.836 114,152.5C 111.487,156.212 107.987,157.378 103.5,156C 101.951,154.786 100.785,153.286 100,151.5C 99.5,131.169 99.3334,110.836 99.5,90.5C 95.1539,90.6657 90.8206,90.499 86.5,90C 80.2917,85.5805 79.9583,80.7472 85.5,75.5 Z"/></g>
<g><path style="opacity:1" fill="#fc8188" d="M 163.5,75.5 C 167.516,74.8999 171.016,75.8999 174,78.5C 182.863,100.755 191.529,123.088 200,145.5C 201.833,154.333 198.333,157.833 189.5,156C 185.918,151.429 183.584,146.262 182.5,140.5C 172.145,140.168 161.812,140.501 151.5,141.5C 150.161,146.341 148.161,150.841 145.5,155C 136.319,158.325 132.485,155.158 134,145.5C 142.389,123.055 151.056,100.722 160,78.5C 161.145,77.3636 162.312,76.3636 163.5,75.5 Z"/></g>
<g><path style="opacity:1" fill="#fc8188" d="M 225.5,75.5 C 227.857,75.3367 230.19,75.5034 232.5,76C 238.788,84.077 244.955,92.2437 251,100.5C 256.623,92.7542 262.123,84.9209 267.5,77C 278.239,74.0745 281.739,77.9078 278,88.5C 271.543,96.5826 265.71,105.083 260.5,114C 267.985,124.823 275.485,135.656 283,146.5C 283.622,154.211 280.122,157.378 272.5,156C 264.944,146.619 257.611,137.119 250.5,127.5C 243.866,137.267 236.866,146.767 229.5,156C 220.667,157.833 217.167,154.333 219,145.5C 226.746,135.008 234.246,124.342 241.5,113.5C 235.195,104.029 228.695,94.6953 222,85.5C 221.333,83.5 221.333,81.5 222,79.5C 223.376,78.2949 224.542,76.9616 225.5,75.5 Z"/></g>
<g><path style="opacity:1" fill="#ebf2fa" d="M 166.5,101.5 C 169.91,109.209 173.243,117.042 176.5,125C 170.167,125.667 163.833,125.667 157.5,125C 160.643,117.216 163.643,109.382 166.5,101.5 Z"/></g>
<g><path style="opacity:1" fill="#b3dafe" d="M 86.5,185.5 C 185.915,185.005 285.248,185.505 384.5,187C 385.333,187.833 386.167,188.667 387,189.5C 387.992,247.916 387.658,306.249 386,364.5C 385.097,365.701 383.931,366.535 382.5,367C 283.833,367.667 185.167,367.667 86.5,367C 84.2739,365.773 82.7739,363.939 82,361.5C 81.3333,304.5 81.3333,247.5 82,190.5C 83.025,188.313 84.525,186.646 86.5,185.5 Z"/></g>
<g><path style="opacity:1" fill="#60b7ff" d="M 96.5,200.5 C 140.167,200.5 183.833,200.5 227.5,200.5C 227.5,206.5 227.5,212.5 227.5,218.5C 183.833,218.5 140.167,218.5 96.5,218.5C 96.5,212.5 96.5,206.5 96.5,200.5 Z"/></g>
<g><path style="opacity:1" fill="#60b7ff" d="M 242.5,200.5 C 285.833,200.5 329.167,200.5 372.5,200.5C 372.5,206.5 372.5,212.5 372.5,218.5C 329.167,218.5 285.833,218.5 242.5,218.5C 242.5,212.5 242.5,206.5 242.5,200.5 Z"/></g>
<g><path style="opacity:1" fill="#e9f6fe" d="M 96.5,234.5 C 139.833,234.5 183.167,234.5 226.5,234.5C 226.5,240.167 226.5,245.833 226.5,251.5C 183.167,251.5 139.833,251.5 96.5,251.5C 96.5,245.833 96.5,240.167 96.5,234.5 Z"/></g>
<g><path style="opacity:1" fill="#e9f6fe" d="M 242.5,234.5 C 285.833,234.5 329.167,234.5 372.5,234.5C 372.5,240.167 372.5,245.833 372.5,251.5C 329.167,251.5 285.833,251.5 242.5,251.5C 242.5,245.833 242.5,240.167 242.5,234.5 Z"/></g>
<g><path style="opacity:1" fill="#d7ecfe" d="M 96.5,234.5 C 139.997,233.501 183.663,233.168 227.5,233.5C 227.5,239.833 227.5,246.167 227.5,252.5C 183.663,252.832 139.997,252.499 96.5,251.5C 139.833,251.5 183.167,251.5 226.5,251.5C 226.5,245.833 226.5,240.167 226.5,234.5C 183.167,234.5 139.833,234.5 96.5,234.5 Z"/></g>
<g><path style="opacity:1" fill="#d7ecfe" d="M 242.5,234.5 C 285.997,233.501 329.663,233.168 373.5,233.5C 373.5,239.833 373.5,246.167 373.5,252.5C 329.663,252.832 285.997,252.499 242.5,251.5C 285.833,251.5 329.167,251.5 372.5,251.5C 372.5,245.833 372.5,240.167 372.5,234.5C 329.167,234.5 285.833,234.5 242.5,234.5 Z"/></g>
<g><path style="opacity:1" fill="#e9f5ff" d="M 96.5,267.5 C 140.167,267.5 183.833,267.5 227.5,267.5C 227.5,273.5 227.5,279.5 227.5,285.5C 183.833,285.5 140.167,285.5 96.5,285.5C 96.5,279.5 96.5,273.5 96.5,267.5 Z"/></g>
<g><path style="opacity:1" fill="#e9f5ff" d="M 242.5,267.5 C 285.833,267.5 329.167,267.5 372.5,267.5C 372.5,273.5 372.5,279.5 372.5,285.5C 329.167,285.5 285.833,285.5 242.5,285.5C 242.5,279.5 242.5,273.5 242.5,267.5 Z"/></g>
<g><path style="opacity:1" fill="#e9f5ff" d="M 96.5,300.5 C 140.167,300.5 183.833,300.5 227.5,300.5C 227.5,306.5 227.5,312.5 227.5,318.5C 183.833,318.5 140.167,318.5 96.5,318.5C 96.5,312.5 96.5,306.5 96.5,300.5 Z"/></g>
<g><path style="opacity:1" fill="#e9f6fe" d="M 242.5,300.5 C 285.833,300.5 329.167,300.5 372.5,300.5C 372.5,306.5 372.5,312.5 372.5,318.5C 329.167,318.5 285.833,318.5 242.5,318.5C 242.5,312.5 242.5,306.5 242.5,300.5 Z"/></g>
<g><path style="opacity:1" fill="#e9f6fe" d="M 96.5,334.5 C 139.833,334.5 183.167,334.5 226.5,334.5C 226.5,340.167 226.5,345.833 226.5,351.5C 183.167,351.5 139.833,351.5 96.5,351.5C 96.5,345.833 96.5,340.167 96.5,334.5 Z"/></g>
<g><path style="opacity:1" fill="#d4eafe" d="M 96.5,334.5 C 139.997,333.501 183.663,333.168 227.5,333.5C 227.5,339.833 227.5,346.167 227.5,352.5C 183.663,352.832 139.997,352.499 96.5,351.5C 139.833,351.5 183.167,351.5 226.5,351.5C 226.5,345.833 226.5,340.167 226.5,334.5C 183.167,334.5 139.833,334.5 96.5,334.5 Z"/></g>
<g><path style="opacity:1" fill="#d2e9fe" d="M 241.5,333.5 C 285.5,333.5 329.5,333.5 373.5,333.5C 373.5,339.833 373.5,346.167 373.5,352.5C 329.5,352.5 285.5,352.5 241.5,352.5C 241.5,346.167 241.5,339.833 241.5,333.5 Z"/></g>
<g><path style="opacity:1" fill="#e9f6fe" d="M 242.5,334.5 C 285.833,334.5 329.167,334.5 372.5,334.5C 372.5,340.167 372.5,345.833 372.5,351.5C 329.167,351.5 285.833,351.5 242.5,351.5C 242.5,345.833 242.5,340.167 242.5,334.5 Z"/></g>
<g><path style="opacity:1" fill="#928492" d="M 86.5,395.5 C 109.502,395.333 132.502,395.5 155.5,396C 160.689,398.913 161.856,403.08 159,408.5C 158.25,409.126 157.416,409.626 156.5,410C 132.833,410.667 109.167,410.667 85.5,410C 80.0028,404.683 80.3361,399.85 86.5,395.5 Z"/></g>
<g><path style="opacity:1" fill="#fed261" d="M 335.5,395.5 C 345.11,395.936 347.776,400.436 343.5,409C 339.286,411.269 335.453,410.769 332,407.5C 330.699,405.635 330.365,403.635 331,401.5C 332.332,399.34 333.832,397.34 335.5,395.5 Z"/></g>
<g><path style="opacity:1" fill="#fed15d" d="M 370.5,395.5 C 380.085,395.936 382.918,400.603 379,409.5C 369.805,430.752 360.805,452.085 352,473.5C 347.537,478.741 343.204,478.741 339,473.5C 338.333,470.833 338.333,468.167 339,465.5C 347.667,444.833 356.333,424.167 365,403.5C 366.273,400.403 368.107,397.736 370.5,395.5 Z"/></g>
<g><path style="opacity:1" fill="#938493" d="M 85.5,429.5 C 128.168,429.333 170.835,429.5 213.5,430C 219.133,435.487 218.466,440.154 211.5,444C 169.833,444.667 128.167,444.667 86.5,444C 80.2917,439.58 79.9583,434.747 85.5,429.5 Z"/></g>
<g><path style="opacity:1" fill="#928392" d="M 85.5,462.5 C 109.169,462.333 132.836,462.5 156.5,463C 160.212,465.513 161.378,469.013 160,473.5C 158.786,475.049 157.286,476.215 155.5,477C 132.5,477.667 109.5,477.667 86.5,477C 80.2917,472.58 79.9583,467.747 85.5,462.5 Z"/></g>
<g><path style="opacity:1" fill="#fed15f" d="M 377.5,462.5 C 385.489,461.989 388.655,465.656 387,473.5C 382.537,478.741 378.204,478.741 374,473.5C 372.518,468.774 373.685,465.107 377.5,462.5 Z"/></g>
</svg>
