<?xml version="1.0" encoding="UTF-8"?>
<!DOCTYPE svg PUBLIC "-//W3C//DTD SVG 1.1//EN" "http://www.w3.org/Graphics/SVG/1.1/DTD/svg11.dtd">
<svg xmlns="http://www.w3.org/2000/svg" version="1.1" width="512px" height="512px" style="shape-rendering:geometricPrecision; text-rendering:geometricPrecision; image-rendering:optimizeQuality; fill-rule:evenodd; clip-rule:evenodd" xmlns:xlink="http://www.w3.org/1999/xlink">
<g><path style="opacity:0.992" fill="#eebeb5" d="M 75.5,-0.5 C 77.5,-0.5 79.5,-0.5 81.5,-0.5C 91.4823,23.2786 99.9823,47.6119 107,72.5C 109.19,80.4958 107.023,86.9958 100.5,92C 85.9716,102.696 73.3049,115.196 62.5,129.5C 57.9475,98.9935 56.4475,68.3269 58,37.5C 58.7962,26.9806 61.4629,16.9806 66,7.5C 68.7948,4.18944 71.9615,1.52277 75.5,-0.5 Z"/></g>
<g><path style="opacity:0.985" fill="#b78c7a" d="M 421.5,-0.5 C 423.167,-0.5 424.833,-0.5 426.5,-0.5C 416.795,7.37897 408.629,16.7123 402,27.5C 389.12,49.2583 377.287,71.5917 366.5,94.5C 365.609,93.8902 364.609,93.5569 363.5,93.5C 347.252,88.6288 330.918,84.6288 314.5,81.5C 339.664,54.1565 367.664,30.3232 398.5,10C 406.019,5.9028 413.685,2.4028 421.5,-0.5 Z"/></g>
<g><path style="opacity:0.984" fill="#eaa598" d="M 430.5,-0.5 C 432.167,-0.5 433.833,-0.5 435.5,-0.5C 441.171,2.67875 445.337,7.34541 448,13.5C 450.563,21.3129 452.229,29.3129 453,37.5C 454.557,79.2067 451.39,120.54 443.5,161.5C 427.361,139.195 408.028,120.028 385.5,104C 379.565,100.535 373.565,97.3679 367.5,94.5C 375.471,93.1921 383.471,93.3588 391.5,95C 399.508,97.4461 407.341,100.279 415,103.5C 421.062,103.139 425.729,100.473 429,95.5C 430.636,90.9883 431.636,86.3216 432,81.5C 434.447,54.0949 433.947,26.7616 430.5,-0.5 Z"/></g>
<g><path style="opacity:0.997" fill="#e9a497" d="M 81.5,-0.5 C 82.5,-0.5 83.5,-0.5 84.5,-0.5C 93.1589,6.66571 100.659,14.999 107,24.5C 117.049,41.2712 126.549,58.2712 135.5,75.5C 138.307,81.919 141.307,88.2523 144.5,94.5C 129.704,100.73 116.37,109.23 104.5,120C 91.0936,133.059 78.7602,146.892 67.5,161.5C 65.6481,150.871 63.9814,140.204 62.5,129.5C 73.3049,115.196 85.9716,102.696 100.5,92C 107.023,86.9958 109.19,80.4958 107,72.5C 99.9823,47.6119 91.4823,23.2786 81.5,-0.5 Z"/></g>
<g><path style="opacity:1" fill="#edbeb5" d="M 426.5,-0.5 C 427.833,-0.5 429.167,-0.5 430.5,-0.5C 433.947,26.7616 434.447,54.0949 432,81.5C 431.636,86.3216 430.636,90.9883 429,95.5C 425.729,100.473 421.062,103.139 415,103.5C 407.341,100.279 399.508,97.4461 391.5,95C 383.471,93.3588 375.471,93.1921 367.5,94.5C 367.167,94.5 366.833,94.5 366.5,94.5C 377.287,71.5917 389.12,49.2583 402,27.5C 408.629,16.7123 416.795,7.37897 426.5,-0.5 Z"/></g>
<g><path style="opacity:1" fill="#ab7b64" d="M 144.5,94.5 C 141.307,88.2523 138.307,81.919 135.5,75.5C 139.52,73.7051 143.853,72.5384 148.5,72C 158.609,71.0583 168.609,71.725 178.5,74C 184.257,75.7131 189.59,78.2131 194.5,81.5C 177.509,84.6671 160.842,89.0004 144.5,94.5 Z"/></g>
<g><path style="opacity:0.997" fill="#b78c79" d="M 84.5,-0.5 C 86.1667,-0.5 87.8333,-0.5 89.5,-0.5C 107.312,6.40789 123.646,15.9079 138.5,28C 158.914,44.9096 178.581,62.7429 197.5,81.5C 216.695,78.4852 236.028,77.1518 255.5,77.5C 255.667,129.834 255.5,182.168 255,234.5C 248.746,262.896 230.912,277.23 201.5,277.5C 208.236,253.975 200.903,236.308 179.5,224.5C 178.669,218.072 175.002,215.572 168.5,217C 167.956,217.717 167.289,218.217 166.5,218.5C 148.549,213.374 133.882,218.041 122.5,232.5C 96.8223,233.01 80.6556,245.676 74,270.5C 70.904,309.162 88.0706,333.329 125.5,343C 128.482,343.498 131.482,343.665 134.5,343.5C 134.745,359.247 140.078,372.914 150.5,384.5C 126.888,393.297 108.888,408.631 96.5,430.5C 94.5497,433 93.883,435.667 94.5,438.5C 125.656,453.72 158.323,463.386 192.5,467.5C 193.685,475.387 195.685,483.053 198.5,490.5C 156.833,490.5 115.167,490.5 73.5,490.5C 79.4311,473.042 85.7645,455.708 92.5,438.5C 41.5853,409.153 15.5853,364.82 14.5,305.5C 17.6383,251.938 35.305,203.938 67.5,161.5C 78.7602,146.892 91.0936,133.059 104.5,120C 116.37,109.23 129.704,100.73 144.5,94.5C 160.842,89.0004 177.509,84.6671 194.5,81.5C 189.59,78.2131 184.257,75.7131 178.5,74C 168.609,71.725 158.609,71.0583 148.5,72C 143.853,72.5384 139.52,73.7051 135.5,75.5C 126.549,58.2712 117.049,41.2712 107,24.5C 100.659,14.999 93.1589,6.66571 84.5,-0.5 Z"/></g>
<g><path style="opacity:1" fill="#edc08f" d="M 255.5,77.5 C 275.301,77.2029 294.968,78.5362 314.5,81.5C 330.918,84.6288 347.252,88.6288 363.5,93.5C 401.5,132.033 431,176.366 452,226.5C 457.394,240.741 460.894,255.408 462.5,270.5C 432.076,279.436 415.243,299.769 412,331.5C 413.367,354.997 409.7,377.664 401,399.5C 398.328,405.517 395.161,411.184 391.5,416.5C 391.5,417.167 391.167,417.5 390.5,417.5C 352.883,436.739 312.883,447.239 270.5,449C 211.411,452.523 153.411,446.356 96.5,430.5C 108.888,408.631 126.888,393.297 150.5,384.5C 166.147,399.991 184.813,405.491 206.5,401C 224.37,396.73 240.703,389.23 255.5,378.5C 274.063,392.8 295.063,400.8 318.5,402.5C 347.358,400.659 366.191,385.993 375,358.5C 376.131,352.529 376.464,346.529 376,340.5C 374.117,337.976 371.617,336.642 368.5,336.5C 367.433,319.715 361.433,305.048 350.5,292.5C 370.355,287.82 383.855,275.82 391,256.5C 391.667,250.5 391.667,244.5 391,238.5C 390.634,236.548 389.801,234.882 388.5,233.5C 381.271,222.382 370.938,216.715 357.5,216.5C 353.037,216.46 348.703,217.127 344.5,218.5C 337.226,214.418 332.893,216.418 331.5,224.5C 310.086,236.327 302.753,253.994 309.5,277.5C 277.769,279.898 260.102,296.898 256.5,328.5C 254.833,328.5 253.167,328.5 251.5,328.5C 247.398,327.91 243.398,326.91 239.5,325.5C 231.221,327.557 229.554,332.057 234.5,339C 238.904,340.959 243.238,342.792 247.5,344.5C 247.813,351.755 247.48,358.921 246.5,366C 230.502,378.556 212.335,385.389 192,386.5C 173.645,385.825 160.645,377.158 153,360.5C 150.714,354.023 149.381,347.356 149,340.5C 144.255,335.257 139.588,335.257 135,340.5C 134.517,341.448 134.351,342.448 134.5,343.5C 131.482,343.665 128.482,343.498 125.5,343C 88.0706,333.329 70.904,309.162 74,270.5C 80.6556,245.676 96.8223,233.01 122.5,232.5C 118.105,244.173 118.771,255.506 124.5,266.5C 136.189,285.346 153.189,294.179 175.5,293C 186.567,291.642 195.233,286.475 201.5,277.5C 230.912,277.23 248.746,262.896 255,234.5C 255.5,182.168 255.667,129.834 255.5,77.5 Z"/></g>
<g><path style="opacity:0.99" fill="#e9a761" d="M 363.5,93.5 C 364.609,93.5569 365.609,93.8902 366.5,94.5C 366.833,94.5 367.167,94.5 367.5,94.5C 373.565,97.3679 379.565,100.535 385.5,104C 408.028,120.028 427.361,139.195 443.5,161.5C 466.787,192.969 482.787,227.969 491.5,266.5C 485.681,267.328 479.681,267.828 473.5,268C 470.001,268.303 466.668,269.136 463.5,270.5C 463.167,270.5 462.833,270.5 462.5,270.5C 460.894,255.408 457.394,240.741 452,226.5C 431,176.366 401.5,132.033 363.5,93.5 Z"/></g>
<g><path style="opacity:1" fill="#4e5a61" d="M 179.5,224.5 C 179.667,235.838 179.5,247.172 179,258.5C 177.624,259.705 176.458,261.038 175.5,262.5C 170.561,263.648 167.061,261.981 165,257.5C 164.333,245.167 164.333,232.833 165,220.5C 165.717,219.956 166.217,219.289 166.5,218.5C 167.289,218.217 167.956,217.717 168.5,217C 175.002,215.572 178.669,218.072 179.5,224.5 Z"/></g>
<g><path style="opacity:1" fill="#4e5a61" d="M 344.5,218.5 C 344.783,219.289 345.283,219.956 346,220.5C 346.667,232.833 346.667,245.167 346,257.5C 341.748,263.653 337.081,263.986 332,258.5C 331.5,247.172 331.333,235.838 331.5,224.5C 332.893,216.418 337.226,214.418 344.5,218.5 Z"/></g>
<g><path style="opacity:1" fill="#dcfbe8" d="M 166.5,218.5 C 166.217,219.289 165.717,219.956 165,220.5C 164.333,232.833 164.333,245.167 165,257.5C 167.061,261.981 170.561,263.648 175.5,262.5C 170.325,267.754 163.991,270.921 156.5,272C 151.167,272.667 145.833,272.667 140.5,272C 135.05,270.438 129.717,268.605 124.5,266.5C 118.771,255.506 118.105,244.173 122.5,232.5C 133.882,218.041 148.549,213.374 166.5,218.5 Z"/></g>
<g><path style="opacity:1" fill="#dcfbe8" d="M 388.5,233.5 C 373.66,252.106 354.993,265.606 332.5,274C 325.327,276.147 317.994,277.313 310.5,277.5C 310.167,277.5 309.833,277.5 309.5,277.5C 302.753,253.994 310.086,236.327 331.5,224.5C 331.333,235.838 331.5,247.172 332,258.5C 337.081,263.986 341.748,263.653 346,257.5C 346.667,245.167 346.667,232.833 346,220.5C 345.283,219.956 344.783,219.289 344.5,218.5C 348.703,217.127 353.037,216.46 357.5,216.5C 370.938,216.715 381.271,222.382 388.5,233.5 Z"/></g>
<g><path style="opacity:1" fill="#bfeddb" d="M 179.5,224.5 C 200.903,236.308 208.236,253.975 201.5,277.5C 195.233,286.475 186.567,291.642 175.5,293C 153.189,294.179 136.189,285.346 124.5,266.5C 129.717,268.605 135.05,270.438 140.5,272C 145.833,272.667 151.167,272.667 156.5,272C 163.991,270.921 170.325,267.754 175.5,262.5C 176.458,261.038 177.624,259.705 179,258.5C 179.5,247.172 179.667,235.838 179.5,224.5 Z"/></g>
<g><path style="opacity:1" fill="#beeddc" d="M 388.5,233.5 C 389.801,234.882 390.634,236.548 391,238.5C 391.667,244.5 391.667,250.5 391,256.5C 383.855,275.82 370.355,287.82 350.5,292.5C 338.505,295.25 327.505,293.083 317.5,286C 314.577,283.584 312.243,280.75 310.5,277.5C 317.994,277.313 325.327,276.147 332.5,274C 354.993,265.606 373.66,252.106 388.5,233.5 Z"/></g>
<g><path style="opacity:0.994" fill="#ab7b64" d="M 491.5,266.5 C 502.33,313.184 494.497,356.518 468,396.5C 454.281,413.919 437.781,427.919 418.5,438.5C 408.84,442.498 399.174,446.498 389.5,450.5C 373.316,456.004 356.816,460.338 340,463.5C 339.235,463.43 338.735,463.097 338.5,462.5C 359.553,451.779 376.887,436.779 390.5,417.5C 391.167,417.5 391.5,417.167 391.5,416.5C 445.844,383.142 469.844,334.475 463.5,270.5C 466.668,269.136 470.001,268.303 473.5,268C 479.681,267.828 485.681,267.328 491.5,266.5 Z"/></g>
<g><path style="opacity:1" fill="#b78c7a" d="M 462.5,270.5 C 462.833,270.5 463.167,270.5 463.5,270.5C 469.844,334.475 445.844,383.142 391.5,416.5C 395.161,411.184 398.328,405.517 401,399.5C 409.7,377.664 413.367,354.997 412,331.5C 415.243,299.769 432.076,279.436 462.5,270.5 Z"/></g>
<g><path style="opacity:1" fill="#b78c7a" d="M 309.5,277.5 C 309.833,277.5 310.167,277.5 310.5,277.5C 312.243,280.75 314.577,283.584 317.5,286C 327.505,293.083 338.505,295.25 350.5,292.5C 361.433,305.048 367.433,319.715 368.5,336.5C 365.737,336.744 363.571,338.077 362,340.5C 361.375,364.102 349.875,379.269 327.5,386C 307.826,387.888 289.826,383.221 273.5,372C 270.42,369.71 267.253,367.543 264,365.5C 263.5,358.174 263.334,350.841 263.5,343.5C 268.875,342.765 273.708,340.765 278,337.5C 280.831,330.497 278.498,326.497 271,325.5C 265.578,327.064 260.078,328.397 254.5,329.5C 253.274,329.48 252.274,329.147 251.5,328.5C 253.167,328.5 254.833,328.5 256.5,328.5C 260.102,296.898 277.769,279.898 309.5,277.5 Z"/></g>
<g><path style="opacity:1" fill="#505b61" d="M 251.5,328.5 C 252.274,329.147 253.274,329.48 254.5,329.5C 260.078,328.397 265.578,327.064 271,325.5C 278.498,326.497 280.831,330.497 278,337.5C 273.708,340.765 268.875,342.765 263.5,343.5C 258.228,344.4 252.895,344.733 247.5,344.5C 243.238,342.792 238.904,340.959 234.5,339C 229.554,332.057 231.221,327.557 239.5,325.5C 243.398,326.91 247.398,327.91 251.5,328.5 Z"/></g>
<g><path style="opacity:1" fill="#ab7b64" d="M 247.5,344.5 C 252.895,344.733 258.228,344.4 263.5,343.5C 263.334,350.841 263.5,358.174 264,365.5C 267.253,367.543 270.42,369.71 273.5,372C 289.826,383.221 307.826,387.888 327.5,386C 349.875,379.269 361.375,364.102 362,340.5C 363.571,338.077 365.737,336.744 368.5,336.5C 371.617,336.642 374.117,337.976 376,340.5C 376.464,346.529 376.131,352.529 375,358.5C 366.191,385.993 347.358,400.659 318.5,402.5C 295.063,400.8 274.063,392.8 255.5,378.5C 240.703,389.23 224.37,396.73 206.5,401C 184.813,405.491 166.147,399.991 150.5,384.5C 140.078,372.914 134.745,359.247 134.5,343.5C 134.351,342.448 134.517,341.448 135,340.5C 139.588,335.257 144.255,335.257 149,340.5C 149.381,347.356 150.714,354.023 153,360.5C 160.645,377.158 173.645,385.825 192,386.5C 212.335,385.389 230.502,378.556 246.5,366C 247.48,358.921 247.813,351.755 247.5,344.5 Z"/></g>
<g><path style="opacity:1" fill="#e9a761" d="M 212.5,418.5 C 220.083,420.747 227.75,422.914 235.5,425C 256.291,428.517 276.457,426.35 296,418.5C 303.941,421.012 305.441,425.679 300.5,432.5C 293.196,436.077 285.529,438.577 277.5,440C 258.255,442.821 239.255,441.821 220.5,437C 217.417,435.861 214.417,434.528 211.5,433C 206.003,427.683 206.336,422.85 212.5,418.5 Z"/></g>
<g><path style="opacity:1" fill="#e8a761" d="M 390.5,417.5 C 376.887,436.779 359.553,451.779 338.5,462.5C 333.708,464.302 328.708,465.469 323.5,466C 279.888,471.373 236.222,471.873 192.5,467.5C 158.323,463.386 125.656,453.72 94.5,438.5C 93.883,435.667 94.5497,433 96.5,430.5C 153.411,446.356 211.411,452.523 270.5,449C 312.883,447.239 352.883,436.739 390.5,417.5 Z"/></g>
<g><path style="opacity:0.996" fill="#e9a761" d="M 418.5,438.5 C 426.15,458.281 433.317,478.281 440,498.5C 440.785,503.988 438.951,508.322 434.5,511.5C 361.167,511.5 287.833,511.5 214.5,511.5C 208.311,505.317 203.311,498.317 199.5,490.5C 261.501,490.667 323.501,490.5 385.5,490C 392.697,487.469 396.364,482.302 396.5,474.5C 394.166,466.496 391.833,458.496 389.5,450.5C 399.174,446.498 408.84,442.498 418.5,438.5 Z"/></g>
<g><path style="opacity:1" fill="#edc08f" d="M 389.5,450.5 C 391.833,458.496 394.166,466.496 396.5,474.5C 396.364,482.302 392.697,487.469 385.5,490C 323.501,490.5 261.501,490.667 199.5,490.5C 199.167,490.5 198.833,490.5 198.5,490.5C 195.685,483.053 193.685,475.387 192.5,467.5C 236.222,471.873 279.888,471.373 323.5,466C 328.708,465.469 333.708,464.302 338.5,462.5C 338.735,463.097 339.235,463.43 340,463.5C 356.816,460.338 373.316,456.004 389.5,450.5 Z"/></g>
<g><path style="opacity:0.998" fill="#ab7b64" d="M 73.5,490.5 C 115.167,490.5 156.833,490.5 198.5,490.5C 198.833,490.5 199.167,490.5 199.5,490.5C 203.311,498.317 208.311,505.317 214.5,511.5C 168.5,511.5 122.5,511.5 76.5,511.5C 73.0705,508.884 71.0705,505.384 70.5,501C 71.4045,497.455 72.4045,493.955 73.5,490.5 Z"/></g>
</svg>
